Rakkas-Regular.ufo
<glyph name="exclam" format="1">
  <advance width="251"/>
  <unicode hex="0021"/>
  <outline>
    <contour>
      <point x="179" y="258" type="line"/>
      <point x="214" y="682" type="line"/>
      <point x="38" y="627" type="line"/>
      <point x="66" y="236" type="line"/>
    </contour>
    <component base="period" xOffset="18"/>
  </outline>
</glyph>
<glyph name="quotedbl" format="1">
  <advance width="186"/>
  <unicode hex="0022"/>
  <outline>
    <contour>
      <point x="173" y="496" type="line"/>
      <point x="181" y="700" type="line"/>
      <point x="115" y="694" type="line"/>
      <point x="115" y="493" type="line"/>
    </contour>
    <contour>
      <point x="68" y="496" type="line"/>
      <point x="76" y="700" type="line"/>
      <point x="10" y="694" type="line"/>
      <point x="10" y="493" type="line"/>
    </contour>
  </outline>
</glyph>
<glyph name="numbersign" format="1">
  <advance width="594"/>
  <unicode hex="0023"/>
  <outline>
    <contour>
      <point x="554" y="705" type="line"/>
      <point x="514" y="710" type="line"/>
      <point x="298" y="-12" type="line"/>
      <point x="345" y="-19" type="line"/>
    </contour>
    <contour>
      <point x="311" y="704" type="line"/>
      <point x="263" y="710" type="line"/>
      <point x="54" y="-14" type="line"/>
      <point x="95" y="-19" type="line"/>
    </contour>
    <contour>
      <point x="564" y="404" type="line"/>
      <point x="584" y="530" type="line"/>
      <point x="71" y="525" type="line"/>
      <point x="56" y="404" type="line"/>
    </contour>
    <contour>
      <point x="534" y="174" type="line"/>
      <point x="554" y="300" type="line"/>
      <point x="41" y="295" type="line"/>
      <point x="26" y="174" type="line"/>
    </contour>
  </outline>
</glyph>
<glyph name="dollar" format="1">
  <advance width="486"/>
  <unicode hex="0024"/>
  <outline>
    <contour>
      <point x="392" y="-15"/>
      <point x="480" y="73"/>
      <point x="480" y="164" type="curve" smooth="yes"/>
      <point x="480" y="328"/>
      <point x="195" y="339"/>
      <point x="195" y="475" type="curve" smooth="yes"/>
      <point x="195" y="521"/>
      <point x="228" y="556"/>
      <point x="285" y="556" type="curve" smooth="yes"/>
      <point x="298" y="556"/>
      <point x="303" y="554"/>
      <point x="319" y="550" type="curve"/>
      <point x="270" y="564" type="line"/>
      <point x="300" y="524"/>
      <point x="337" y="469"/>
      <point x="379" y="413" type="curve"/>
      <point x="481" y="484" type="line"/>
      <point x="438" y="547"/>
      <point x="377" y="591"/>
      <point x="272" y="591" type="curve" smooth="yes"/>
      <point x="138" y="591"/>
      <point x="43" y="515"/>
      <point x="43" y="417" type="curve" smooth="yes"/>
      <point x="43" y="247"/>
      <point x="317" y="224"/>
      <point x="317" y="112" type="curve" smooth="yes"/>
      <point x="317" y="68"/>
      <point x="274" y="26"/>
      <point x="217" y="26" type="curve" smooth="yes"/>
      <point x="204" y="26"/>
      <point x="192" y="28"/>
      <point x="179" y="32" type="curve"/>
      <point x="233" y="-3" type="line"/>
      <point x="191" y="63"/>
      <point x="153" y="124"/>
      <point x="118" y="190" type="curve"/>
      <point x="8" y="125" type="line"/>
      <point x="48" y="45"/>
      <point x="119" y="-15"/>
      <point x="244" y="-15" type="curve" smooth="yes"/>
    </contour>
    <contour>
      <point x="272" y="-133" type="line"/>
      <point x="272" y="-3" type="line"/>
      <point x="230" y="-3" type="line"/>
      <point x="230" y="-133" type="line"/>
    </contour>
    <contour>
      <point x="272" y="573" type="line"/>
      <point x="272" y="703" type="line"/>
      <point x="230" y="703" type="line"/>
      <point x="230" y="573" type="line"/>
    </contour>
  </outline>
</glyph>
<glyph name="percent" format="1">
  <advance width="762"/>
  <unicode hex="0025"/>
  <outline>
    <contour>
      <point x="646" y="706" type="line"/>
      <point x="613" y="724" type="line"/>
      <point x="149" y="0" type="line"/>
      <point x="182" y="-20" type="line"/>
    </contour>
    <contour>
      <point x="288" y="302"/>
      <point x="379" y="395"/>
      <point x="379" y="514" type="curve" smooth="yes"/>
      <point x="379" y="621"/>
      <point x="306" y="680"/>
      <point x="217" y="680" type="curve" smooth="yes"/>
      <point x="107" y="680"/>
      <point x="16" y="587"/>
      <point x="16" y="467" type="curve" smooth="yes"/>
      <point x="16" y="361"/>
      <point x="89" y="302"/>
      <point x="178" y="302" type="curve" smooth="yes"/>
    </contour>
    <contour>
      <point x="207" y="606"/>
      <point x="280" y="553"/>
      <point x="280" y="427" type="curve" smooth="yes"/>
      <point x="280" y="395"/>
      <point x="274" y="367"/>
      <point x="263" y="334" type="curve"/>
      <point x="325" y="375" type="line"/>
      <point x="188" y="375"/>
      <point x="115" y="429"/>
      <point x="115" y="555" type="curve" smooth="yes"/>
      <point x="115" y="587"/>
      <point x="121" y="615"/>
      <point x="132" y="647" type="curve"/>
      <point x="70" y="607" type="line"/>
    </contour>
    <contour>
      <point x="658" y="-15"/>
      <point x="749" y="78"/>
      <point x="749" y="197" type="curve" smooth="yes"/>
      <point x="749" y="304"/>
      <point x="676" y="363"/>
      <point x="587" y="363" type="curve" smooth="yes"/>
      <point x="477" y="363"/>
      <point x="386" y="270"/>
      <point x="386" y="150" type="curve" smooth="yes"/>
      <point x="386" y="44"/>
      <point x="459" y="-15"/>
      <point x="548" y="-15" type="curve" smooth="yes"/>
    </contour>
    <contour>
      <point x="577" y="289"/>
      <point x="650" y="236"/>
      <point x="650" y="110" type="curve" smooth="yes"/>
      <point x="650" y="78"/>
      <point x="644" y="50"/>
      <point x="633" y="17" type="curve"/>
      <point x="695" y="58" type="line"/>
      <point x="558" y="58"/>
      <point x="485" y="112"/>
      <point x="485" y="238" type="curve" smooth="yes"/>
      <point x="485" y="270"/>
      <point x="491" y="298"/>
      <point x="502" y="330" type="curve"/>
      <point x="440" y="290" type="line"/>
    </contour>
  </outline>
</glyph>
<glyph name="ampersand" format="1">
  <advance width="730"/>
  <unicode hex="0026"/>
  <outline>
    <contour>
      <point x="446" y="72" type="line"/>
      <point x="310" y="54"/>
      <point x="180" y="114"/>
      <point x="180" y="228" type="curve" smooth="yes"/>
      <point x="180" y="258"/>
      <point x="191" y="312"/>
      <point x="222" y="348" type="curve"/>
      <point x="209" y="360" type="line"/>
      <point x="108" y="326"/>
      <point x="29" y="245"/>
      <point x="29" y="156" type="curve" smooth="yes"/>
      <point x="29" y="53"/>
      <point x="133" y="-15"/>
      <point x="263" y="-15" type="curve" smooth="yes"/>
      <point x="357" y="-15"/>
      <point x="446" y="18"/>
      <point x="496" y="67" type="curve" smooth="yes"/>
      <point x="548" y="125"/>
      <point x="597" y="254"/>
      <point x="650" y="406" type="curve"/>
      <point x="699" y="407" type="line"/>
      <point x="699" y="442" type="line"/>
      <point x="483" y="442" type="line"/>
      <point x="483" y="407" type="line"/>
      <point x="534" y="406" type="line"/>
      <point x="515" y="263"/>
      <point x="476" y="129"/>
      <point x="441" y="67" type="curve"/>
    </contour>
    <contour>
      <point x="302" y="340" type="line"/>
      <point x="393" y="368"/>
      <point x="481" y="451"/>
      <point x="481" y="537" type="curve" smooth="yes"/>
      <point x="481" y="612"/>
      <point x="415" y="685"/>
      <point x="303" y="685" type="curve" smooth="yes"/>
      <point x="173" y="685"/>
      <point x="86" y="586"/>
      <point x="86" y="498" type="curve" smooth="yes"/>
      <point x="86" y="330"/>
      <point x="403" y="56"/>
      <point x="623" y="-16" type="curve"/>
      <point x="719" y="136" type="line"/>
      <point x="492" y="200"/>
      <point x="205" y="409"/>
      <point x="205" y="569" type="curve" smooth="yes"/>
      <point x="205" y="587"/>
      <point x="210" y="611"/>
      <point x="220" y="633" type="curve"/>
      <point x="195" y="612" type="line"/>
      <point x="268" y="615"/>
      <point x="336" y="551"/>
      <point x="336" y="466" type="curve" smooth="yes"/>
      <point x="336" y="425"/>
      <point x="320" y="383"/>
      <point x="289" y="349" type="curve"/>
    </contour>
    <contour>
      <point x="453" y="74" type="move"/>
    </contour>
  </outline>
</glyph>
<glyph name="quotesingle" format="1">
  <advance width="100"/>
  <unicode hex="0027"/>
  <outline>
    <contour>
      <point x="72" y="496" type="line"/>
      <point x="80" y="700" type="line"/>
      <point x="14" y="694" type="line"/>
      <point x="14" y="493" type="line"/>
    </contour>
  </outline>
</glyph>
<glyph name="parenright" format="1">
  <advance width="279"/>
  <unicode hex="0029"/>
  <outline>
    <contour>
      <point x="154" y="-17"/>
      <point x="259" y="178"/>
      <point x="259" y="349" type="curve" smooth="yes"/>
      <point x="259" y="487"/>
      <point x="214" y="630"/>
      <point x="115" y="766" type="curve"/>
      <point x="-10" y="721" type="line"/>
      <point x="89" y="587"/>
      <point x="137" y="446"/>
      <point x="139" y="307" type="curve" smooth="yes"/>
      <point x="141" y="165"/>
      <point x="98" y="22"/>
      <point x="19" y="-106" type="curve"/>
      <point x="41" y="-120" type="line"/>
    </contour>
  </outline>
</glyph>
<glyph name="asterisk" format="1">
  <advance width="206"/>
  <unicode hex="002A"/>
  <outline>
    <contour>
      <point x="174" y="548" type="line"/>
      <point x="119" y="629" type="line"/>
      <point x="96" y="614" type="line"/>
      <point x="136" y="535" type="line"/>
    </contour>
    <contour>
      <point x="121" y="602" type="line"/>
      <point x="96" y="614" type="line"/>
      <point x="48" y="540" type="line"/>
      <point x="78" y="514" type="line"/>
    </contour>
    <contour>
      <point x="99" y="586" type="line"/>
      <point x="96" y="614" type="line"/>
      <point x="9" y="618" type="line"/>
      <point x="2" y="580" type="line"/>
    </contour>
    <contour>
      <point x="96" y="614" type="line"/>
      <point x="57" y="692" type="line"/>
      <point x="19" y="680" type="line"/>
      <point x="74" y="598" type="line"/>
    </contour>
    <contour>
      <point x="192" y="647" type="line"/>
      <point x="94" y="642" type="line"/>
      <point x="96" y="614" type="line"/>
      <point x="185" y="609" type="line"/>
    </contour>
    <contour>
      <point x="145" y="687" type="line"/>
      <point x="116" y="713" type="line"/>
      <point x="71" y="625" type="line"/>
      <point x="96" y="614" type="line"/>
    </contour>
  </outline>
</glyph>
<glyph name="comma" format="1">
  <advance width="196"/>
  <unicode hex="002C"/>
  <outline>
    <contour>
      <point x="71" y="-112" type="line"/>
      <point x="156" y="64" type="line"/>
      <point x="156" y="148" type="line"/>
      <point x="36" y="121" type="line"/>
      <point x="35" y="-117" type="line"/>
    </contour>
  </outline>
</glyph>
<glyph name="hyphen" format="1">
  <advance width="375"/>
  <unicode hex="002D"/>
  <outline>
    <contour>
      <point x="333" y="241" type="line"/>
      <point x="343" y="287" type="line"/>
      <point x="30" y="279" type="line"/>
      <point x="25" y="241" type="line"/>
    </contour>
  </outline>
</glyph>
<glyph name="period" format="1">
  <advance width="221"/>
  <unicode hex="002E"/>
  <outline>
    <contour>
      <point x="181" y="11" type="line"/>
      <point x="181" y="153" type="line"/>
      <point x="35" y="120" type="line"/>
      <point x="35" y="-11" type="line"/>
    </contour>
  </outline>
</glyph>
<glyph name="slash" format="1">
  <advance width="391"/>
  <unicode hex="002F"/>
  <outline>
    <contour>
      <point x="416" y="703" type="line"/>
      <point x="365" y="710" type="line"/>
      <point x="23" y="-74" type="line"/>
      <point x="66" y="-79" type="line"/>
    </contour>
  </outline>
</glyph>
<glyph name="zero" format="1">
  <advance width="602"/>
  <unicode hex="0030"/>
  <outline>
    <contour>
      <point x="556" y="166"/>
      <point x="580" y="268"/>
      <point x="580" y="372" type="curve" smooth="yes"/>
      <point x="580" y="568"/>
      <point x="466" y="685"/>
      <point x="327" y="685" type="curve" smooth="yes"/>
      <point x="226" y="685"/>
      <point x="150" y="643"/>
      <point x="101" y="577" type="curve" smooth="yes"/>
      <point x="46" y="504"/>
      <point x="22" y="402"/>
      <point x="22" y="298" type="curve" smooth="yes"/>
      <point x="22" y="102"/>
      <point x="136" y="-15"/>
      <point x="275" y="-15" type="curve" smooth="yes"/>
      <point x="376" y="-15"/>
      <point x="452" y="27"/>
      <point x="501" y="93" type="curve" smooth="yes"/>
    </contour>
    <contour>
      <point x="288" y="104"/>
      <point x="149" y="183"/>
      <point x="149" y="419" type="curve" smooth="yes"/>
      <point x="149" y="476"/>
      <point x="164" y="575"/>
      <point x="179" y="635" type="curve"/>
      <point x="133" y="566" type="line"/>
      <point x="314" y="566"/>
      <point x="453" y="487"/>
      <point x="453" y="251" type="curve" smooth="yes"/>
      <point x="453" y="194"/>
      <point x="438" y="95"/>
      <point x="423" y="35" type="curve"/>
      <point x="469" y="104" type="line"/>
    </contour>
  </outline>
</glyph>
<glyph name="one" format="1">
  <advance width="333"/>
  <unicode hex="0031"/>
  <outline>
    <contour>
      <point x="313" y="0" type="line"/>
      <point x="313" y="35" type="line"/>
      <point x="256" y="38" type="line"/>
      <point x="261" y="646" type="line"/>
      <point x="247" y="670" type="line"/>
      <point x="17" y="609" type="line"/>
      <point x="27" y="574" type="line"/>
      <point x="85" y="587" type="line"/>
      <point x="90" y="38" type="line"/>
      <point x="33" y="35" type="line"/>
      <point x="33" y="0" type="line"/>
    </contour>
  </outline>
</glyph>
<glyph name="two" format="1">
  <advance width="505"/>
  <unicode hex="0032"/>
  <outline>
    <contour>
      <point x="461" y="209" type="line"/>
      <point x="429" y="209" type="line"/>
      <point x="426" y="170" type="line"/>
      <point x="61" y="122" type="line"/>
      <point x="61" y="115" type="line"/>
      <point x="237" y="145"/>
      <point x="488" y="318"/>
      <point x="488" y="511" type="curve" smooth="yes"/>
      <point x="488" y="625"/>
      <point x="400" y="685"/>
      <point x="277" y="685" type="curve" smooth="yes"/>
      <point x="190" y="685"/>
      <point x="82" y="655"/>
      <point x="22" y="614" type="curve"/>
      <point x="49" y="418" type="line"/>
      <point x="81" y="423" type="line"/>
      <point x="78" y="465" type="line"/>
      <point x="125" y="492"/>
      <point x="183" y="507"/>
      <point x="236" y="507" type="curve" smooth="yes"/>
      <point x="301" y="507"/>
      <point x="348" y="473"/>
      <point x="348" y="415" type="curve" smooth="yes"/>
      <point x="348" y="318"/>
      <point x="242" y="215"/>
      <point x="34" y="143" type="curve"/>
      <point x="25" y="0" type="line"/>
      <point x="461" y="-1" type="line"/>
    </contour>
  </outline>
</glyph>
<glyph name="three" format="1">
  <advance width="504"/>
  <unicode hex="0033"/>
  <outline>
    <contour>
      <point x="447" y="670" type="line"/>
      <point x="38" y="670" type="line"/>
      <point x="38" y="455" type="line"/>
      <point x="70" y="455" type="line"/>
      <point x="73" y="494" type="line"/>
      <point x="427" y="557" type="line"/>
      <point x="334" y="563" type="line"/>
      <point x="73" y="312" type="line"/>
      <point x="73" y="281" type="line"/>
      <point x="262" y="285"/>
      <point x="336" y="227"/>
      <point x="336" y="123" type="curve" smooth="yes"/>
      <point x="336" y="88"/>
      <point x="326" y="46"/>
      <point x="314" y="28" type="curve"/>
      <point x="353" y="51" type="line"/>
      <point x="254" y="66"/>
      <point x="166" y="95"/>
      <point x="72" y="141" type="curve"/>
      <point x="27" y="17" type="line"/>
      <point x="68" y="-3"/>
      <point x="124" y="-15"/>
      <point x="179" y="-15" type="curve" smooth="yes"/>
      <point x="359" y="-15"/>
      <point x="475" y="102"/>
      <point x="475" y="223" type="curve" smooth="yes"/>
      <point x="475" y="320"/>
      <point x="398" y="391"/>
      <point x="286" y="391" type="curve" smooth="yes"/>
      <point x="239" y="391"/>
      <point x="190" y="380"/>
      <point x="151" y="359" type="curve"/>
      <point x="154" y="345" type="line"/>
      <point x="447" y="563" type="line"/>
    </contour>
  </outline>
</glyph>
<glyph name="four" format="1">
  <advance width="621"/>
  <unicode hex="0034"/>
  <outline>
    <contour>
      <point x="525" y="0" type="line"/>
      <point x="525" y="35" type="line"/>
      <point x="468" y="38" type="line"/>
      <point x="473" y="683" type="line"/>
      <point x="328" y="646" type="line"/>
      <point x="-5" y="150" type="line"/>
      <point x="568" y="151" type="line"/>
      <point x="618" y="303" type="line"/>
      <point x="106" y="303" type="line"/>
      <point x="100" y="242" type="line"/>
      <point x="381" y="589" type="line"/>
      <point x="334" y="576" type="line"/>
      <point x="334" y="38" type="line"/>
      <point x="277" y="35" type="line"/>
      <point x="277" y="0" type="line"/>
    </contour>
  </outline>
</glyph>
<glyph name="five" format="1">
  <advance width="500"/>
  <unicode hex="0035"/>
  <outline>
    <contour>
      <point x="71" y="557" type="line"/>
      <point x="410" y="494" type="line"/>
      <point x="413" y="455" type="line"/>
      <point x="445" y="455" type="line"/>
      <point x="445" y="670" type="line"/>
      <point x="51" y="670" type="line"/>
      <point x="26" y="306" type="line"/>
      <point x="233" y="306"/>
      <point x="332" y="247"/>
      <point x="332" y="124" type="curve" smooth="yes"/>
      <point x="332" y="89"/>
      <point x="324" y="52"/>
      <point x="312" y="32" type="curve"/>
      <point x="349" y="51" type="line"/>
      <point x="258" y="67"/>
      <point x="167" y="102"/>
      <point x="66" y="159" type="curve"/>
      <point x="21" y="28" type="line"/>
      <point x="78" y="-2"/>
      <point x="130" y="-15"/>
      <point x="187" y="-15" type="curve" smooth="yes"/>
      <point x="343" y="-15"/>
      <point x="472" y="95"/>
      <point x="472" y="228" type="curve" smooth="yes"/>
      <point x="472" y="336"/>
      <point x="385" y="411"/>
      <point x="260" y="411" type="curve" smooth="yes"/>
      <point x="208" y="411"/>
      <point x="135" y="399"/>
      <point x="84" y="382" type="curve"/>
      <point x="93" y="350" type="line"/>
      <point x="117" y="563" type="line"/>
    </contour>
  </outline>
</glyph>
<glyph name="six" format="1">
  <advance width="555"/>
  <unicode hex="0036"/>
  <outline>
    <contour>
      <point x="429" y="-15"/>
      <point x="535" y="105"/>
      <point x="535" y="233" type="curve" smooth="yes"/>
      <point x="535" y="342"/>
      <point x="452" y="417"/>
      <point x="336" y="417" type="curve" smooth="yes"/>
      <point x="263" y="417"/>
      <point x="185" y="387"/>
      <point x="139" y="352" type="curve"/>
      <point x="144" y="326" type="line"/>
      <point x="297" y="328"/>
      <point x="391" y="259"/>
      <point x="391" y="144" type="curve" smooth="yes"/>
      <point x="391" y="107"/>
      <point x="381" y="65"/>
      <point x="368" y="41" type="curve"/>
      <point x="439" y="57" type="line"/>
      <point x="382" y="54"/>
      <point x="403" y="55"/>
      <point x="397" y="55" type="curve" smooth="yes"/>
      <point x="271" y="55"/>
      <point x="181" y="174"/>
      <point x="181" y="333" type="curve" smooth="yes"/>
      <point x="181" y="492"/>
      <point x="272" y="599"/>
      <point x="440" y="649" type="curve"/>
      <point x="433" y="685" type="line"/>
      <point x="205" y="666"/>
      <point x="26" y="481"/>
      <point x="26" y="260" type="curve" smooth="yes"/>
      <point x="26" y="91"/>
      <point x="137" y="-15"/>
      <point x="278" y="-15" type="curve" smooth="yes"/>
    </contour>
  </outline>
</glyph>
<glyph name="seven" format="1">
  <advance width="475"/>
  <unicode hex="0037"/>
  <outline>
    <contour>
      <point x="271" y="0" type="line"/>
      <point x="461" y="562" type="line"/>
      <point x="461" y="670" type="line"/>
      <point x="12" y="670" type="line"/>
      <point x="12" y="455" type="line"/>
      <point x="44" y="455" type="line"/>
      <point x="47" y="494" type="line"/>
      <point x="441" y="547" type="line"/>
      <point x="411" y="568" type="line"/>
      <point x="73" y="0" type="line"/>
    </contour>
  </outline>
</glyph>
<glyph name="eight" format="1">
  <advance width="558"/>
  <unicode hex="0038"/>
  <outline>
    <contour>
      <point x="417" y="-15"/>
      <point x="532" y="75"/>
      <point x="532" y="194" type="curve" smooth="yes"/>
      <point x="532" y="388"/>
      <point x="173" y="379"/>
      <point x="173" y="562" type="curve" smooth="yes"/>
      <point x="173" y="590"/>
      <point x="182" y="617"/>
      <point x="197" y="642" type="curve"/>
      <point x="163" y="612" type="line"/>
      <point x="260" y="614"/>
      <point x="350" y="555"/>
      <point x="350" y="460" type="curve" smooth="yes"/>
      <point x="350" y="427"/>
      <point x="339" y="383"/>
      <point x="319" y="349" type="curve"/>
      <point x="335" y="337" type="line"/>
      <point x="415" y="362"/>
      <point x="495" y="442"/>
      <point x="495" y="526" type="curve" smooth="yes"/>
      <point x="495" y="607"/>
      <point x="422" y="685"/>
      <point x="302" y="685" type="curve" smooth="yes"/>
      <point x="175" y="685"/>
      <point x="54" y="604"/>
      <point x="54" y="478" type="curve" smooth="yes"/>
      <point x="54" y="267"/>
      <point x="406" y="274"/>
      <point x="406" y="98" type="curve" smooth="yes"/>
      <point x="406" y="77"/>
      <point x="401" y="52"/>
      <point x="390" y="30" type="curve"/>
      <point x="423" y="74" type="line"/>
      <point x="401" y="70"/>
      <point x="379" y="68"/>
      <point x="360" y="68" type="curve" smooth="yes"/>
      <point x="274" y="68"/>
      <point x="180" y="133"/>
      <point x="180" y="225" type="curve" smooth="yes"/>
      <point x="180" y="260"/>
      <point x="188" y="312"/>
      <point x="212" y="348" type="curve"/>
      <point x="199" y="360" type="line"/>
      <point x="104" y="326"/>
      <point x="29" y="246"/>
      <point x="29" y="154" type="curve" smooth="yes"/>
      <point x="29" y="53"/>
      <point x="127" y="-15"/>
      <point x="268" y="-15" type="curve" smooth="yes"/>
    </contour>
  </outline>
</glyph>
<glyph name="nine" format="1">
  <advance width="553"/>
  <unicode hex="0039"/>
  <outline>
    <contour>
      <point x="131" y="700"/>
      <point x="20" y="580"/>
      <point x="20" y="451" type="curve" smooth="yes"/>
      <point x="20" y="336"/>
      <point x="103" y="254"/>
      <point x="217" y="254" type="curve" smooth="yes"/>
      <point x="296" y="254"/>
      <point x="370" y="290"/>
      <point x="416" y="331" type="curve"/>
      <point x="411" y="357" type="line"/>
      <point x="260" y="355"/>
      <point x="164" y="423"/>
      <point x="164" y="542" type="curve" smooth="yes"/>
      <point x="164" y="578"/>
      <point x="174" y="620"/>
      <point x="187" y="644" type="curve"/>
      <point x="116" y="628" type="line"/>
      <point x="173" y="631"/>
      <point x="152" y="630"/>
      <point x="158" y="630" type="curve" smooth="yes"/>
      <point x="284" y="630"/>
      <point x="374" y="511"/>
      <point x="374" y="352" type="curve" smooth="yes"/>
      <point x="374" y="193"/>
      <point x="283" y="86"/>
      <point x="115" y="36" type="curve"/>
      <point x="122" y="0" type="line"/>
      <point x="350" y="19"/>
      <point x="529" y="204"/>
      <point x="529" y="425" type="curve" smooth="yes"/>
      <point x="529" y="594"/>
      <point x="424" y="700"/>
      <point x="286" y="700" type="curve" smooth="yes"/>
    </contour>
  </outline>
</glyph>
<glyph name="greater" format="1">
  <advance width="330"/>
  <unicode hex="003E"/>
  <outline>
    <contour>
      <point x="306" y="319" type="line"/>
      <point x="306" y="356" type="line"/>
      <point x="65" y="495" type="line"/>
      <point x="28" y="459" type="line"/>
      <point x="280" y="329" type="line"/>
      <point x="280" y="345" type="line"/>
      <point x="28" y="223" type="line"/>
      <point x="65" y="187" type="line"/>
    </contour>
  </outline>
</glyph>
<glyph name="question" format="1">
  <advance width="417"/>
  <unicode hex="003F"/>
  <outline>
    <contour>
      <point x="285" y="285" type="line"/>
      <point x="271" y="312" type="line"/>
      <point x="241" y="297" type="line"/>
      <point x="228" y="307"/>
      <point x="213" y="340"/>
      <point x="213" y="363" type="curve" smooth="yes"/>
      <point x="213" y="429"/>
      <point x="387" y="469"/>
      <point x="382" y="566" type="curve" smooth="yes"/>
      <point x="377" y="665"/>
      <point x="281" y="709"/>
      <point x="152" y="709" type="curve" smooth="yes"/>
      <point x="130" y="709"/>
      <point x="109" y="707"/>
      <point x="92" y="704" type="curve"/>
      <point x="31" y="561" type="line"/>
      <point x="57" y="548" type="line"/>
      <point x="75" y="581" type="line"/>
      <point x="104" y="578" type="line" smooth="yes"/>
      <point x="213" y="567"/>
      <point x="239" y="533"/>
      <point x="239" y="485" type="curve" smooth="yes"/>
      <point x="239" y="424"/>
      <point x="89" y="360"/>
      <point x="89" y="294" type="curve" smooth="yes"/>
      <point x="89" y="261"/>
      <point x="120" y="219"/>
      <point x="149" y="206" type="curve"/>
    </contour>
    <component base="period" xOffset="80"/>
  </outline>
</glyph>
<glyph name="at" format="1">
  <advance width="875"/>
  <unicode hex="0040"/>
  <outline>
    <contour>
      <point x="563" y="-185"/>
      <point x="649" y="-152"/>
      <point x="752" y="-71" type="curve"/>
      <point x="729" y="-40" type="line"/>
      <point x="643" y="-109"/>
      <point x="554" y="-142"/>
      <point x="454" y="-142" type="curve" smooth="yes"/>
      <point x="241" y="-142"/>
      <point x="82" y="6"/>
      <point x="82" y="214" type="curve" smooth="yes"/>
      <point x="82" y="423"/>
      <point x="242" y="598"/>
      <point x="470" y="598" type="curve" smooth="yes"/>
      <point x="657" y="598"/>
      <point x="793" y="481"/>
      <point x="793" y="336" type="curve" smooth="yes"/>
      <point x="793" y="224"/>
      <point x="711" y="136"/>
      <point x="612" y="81" type="curve"/>
      <point x="668" y="72" type="line"/>
      <point x="644" y="80"/>
      <point x="629" y="114"/>
      <point x="629" y="185" type="curve" smooth="yes"/>
      <point x="629" y="448" type="line"/>
      <point x="551" y="444" type="line"/>
      <point x="436" y="453" type="line"/>
      <point x="306" y="453"/>
      <point x="209" y="345"/>
      <point x="209" y="200" type="curve" smooth="yes"/>
      <point x="209" y="69"/>
      <point x="288" y="-12"/>
      <point x="395" y="-12" type="curve"/>
      <point x="512" y="143" type="line"/>
      <point x="491" y="162" type="line"/>
      <point x="438" y="109" type="line"/>
      <point x="393" y="110"/>
      <point x="354" y="159"/>
      <point x="354" y="232" type="curve" smooth="yes"/>
      <point x="354" y="327"/>
      <point x="419" y="405"/>
      <point x="507" y="405" type="curve"/>
      <point x="488" y="432" type="line"/>
      <point x="488" y="140" type="line" smooth="yes"/>
      <point x="488" y="47"/>
      <point x="526" y="2"/>
      <point x="563" y="-10" type="curve"/>
      <point x="761" y="119"/>
      <point x="840" y="212"/>
      <point x="840" y="338" type="curve" smooth="yes"/>
      <point x="840" y="506"/>
      <point x="682" y="641"/>
      <point x="469" y="641" type="curve" smooth="yes"/>
      <point x="214" y="641"/>
      <point x="35" y="448"/>
      <point x="35" y="212" type="curve" smooth="yes"/>
      <point x="35" y="-22"/>
      <point x="212" y="-185"/>
      <point x="454" y="-185" type="curve" smooth="yes"/>
    </contour>
  </outline>
</glyph>
<glyph name="A" format="1">
  <advance width="670"/>
  <unicode hex="0041"/>
  <outline>
    <contour>
      <point x="228" y="0" type="line"/>
      <point x="228" y="35" type="line"/>
      <point x="177" y="36" type="line"/>
      <point x="291" y="598" type="line"/>
      <point x="269" y="594" type="line"/>
      <point x="426" y="36" type="line"/>
      <point x="377" y="35" type="line"/>
      <point x="377" y="0" type="line"/>
      <point x="678" y="0" type="line"/>
      <point x="678" y="35" type="line"/>
      <point x="629" y="36" type="line"/>
      <point x="399" y="679" type="line"/>
      <point x="275" y="662" type="line"/>
      <point x="51" y="36" type="line"/>
      <point x="2" y="35" type="line"/>
      <point x="2" y="0" type="line"/>
    </contour>
    <contour>
      <point x="428" y="200" type="line"/>
      <point x="413" y="237" type="line"/>
      <point x="206" y="237" type="line"/>
      <point x="182" y="200" type="line"/>
    </contour>
    <contour>
      <point x="616" y="10" type="move" name="ogonek"/>
    </contour>
    <contour>
      <point x="343" y="0" type="move" name="bottom"/>
    </contour>
    <contour>
      <point x="341" y="770" type="move" name="top"/>
    </contour>
  </outline>
</glyph>
<glyph name="B" format="1">
  <advance width="635"/>
  <unicode hex="0042"/>
  <outline>
    <contour>
      <point x="311" y="0" type="line" smooth="yes"/>
      <point x="519" y="0"/>
      <point x="623" y="76"/>
      <point x="623" y="198" type="curve" smooth="yes"/>
      <point x="623" y="270"/>
      <point x="569" y="347"/>
      <point x="457" y="347" type="curve"/>
      <point x="360" y="341" type="line"/>
      <point x="360" y="331" type="line"/>
      <point x="500" y="366"/>
      <point x="573" y="434"/>
      <point x="573" y="529" type="curve" smooth="yes"/>
      <point x="573" y="616"/>
      <point x="508" y="680"/>
      <point x="375" y="680" type="curve"/>
      <point x="229" y="668" type="line"/>
      <point x="36" y="670" type="line"/>
      <point x="36" y="635" type="line"/>
      <point x="85" y="634" type="line"/>
      <point x="85" y="36" type="line"/>
      <point x="36" y="35" type="line"/>
      <point x="36" y="0" type="line"/>
    </contour>
    <contour>
      <point x="251" y="635" type="line"/>
      <point x="346" y="635"/>
      <point x="395" y="586"/>
      <point x="395" y="491" type="curve" smooth="yes"/>
      <point x="395" y="397"/>
      <point x="346" y="351"/>
      <point x="242" y="346" type="curve"/>
      <point x="242" y="311" type="line"/>
      <point x="281" y="311" type="line" smooth="yes"/>
      <point x="389" y="311"/>
      <point x="445" y="263"/>
      <point x="445" y="169" type="curve" smooth="yes"/>
      <point x="445" y="75"/>
      <point x="387" y="35"/>
      <point x="251" y="35" type="curve"/>
    </contour>
  </outline>
</glyph>
<glyph name="C" format="1">
  <advance width="610"/>
  <unicode hex="0043"/>
  <outline>
    <contour>
      <point x="436" y="-15"/>
      <point x="528" y="42"/>
      <point x="606" y="141" type="curve"/>
      <point x="580" y="170" type="line"/>
      <point x="533" y="124"/>
      <point x="477" y="100"/>
      <point x="419" y="100" type="curve" smooth="yes"/>
      <point x="282" y="100"/>
      <point x="203" y="196"/>
      <point x="203" y="364" type="curve" smooth="yes"/>
      <point x="203" y="502"/>
      <point x="274" y="626"/>
      <point x="366" y="660" type="curve"/>
      <point x="350" y="672" type="line"/>
      <point x="400" y="601"/>
      <point x="445" y="530"/>
      <point x="485" y="459" type="curve"/>
      <point x="608" y="562" type="line"/>
      <point x="559" y="639"/>
      <point x="469" y="685"/>
      <point x="368" y="685" type="curve" smooth="yes"/>
      <point x="293" y="685"/>
      <point x="211" y="661"/>
      <point x="143" y="617" type="curve"/>
      <point x="76" y="554"/>
      <point x="24" y="438"/>
      <point x="24" y="318" type="curve" smooth="yes"/>
      <point x="24" y="115"/>
      <point x="141" y="-15"/>
      <point x="324" y="-15" type="curve" smooth="yes"/>
    </contour>
    <contour>
      <point x="336" y="770" type="move" name="top"/>
    </contour>
    <contour>
      <point x="321" y="-80" type="move" name="bottom"/>
    </contour>
  </outline>
</glyph>
<glyph name="D" format="1">
  <advance width="707"/>
  <unicode hex="0044"/>
  <outline>
    <contour>
      <point x="319" y="0" type="line" smooth="yes"/>
      <point x="562" y="0"/>
      <point x="683" y="149"/>
      <point x="683" y="357" type="curve" smooth="yes"/>
      <point x="683" y="567"/>
      <point x="569" y="680"/>
      <point x="371" y="680" type="curve"/>
      <point x="229" y="668" type="line"/>
      <point x="36" y="670" type="line"/>
      <point x="36" y="635" type="line"/>
      <point x="85" y="634" type="line"/>
      <point x="85" y="36" type="line"/>
      <point x="36" y="35" type="line"/>
      <point x="36" y="0" type="line"/>
    </contour>
    <contour>
      <point x="251" y="633" type="line"/>
      <point x="391" y="633"/>
      <point x="505" y="537"/>
      <point x="505" y="332" type="curve" smooth="yes"/>
      <point x="505" y="128"/>
      <point x="418" y="35"/>
      <point x="279" y="35" type="curve" smooth="yes"/>
      <point x="251" y="35" type="line"/>
    </contour>
    <contour>
      <point x="370" y="335" type="move" name="center"/>
    </contour>
    <contour>
      <point x="370" y="0" type="move" name="bottom"/>
    </contour>
    <contour>
      <point x="340" y="770" type="move" name="top"/>
    </contour>
  </outline>
</glyph>
<glyph name="E" format="1">
  <advance width="568"/>
  <unicode hex="0045"/>
  <outline>
    <contour>
      <point x="543" y="0" type="line"/>
      <point x="543" y="199" type="line"/>
      <point x="504" y="198" type="line"/>
      <point x="502" y="148" type="line"/>
      <point x="414" y="95"/>
      <point x="327" y="54"/>
      <point x="239" y="22" type="curve"/>
      <point x="255" y="12" type="line"/>
      <point x="251" y="658" type="line"/>
      <point x="239" y="648" type="line"/>
      <point x="320" y="617"/>
      <point x="401" y="577"/>
      <point x="482" y="527" type="curve"/>
      <point x="484" y="477" type="line"/>
      <point x="523" y="476" type="line"/>
      <point x="523" y="670" type="line"/>
      <point x="36" y="670" type="line"/>
      <point x="36" y="635" type="line"/>
      <point x="85" y="634" type="line"/>
      <point x="85" y="36" type="line"/>
      <point x="36" y="35" type="line"/>
      <point x="36" y="0" type="line"/>
    </contour>
    <contour>
      <point x="440" y="328" type="line"/>
      <point x="440" y="365" type="line"/>
      <point x="208" y="365" type="line"/>
      <point x="184" y="328" type="line"/>
    </contour>
    <contour>
      <point x="310" y="770" type="move" name="top"/>
    </contour>
    <contour>
      <point x="284" y="-80" type="move" name="bottom"/>
    </contour>
  </outline>
</glyph>
<glyph name="F" format="1">
  <advance width="528"/>
  <unicode hex="0046"/>
  <outline>
    <contour>
      <point x="360" y="0" type="line"/>
      <point x="360" y="35" type="line"/>
      <point x="253" y="36" type="line"/>
      <point x="253" y="658" type="line"/>
      <point x="239" y="648" type="line"/>
      <point x="320" y="616"/>
      <point x="401" y="573"/>
      <point x="482" y="522" type="curve"/>
      <point x="484" y="472" type="line"/>
      <point x="523" y="471" type="line"/>
      <point x="523" y="670" type="line"/>
      <point x="36" y="670" type="line"/>
      <point x="36" y="635" type="line"/>
      <point x="85" y="634" type="line"/>
      <point x="85" y="36" type="line"/>
      <point x="36" y="35" type="line"/>
      <point x="36" y="0" type="line"/>
    </contour>
    <contour>
      <point x="440" y="303" type="line"/>
      <point x="440" y="340" type="line"/>
      <point x="208" y="340" type="line"/>
      <point x="184" y="303" type="line"/>
    </contour>
  </outline>
</glyph>
<glyph name="G" format="1">
  <advance width="661"/>
  <unicode hex="0047"/>
  <outline>
    <contour>
      <point x="418" y="-15"/>
      <point x="514" y="44"/>
      <point x="566" y="128" type="curve"/>
      <point x="555" y="152" type="line"/>
      <point x="509" y="106"/>
      <point x="471" y="88"/>
      <point x="418" y="88" type="curve" smooth="yes"/>
      <point x="284" y="88"/>
      <point x="203" y="191"/>
      <point x="203" y="360" type="curve" smooth="yes"/>
      <point x="203" y="503"/>
      <point x="273" y="621"/>
      <point x="366" y="658" type="curve"/>
      <point x="350" y="670" type="line"/>
      <point x="397" y="600"/>
      <point x="442" y="529"/>
      <point x="485" y="457" type="curve"/>
      <point x="608" y="560" type="line"/>
      <point x="559" y="637"/>
      <point x="469" y="683"/>
      <point x="368" y="683" type="curve" smooth="yes"/>
      <point x="293" y="683"/>
      <point x="211" y="659"/>
      <point x="143" y="615" type="curve"/>
      <point x="76" y="552"/>
      <point x="24" y="437"/>
      <point x="24" y="310" type="curve" smooth="yes"/>
      <point x="24" y="115"/>
      <point x="142" y="-15"/>
      <point x="320" y="-15" type="curve" smooth="yes"/>
    </contour>
    <contour>
      <point x="602" y="0" type="line"/>
      <point x="602" y="311" type="line"/>
      <point x="647" y="312" type="line"/>
      <point x="647" y="347" type="line"/>
      <point x="393" y="347" type="line"/>
      <point x="393" y="312" type="line"/>
      <point x="442" y="311" type="line"/>
      <point x="442" y="88" type="line"/>
      <point x="570" y="0" type="line"/>
    </contour>
    <contour>
      <point x="340" y="770" type="move" name="top"/>
    </contour>
    <contour>
      <point x="332" y="-80" type="move" name="bottom"/>
    </contour>
  </outline>
</glyph>
<glyph name="H" format="1">
  <advance width="726"/>
  <unicode hex="0048"/>
  <outline>
    <contour>
      <point x="509" y="314" type="line"/>
      <point x="509" y="351" type="line"/>
      <point x="227" y="351" type="line"/>
      <point x="227" y="314" type="line"/>
    </contour>
    <component base="I" xOffset="16"/>
    <component base="I" xOffset="406"/>
    <contour>
      <point x="380" y="770" type="move" name="top"/>
    </contour>
  </outline>
</glyph>
<glyph name="J" format="1">
  <advance width="327"/>
  <unicode hex="004A"/>
  <outline>
    <contour>
      <point x="163" y="-203"/>
      <point x="250" y="-98"/>
      <point x="250" y="215" type="curve" smooth="yes"/>
      <point x="250" y="634" type="line"/>
      <point x="299" y="635" type="line"/>
      <point x="299" y="670" type="line"/>
      <point x="35" y="670" type="line"/>
      <point x="35" y="635" type="line"/>
      <point x="84" y="634" type="line"/>
      <point x="84" y="-184" type="line"/>
      <point x="95" y="-175" type="line"/>
      <point x="-47" y="-30" type="line"/>
      <point x="-130" y="-153" type="line"/>
      <point x="-101" y="-176"/>
      <point x="-26" y="-203"/>
      <point x="34" y="-203" type="curve" smooth="yes"/>
    </contour>
    <contour>
      <point x="169" y="770" type="move" name="top"/>
    </contour>
  </outline>
</glyph>
<glyph name="K" format="1">
  <advance width="700"/>
  <unicode hex="004B"/>
  <outline>
    <contour>
      <point x="698" y="0" type="line"/>
      <point x="698" y="35" type="line"/>
      <point x="649" y="36" type="line"/>
      <point x="386" y="435" type="line"/>
      <point x="367" y="391" type="line"/>
      <point x="618" y="634" type="line"/>
      <point x="672" y="635" type="line"/>
      <point x="672" y="670" type="line"/>
      <point x="434" y="670" type="line"/>
      <point x="434" y="635" type="line"/>
      <point x="483" y="634" type="line"/>
      <point x="266" y="329" type="line"/>
      <point x="436" y="36" type="line"/>
      <point x="387" y="35" type="line"/>
      <point x="387" y="0" type="line"/>
    </contour>
    <contour>
      <point x="300" y="0" type="line"/>
      <point x="300" y="35" type="line"/>
      <point x="251" y="36" type="line"/>
      <point x="251" y="634" type="line"/>
      <point x="300" y="635" type="line"/>
      <point x="300" y="670" type="line"/>
      <point x="36" y="670" type="line"/>
      <point x="36" y="635" type="line"/>
      <point x="85" y="634" type="line"/>
      <point x="85" y="36" type="line"/>
      <point x="36" y="35" type="line"/>
      <point x="36" y="0" type="line"/>
    </contour>
    <contour>
      <point x="361" y="770" type="move" name="top"/>
    </contour>
    <contour>
      <point x="336" y="-80" type="move" name="bottom"/>
    </contour>
  </outline>
</glyph>
<glyph name="L" format="1">
  <advance width="549"/>
  <unicode hex="004C"/>
  <outline>
    <contour>
      <point x="543" y="0" type="line"/>
      <point x="543" y="199" type="line"/>
      <point x="504" y="198" type="line"/>
      <point x="502" y="148" type="line"/>
      <point x="404" y="97"/>
      <point x="303" y="54"/>
      <point x="204" y="22" type="curve"/>
      <point x="251" y="21" type="line"/>
      <point x="251" y="634" type="line"/>
      <point x="360" y="635" type="line"/>
      <point x="360" y="670" type="line"/>
      <point x="36" y="670" type="line"/>
      <point x="36" y="635" type="line"/>
      <point x="85" y="634" type="line"/>
      <point x="85" y="36" type="line"/>
      <point x="36" y="35" type="line"/>
      <point x="36" y="0" type="line"/>
    </contour>
    <contour>
      <point x="290" y="-80" type="move" name="bottom"/>
    </contour>
    <contour>
      <point x="217" y="770" type="move" name="top"/>
    </contour>
    <contour>
      <point x="543" y="670" type="move" name="topright"/>
    </contour>
    <contour>
      <point x="169" y="365" type="move" name="center"/>
    </contour>
  </outline>
</glyph>
<glyph name="M" format="1">
  <advance width="889"/>
  <unicode hex="004D"/>
  <outline>
    <contour>
      <point x="221" y="0" type="line"/>
      <point x="221" y="35" type="line"/>
      <point x="167" y="36" type="line"/>
      <point x="189" y="625" type="line"/>
      <point x="155" y="619" type="line"/>
      <point x="393" y="112" type="line"/>
      <point x="424" y="112" type="line"/>
      <point x="647" y="617" type="line"/>
      <point x="611" y="614" type="line"/>
      <point x="664" y="36" type="line"/>
      <point x="610" y="35" type="line"/>
      <point x="610" y="0" type="line"/>
      <point x="887" y="0" type="line"/>
      <point x="887" y="35" type="line"/>
      <point x="848" y="36" type="line"/>
      <point x="766" y="634" type="line"/>
      <point x="819" y="635" type="line"/>
      <point x="819" y="670" type="line"/>
      <point x="761" y="670" type="line"/>
      <point x="612" y="670" type="line"/>
      <point x="446" y="281" type="line"/>
      <point x="490" y="308" type="line"/>
      <point x="312" y="670" type="line"/>
      <point x="82" y="670" type="line"/>
      <point x="82" y="635" type="line"/>
      <point x="137" y="634" type="line"/>
      <point x="41" y="36" type="line"/>
      <point x="2" y="35" type="line"/>
      <point x="2" y="0" type="line"/>
    </contour>
    <contour>
      <point x="467" y="770" type="move" name="top"/>
    </contour>
  </outline>
</glyph>
<glyph name="N" format="1">
  <advance width="736"/>
  <unicode hex="004E"/>
  <outline>
    <contour>
      <point x="240" y="0" type="line"/>
      <point x="240" y="35" type="line"/>
      <point x="181" y="36" type="line"/>
      <point x="138" y="634" type="line"/>
      <point x="114" y="613" type="line"/>
      <point x="504" y="0" type="line"/>
      <point x="625" y="1" type="line"/>
      <point x="651" y="634" type="line"/>
      <point x="700" y="635" type="line"/>
      <point x="700" y="670" type="line"/>
      <point x="506" y="670" type="line"/>
      <point x="506" y="635" type="line"/>
      <point x="565" y="634" type="line"/>
      <point x="594" y="168" type="line"/>
      <point x="606" y="195" type="line"/>
      <point x="300" y="670" type="line"/>
      <point x="53" y="670" type="line"/>
      <point x="53" y="635" type="line"/>
      <point x="102" y="634" type="line"/>
      <point x="85" y="36" type="line"/>
      <point x="36" y="35" type="line"/>
      <point x="36" y="0" type="line"/>
    </contour>
    <contour>
      <point x="385" y="770" type="move" name="top"/>
    </contour>
    <contour>
      <point x="361" y="-80" type="move" name="bottom"/>
    </contour>
  </outline>
</glyph>
<glyph name="O" format="1">
  <advance width="709"/>
  <unicode hex="004F"/>
  <outline>
    <contour>
      <point x="448" y="-15"/>
      <point x="532" y="30"/>
      <point x="591" y="85" type="curve"/>
      <point x="656" y="163"/>
      <point x="685" y="269"/>
      <point x="685" y="354" type="curve" smooth="yes"/>
      <point x="685" y="572"/>
      <point x="552" y="685"/>
      <point x="359" y="685" type="curve" smooth="yes"/>
      <point x="262" y="685"/>
      <point x="178" y="640"/>
      <point x="120" y="585" type="curve"/>
      <point x="56" y="507"/>
      <point x="24" y="401"/>
      <point x="24" y="316" type="curve" smooth="yes"/>
      <point x="24" y="98"/>
      <point x="157" y="-15"/>
      <point x="349" y="-15" type="curve" smooth="yes"/>
    </contour>
    <contour>
      <point x="514" y="55" type="line"/>
      <point x="303" y="55"/>
      <point x="202" y="139"/>
      <point x="202" y="386" type="curve" smooth="yes"/>
      <point x="202" y="438"/>
      <point x="213" y="553"/>
      <point x="229" y="625" type="curve"/>
      <point x="201" y="616" type="line"/>
      <point x="406" y="616"/>
      <point x="508" y="531"/>
      <point x="508" y="284" type="curve" smooth="yes"/>
      <point x="508" y="232"/>
      <point x="498" y="117"/>
      <point x="478" y="45" type="curve"/>
    </contour>
    <contour>
      <point x="364" y="335" type="move" name="center"/>
    </contour>
    <contour>
      <point x="668" y="10" type="move" name="ogonek"/>
    </contour>
    <contour>
      <point x="365" y="770" type="move" name="top"/>
    </contour>
  </outline>
</glyph>
<glyph name="P" format="1">
  <advance width="618"/>
  <unicode hex="0050"/>
  <outline>
    <contour>
      <point x="360" y="0" type="line"/>
      <point x="360" y="35" type="line"/>
      <point x="251" y="36" type="line"/>
      <point x="251" y="635" type="line"/>
      <point x="354" y="635"/>
      <point x="428" y="551"/>
      <point x="428" y="445" type="curve" smooth="yes"/>
      <point x="428" y="340"/>
      <point x="352" y="279"/>
      <point x="228" y="279" type="curve"/>
      <point x="228" y="241" type="line"/>
      <point x="247" y="241" type="line" smooth="yes"/>
      <point x="485" y="246"/>
      <point x="606" y="334"/>
      <point x="606" y="474" type="curve" smooth="yes"/>
      <point x="606" y="582"/>
      <point x="528" y="675"/>
      <point x="378" y="675" type="curve"/>
      <point x="229" y="668" type="line"/>
      <point x="36" y="670" type="line"/>
      <point x="36" y="635" type="line"/>
      <point x="85" y="634" type="line"/>
      <point x="85" y="36" type="line"/>
      <point x="36" y="35" type="line"/>
      <point x="36" y="0" type="line"/>
    </contour>
  </outline>
</glyph>
<glyph name="Q" format="1">
  <advance width="709"/>
  <unicode hex="0051"/>
  <outline>
    <contour>
      <point x="740" y="-76" type="line"/>
      <point x="591" y="-88"/>
      <point x="363" y="-82"/>
      <point x="242" y="-61" type="curve"/>
      <point x="223" y="-80" type="line"/>
      <point x="467" y="7" type="line"/>
      <point x="473" y="50" type="line"/>
      <point x="209" y="-44" type="line"/>
      <point x="209" y="-106" type="line"/>
      <point x="333" y="-166"/>
      <point x="571" y="-234"/>
      <point x="688" y="-242" type="curve"/>
    </contour>
    <component base="O"/>
  </outline>
</glyph>
<glyph name="R" format="1">
  <advance width="692"/>
  <unicode hex="0052"/>
  <outline>
    <contour>
      <point x="300" y="0" type="line"/>
      <point x="300" y="35" type="line"/>
      <point x="251" y="36" type="line"/>
      <point x="251" y="635" type="line"/>
      <point x="354" y="635"/>
      <point x="428" y="560"/>
      <point x="428" y="460" type="curve" smooth="yes"/>
      <point x="428" y="361"/>
      <point x="352" y="304"/>
      <point x="228" y="304" type="curve"/>
      <point x="228" y="266" type="line"/>
      <point x="247" y="266" type="line" smooth="yes"/>
      <point x="485" y="271"/>
      <point x="606" y="355"/>
      <point x="606" y="484" type="curve" smooth="yes"/>
      <point x="606" y="589"/>
      <point x="528" y="680"/>
      <point x="378" y="680" type="curve"/>
      <point x="229" y="668" type="line"/>
      <point x="36" y="670" type="line"/>
      <point x="36" y="635" type="line"/>
      <point x="85" y="634" type="line"/>
      <point x="85" y="36" type="line"/>
      <point x="36" y="35" type="line"/>
      <point x="36" y="0" type="line"/>
    </contour>
    <contour>
      <point x="690" y="0" type="line"/>
      <point x="690" y="35" type="line"/>
      <point x="641" y="36" type="line"/>
      <point x="433" y="344" type="line"/>
      <point x="313" y="268" type="line"/>
      <point x="449" y="0" type="line"/>
    </contour>
    <contour>
      <point x="340" y="770" type="move" name="top"/>
    </contour>
    <contour>
      <point x="349" y="-80" type="move" name="bottom"/>
    </contour>
  </outline>
</glyph>
<glyph name="S" format="1">
  <advance width="551"/>
  <unicode hex="0053"/>
  <outline>
    <contour>
      <point x="437" y="-15"/>
      <point x="522" y="87"/>
      <point x="522" y="189" type="curve" smooth="yes"/>
      <point x="522" y="383"/>
      <point x="217" y="417"/>
      <point x="217" y="564" type="curve" smooth="yes"/>
      <point x="217" y="611"/>
      <point x="249" y="650"/>
      <point x="311" y="650" type="curve" smooth="yes"/>
      <point x="321" y="650"/>
      <point x="336" y="649"/>
      <point x="350" y="646" type="curve"/>
      <point x="293" y="675" type="line"/>
      <point x="338" y="613"/>
      <point x="380" y="549"/>
      <point x="418" y="485" type="curve"/>
      <point x="523" y="591" type="line"/>
      <point x="476" y="644"/>
      <point x="418" y="685"/>
      <point x="307" y="685" type="curve" smooth="yes"/>
      <point x="145" y="685"/>
      <point x="48" y="597"/>
      <point x="48" y="487" type="curve" smooth="yes"/>
      <point x="48" y="293"/>
      <point x="347" y="270"/>
      <point x="347" y="129" type="curve" smooth="yes"/>
      <point x="347" y="72"/>
      <point x="297" y="20"/>
      <point x="238" y="20" type="curve" smooth="yes"/>
      <point x="227" y="20"/>
      <point x="216" y="22"/>
      <point x="204" y="25" type="curve"/>
      <point x="254" y="-5" type="line"/>
      <point x="207" y="65"/>
      <point x="165" y="137"/>
      <point x="129" y="212" type="curve"/>
      <point x="16" y="125" type="line"/>
      <point x="58" y="45"/>
      <point x="134" y="-15"/>
      <point x="266" y="-15" type="curve" smooth="yes"/>
    </contour>
    <contour>
      <point x="290" y="770" type="move" name="top"/>
    </contour>
    <contour>
      <point x="269" y="-80" type="move" name="bottom"/>
    </contour>
  </outline>
</glyph>
<glyph name="T" format="1">
  <advance width="594"/>
  <unicode hex="0054"/>
  <outline>
    <contour>
      <point x="459" y="0" type="line"/>
      <point x="459" y="35" type="line"/>
      <point x="380" y="36" type="line"/>
      <point x="380" y="648" type="line"/>
      <point x="356" y="648" type="line"/>
      <point x="421" y="617"/>
      <point x="483" y="576"/>
      <point x="551" y="527" type="curve"/>
      <point x="553" y="477" type="line"/>
      <point x="592" y="476" type="line"/>
      <point x="592" y="670" type="line"/>
      <point x="2" y="670" type="line"/>
      <point x="2" y="476" type="line"/>
      <point x="41" y="477" type="line"/>
      <point x="43" y="527" type="line"/>
      <point x="111" y="576"/>
      <point x="173" y="617"/>
      <point x="238" y="648" type="curve"/>
      <point x="214" y="648" type="line"/>
      <point x="214" y="36" type="line"/>
      <point x="135" y="35" type="line"/>
      <point x="135" y="0" type="line"/>
    </contour>
    <contour>
      <point x="297" y="335" type="move" name="center"/>
    </contour>
    <contour>
      <point x="283" y="-80" type="move" name="bottom"/>
    </contour>
    <contour>
      <point x="296" y="770" type="move" name="top"/>
    </contour>
  </outline>
</glyph>
<glyph name="U" format="1">
  <advance width="726"/>
  <unicode hex="0055"/>
  <outline>
    <contour>
      <point x="384" y="-15"/>
      <point x="468" y="41"/>
      <point x="514" y="117" type="curve"/>
      <point x="507" y="135" type="line"/>
      <point x="472" y="110"/>
      <point x="438" y="98"/>
      <point x="386" y="98" type="curve" smooth="yes"/>
      <point x="302" y="98"/>
      <point x="244" y="153"/>
      <point x="244" y="281" type="curve" smooth="yes"/>
      <point x="244" y="634" type="line"/>
      <point x="293" y="635" type="line"/>
      <point x="293" y="670" type="line"/>
      <point x="26" y="670" type="line"/>
      <point x="26" y="635" type="line"/>
      <point x="75" y="634" type="line"/>
      <point x="75" y="256" type="line" smooth="yes"/>
      <point x="75" y="65"/>
      <point x="160" y="-15"/>
      <point x="293" y="-15" type="curve" smooth="yes"/>
    </contour>
    <contour>
      <point x="651" y="0" type="line"/>
      <point x="651" y="634" type="line"/>
      <point x="700" y="635" type="line"/>
      <point x="700" y="670" type="line"/>
      <point x="436" y="670" type="line"/>
      <point x="436" y="635" type="line"/>
      <point x="485" y="634" type="line"/>
      <point x="485" y="88" type="line"/>
      <point x="619" y="0" type="line"/>
    </contour>
    <contour>
      <point x="651" y="10" type="move" name="ogonek"/>
    </contour>
    <contour>
      <point x="368" y="770" type="move" name="top"/>
    </contour>
  </outline>
</glyph>
<glyph name="V" format="1">
  <advance width="669"/>
  <unicode hex="0056"/>
  <outline>
    <contour>
      <point x="391" y="8" type="line"/>
      <point x="625" y="634" type="line"/>
      <point x="667" y="635" type="line"/>
      <point x="667" y="670" type="line"/>
      <point x="440" y="670" type="line"/>
      <point x="440" y="635" type="line"/>
      <point x="499" y="634" type="line"/>
      <point x="369" y="72" type="line"/>
      <point x="391" y="76" type="line"/>
      <point x="247" y="634" type="line"/>
      <point x="306" y="635" type="line"/>
      <point x="306" y="670" type="line"/>
      <point x="2" y="670" type="line"/>
      <point x="2" y="635" type="line"/>
      <point x="44" y="634" type="line"/>
      <point x="261" y="-9" type="line"/>
    </contour>
  </outline>
</glyph>
<glyph name="W" format="1">
  <advance width="1038"/>
  <unicode hex="0057"/>
  <outline>
    <contour>
      <point x="374" y="8" type="line"/>
      <point x="576" y="634" type="line"/>
      <point x="497" y="544" type="line"/>
      <point x="656" y="-9" type="line"/>
      <point x="786" y="8" type="line"/>
      <point x="994" y="634" type="line"/>
      <point x="1036" y="635" type="line"/>
      <point x="1036" y="670" type="line"/>
      <point x="817" y="670" type="line"/>
      <point x="817" y="635" type="line"/>
      <point x="868" y="634" type="line"/>
      <point x="764" y="72" type="line"/>
      <point x="786" y="76" type="line"/>
      <point x="654" y="634" type="line"/>
      <point x="703" y="635" type="line"/>
      <point x="703" y="670" type="line"/>
      <point x="412" y="670" type="line"/>
      <point x="412" y="635" type="line"/>
      <point x="461" y="634" type="line"/>
      <point x="352" y="72" type="line"/>
      <point x="374" y="76" type="line"/>
      <point x="247" y="634" type="line"/>
      <point x="296" y="635" type="line"/>
      <point x="296" y="670" type="line"/>
      <point x="2" y="670" type="line"/>
      <point x="2" y="635" type="line"/>
      <point x="44" y="634" type="line"/>
      <point x="244" y="-9" type="line"/>
    </contour>
    <contour>
      <point x="571" y="770" type="move" name="top"/>
    </contour>
  </outline>
</glyph>
<glyph name="X" format="1">
  <advance width="643"/>
  <unicode hex="0058"/>
  <outline>
    <contour>
      <point x="641" y="0" type="line"/>
      <point x="641" y="35" type="line"/>
      <point x="602" y="36" type="line"/>
      <point x="262" y="634" type="line"/>
      <point x="311" y="635" type="line"/>
      <point x="311" y="670" type="line"/>
      <point x="10" y="670" type="line"/>
      <point x="10" y="635" type="line"/>
      <point x="59" y="634" type="line"/>
      <point x="399" y="36" type="line"/>
      <point x="350" y="35" type="line"/>
      <point x="350" y="0" type="line"/>
    </contour>
    <contour>
      <point x="248" y="0" type="line"/>
      <point x="248" y="35" type="line"/>
      <point x="184" y="36" type="line"/>
      <point x="298" y="389" type="line"/>
      <point x="301" y="428" type="line"/>
      <point x="54" y="36" type="line"/>
      <point x="2" y="35" type="line"/>
      <point x="2" y="0" type="line"/>
    </contour>
    <contour>
      <point x="586" y="634" type="line"/>
      <point x="628" y="635" type="line"/>
      <point x="628" y="670" type="line"/>
      <point x="397" y="670" type="line"/>
      <point x="397" y="635" type="line"/>
      <point x="461" y="634" type="line"/>
      <point x="339" y="347" type="line"/>
      <point x="336" y="309" type="line"/>
    </contour>
  </outline>
</glyph>
<glyph name="Y" format="1">
  <advance width="636"/>
  <unicode hex="0059"/>
  <outline>
    <contour>
      <point x="380" y="248" type="line"/>
      <point x="592" y="634" type="line"/>
      <point x="634" y="635" type="line"/>
      <point x="634" y="670" type="line"/>
      <point x="415" y="670" type="line"/>
      <point x="415" y="635" type="line"/>
      <point x="466" y="634" type="line"/>
      <point x="364" y="312" type="line"/>
      <point x="386" y="316" type="line"/>
      <point x="247" y="634" type="line"/>
      <point x="296" y="635" type="line"/>
      <point x="296" y="670" type="line"/>
      <point x="2" y="670" type="line"/>
      <point x="2" y="635" type="line"/>
      <point x="44" y="634" type="line"/>
      <point x="256" y="231" type="line"/>
    </contour>
    <contour>
      <point x="450" y="0" type="line"/>
      <point x="450" y="35" type="line"/>
      <point x="401" y="36" type="line"/>
      <point x="401" y="294" type="line"/>
      <point x="235" y="294" type="line"/>
      <point x="235" y="36" type="line"/>
      <point x="186" y="35" type="line"/>
      <point x="186" y="0" type="line"/>
    </contour>
    <contour>
      <point x="358" y="770" type="move" name="top"/>
    </contour>
  </outline>
</glyph>
<glyph name="Z" format="1">
  <advance width="556"/>
  <unicode hex="005A"/>
  <outline>
    <contour>
      <point x="541" y="0" type="line"/>
      <point x="541" y="197" type="line"/>
      <point x="502" y="196" type="line"/>
      <point x="500" y="146" type="line"/>
      <point x="399" y="97"/>
      <point x="301" y="56"/>
      <point x="202" y="24" type="curve"/>
      <point x="203" y="14" type="line"/>
      <point x="528" y="626" type="line"/>
      <point x="528" y="670" type="line"/>
      <point x="38" y="670" type="line"/>
      <point x="38" y="478" type="line"/>
      <point x="77" y="479" type="line"/>
      <point x="79" y="529" type="line"/>
      <point x="175" y="577"/>
      <point x="271" y="619"/>
      <point x="367" y="651" type="curve"/>
      <point x="353" y="660" type="line"/>
      <point x="20" y="34" type="line"/>
      <point x="20" y="0" type="line"/>
    </contour>
    <contour>
      <point x="296" y="770" type="move" name="top"/>
    </contour>
  </outline>
</glyph>
<glyph name="bracketleft" format="1">
  <advance width="299"/>
  <unicode hex="005B"/>
  <outline>
    <contour>
      <point x="279" y="-62" type="line"/>
      <point x="135" y="-80" type="line"/>
      <point x="160" y="-105" type="line"/>
      <point x="160" y="727" type="line"/>
      <point x="135" y="702" type="line"/>
      <point x="279" y="684" type="line"/>
      <point x="269" y="745" type="line"/>
      <point x="25" y="713" type="line"/>
      <point x="25" y="-91" type="line"/>
      <point x="269" y="-123" type="line"/>
    </contour>
  </outline>
</glyph>
<glyph name="asciicircum" format="1">
  <advance width="335"/>
  <unicode hex="005E"/>
  <outline>
    <contour>
      <point x="175" y="661" type="line"/>
      <point x="149" y="661" type="line"/>
      <point x="259" y="480" type="line"/>
      <point x="300" y="506" type="line"/>
      <point x="170" y="689" type="line"/>
      <point x="154" y="689" type="line"/>
      <point x="24" y="506" type="line"/>
      <point x="65" y="480" type="line"/>
    </contour>
  </outline>
</glyph>
<glyph name="underscore" format="1">
  <advance width="418"/>
  <unicode hex="005F"/>
  <outline>
    <contour>
      <point x="398" y="-44" type="line"/>
      <point x="408" y="2" type="line"/>
      <point x="15" y="-6" type="line"/>
      <point x="10" y="-44" type="line"/>
    </contour>
  </outline>
</glyph>
<glyph name="grave" format="1">
  <advance width="227"/>
  <unicode hex="0060"/>
  <outline>
    <component base="gravecomb" xOffset="-141"/>
    <contour>
      <point x="113" y="574" type="move" name="bottom"/>
    </contour>
  </outline>
</glyph>
<glyph name="a" format="1">
  <advance width="428"/>
  <unicode hex="0061"/>
  <outline>
    <contour>
      <point x="428" y="52" type="line"/>
      <point x="416" y="81" type="line"/>
      <point x="385" y="69" type="line"/>
      <point x="373" y="88"/>
      <point x="370" y="101"/>
      <point x="374" y="155" type="curve" smooth="yes"/>
      <point x="384" y="290" type="line" smooth="yes"/>
      <point x="393" y="418"/>
      <point x="315" y="465"/>
      <point x="224" y="465" type="curve" smooth="yes"/>
      <point x="178" y="465"/>
      <point x="127" y="453"/>
      <point x="78" y="432" type="curve"/>
      <point x="32" y="288" type="line"/>
      <point x="59" y="278" type="line"/>
      <point x="75" y="312" type="line"/>
      <point x="97" y="322"/>
      <point x="131" y="328"/>
      <point x="158" y="328" type="curve" smooth="yes"/>
      <point x="223" y="328"/>
      <point x="248" y="290"/>
      <point x="245" y="232" type="curve" smooth="yes"/>
      <point x="238" y="112" type="line" smooth="yes"/>
      <point x="234" y="51"/>
      <point x="245" y="9"/>
      <point x="281" y="-17" type="curve"/>
    </contour>
    <contour>
      <point x="154" y="-15"/>
      <point x="225" y="18"/>
      <point x="277" y="57" type="curve"/>
      <point x="265" y="90" type="line"/>
      <point x="242" y="68"/>
      <point x="217" y="57"/>
      <point x="201" y="57" type="curve" smooth="yes"/>
      <point x="182" y="57"/>
      <point x="160" y="72"/>
      <point x="160" y="116" type="curve" smooth="yes"/>
      <point x="160" y="126"/>
      <point x="161" y="141"/>
      <point x="164" y="151" type="curve"/>
      <point x="272" y="176" type="line"/>
      <point x="276" y="208" type="line"/>
      <point x="31" y="169" type="line"/>
      <point x="22" y="150"/>
      <point x="15" y="114"/>
      <point x="15" y="88" type="curve" smooth="yes"/>
      <point x="15" y="28"/>
      <point x="54" y="-15"/>
      <point x="108" y="-15" type="curve" smooth="yes"/>
    </contour>
    <contour>
      <point x="391" y="10" type="move" name="ogonek"/>
    </contour>
    <contour>
      <point x="208" y="0" type="move" name="bottom"/>
    </contour>
    <contour>
      <point x="219" y="574" type="move" name="top"/>
    </contour>
  </outline>
</glyph>
<glyph name="b" format="1">
  <advance width="504"/>
  <unicode hex="0062"/>
  <outline>
    <contour>
      <point x="327" y="-15"/>
      <point x="409" y="28"/>
      <point x="434" y="63" type="curve"/>
      <point x="466" y="105"/>
      <point x="492" y="192"/>
      <point x="492" y="260" type="curve" smooth="yes"/>
      <point x="492" y="378"/>
      <point x="412" y="465"/>
      <point x="295" y="465" type="curve"/>
      <point x="173" y="322" type="line"/>
      <point x="187" y="296" type="line"/>
      <point x="241" y="350" type="line"/>
      <point x="296" y="350"/>
      <point x="348" y="296"/>
      <point x="348" y="200" type="curve" smooth="yes"/>
      <point x="348" y="145"/>
      <point x="338" y="85"/>
      <point x="314" y="44" type="curve"/>
      <point x="340" y="58" type="line"/>
      <point x="281" y="65"/>
      <point x="192" y="100"/>
      <point x="142" y="136" type="curve"/>
      <point x="57" y="37" type="line"/>
      <point x="104" y="12"/>
      <point x="222" y="-15"/>
      <point x="281" y="-15" type="curve" smooth="yes"/>
    </contour>
    <contour>
      <point x="198" y="59" type="line"/>
      <point x="205" y="684" type="line"/>
      <point x="191" y="708" type="line"/>
      <point x="6" y="652" type="line"/>
      <point x="16" y="623" type="line"/>
      <point x="54" y="631" type="line"/>
      <point x="57" y="37" type="line"/>
    </contour>
  </outline>
</glyph>
<glyph name="c" format="1">
  <advance width="434"/>
  <unicode hex="0063"/>
  <outline>
    <contour>
      <point x="307" y="-15"/>
      <point x="384" y="44"/>
      <point x="431" y="127" type="curve"/>
      <point x="415" y="145" type="line"/>
      <point x="377" y="116"/>
      <point x="336" y="100"/>
      <point x="294" y="100" type="curve" smooth="yes"/>
      <point x="209" y="100"/>
      <point x="161" y="156"/>
      <point x="164" y="267" type="curve" smooth="yes"/>
      <point x="166" y="343"/>
      <point x="206" y="418"/>
      <point x="243" y="440" type="curve"/>
      <point x="215" y="435" type="line"/>
      <point x="237" y="429"/>
      <point x="291" y="343"/>
      <point x="317" y="273" type="curve"/>
      <point x="432" y="340" type="line"/>
      <point x="395" y="421"/>
      <point x="332" y="465"/>
      <point x="253" y="465" type="curve" smooth="yes"/>
      <point x="208" y="465"/>
      <point x="156" y="452"/>
      <point x="111" y="430" type="curve"/>
      <point x="61" y="379"/>
      <point x="22" y="293"/>
      <point x="22" y="209" type="curve" smooth="yes"/>
      <point x="22" y="72"/>
      <point x="99" y="-15"/>
      <point x="219" y="-15" type="curve" smooth="yes"/>
    </contour>
    <contour>
      <point x="247" y="574" type="move" name="top"/>
    </contour>
    <contour>
      <point x="221" y="-80" type="move" name="bottom"/>
    </contour>
  </outline>
</glyph>
<glyph name="d" format="1">
  <advance width="522"/>
  <unicode hex="0064"/>
  <outline>
    <contour>
      <point x="341" y="128" type="line"/>
      <point x="327" y="154" type="line"/>
      <point x="273" y="100" type="line"/>
      <point x="218" y="100"/>
      <point x="166" y="154"/>
      <point x="166" y="250" type="curve" smooth="yes"/>
      <point x="166" y="305"/>
      <point x="176" y="365"/>
      <point x="200" y="406" type="curve"/>
      <point x="174" y="392" type="line"/>
      <point x="233" y="385"/>
      <point x="322" y="350"/>
      <point x="372" y="314" type="curve"/>
      <point x="453" y="413" type="line"/>
      <point x="407" y="438"/>
      <point x="291" y="465"/>
      <point x="233" y="465" type="curve" smooth="yes"/>
      <point x="187" y="465"/>
      <point x="105" y="422"/>
      <point x="80" y="387" type="curve"/>
      <point x="48" y="345"/>
      <point x="22" y="258"/>
      <point x="22" y="190" type="curve" smooth="yes"/>
      <point x="22" y="72"/>
      <point x="102" y="-15"/>
      <point x="219" y="-15" type="curve"/>
    </contour>
    <contour>
      <point x="518" y="69" type="line"/>
      <point x="506" y="96" type="line"/>
      <point x="476" y="82" type="line"/>
      <point x="464" y="98"/>
      <point x="458" y="116"/>
      <point x="458" y="166" type="curve"/>
      <point x="464" y="684" type="line"/>
      <point x="450" y="708" type="line"/>
      <point x="265" y="652" type="line"/>
      <point x="275" y="623" type="line"/>
      <point x="313" y="631" type="line"/>
      <point x="318" y="111" type="line"/>
      <point x="318" y="50"/>
      <point x="334" y="12"/>
      <point x="372" y="-10" type="curve"/>
    </contour>
    <contour>
      <point x="263" y="-80" type="move" name="bottom"/>
    </contour>
    <contour>
      <point x="376" y="770" type="move" name="top"/>
    </contour>
    <contour>
      <point x="503" y="670" type="move" name="topright"/>
    </contour>
    <contour>
      <point x="250" y="245" type="move" name="center"/>
    </contour>
  </outline>
</glyph>
<glyph name="e" format="1">
  <advance width="451"/>
  <unicode hex="0065"/>
  <outline>
    <contour>
      <point x="308" y="-15"/>
      <point x="393" y="36"/>
      <point x="441" y="127" type="curve"/>
      <point x="423" y="143" type="line"/>
      <point x="391" y="115"/>
      <point x="348" y="100"/>
      <point x="296" y="100" type="curve" smooth="yes"/>
      <point x="212" y="100"/>
      <point x="163" y="154"/>
      <point x="163" y="255" type="curve" smooth="yes"/>
      <point x="163" y="324"/>
      <point x="188" y="394"/>
      <point x="224" y="428" type="curve"/>
      <point x="204" y="425" type="line"/>
      <point x="259" y="424"/>
      <point x="291" y="366"/>
      <point x="293" y="263" type="curve"/>
      <point x="122" y="249" type="line"/>
      <point x="122" y="220" type="line"/>
      <point x="441" y="230" type="line"/>
      <point x="442" y="374"/>
      <point x="370" y="465"/>
      <point x="253" y="465" type="curve" smooth="yes"/>
      <point x="205" y="465"/>
      <point x="144" y="450"/>
      <point x="109" y="430" type="curve"/>
      <point x="59" y="378"/>
      <point x="22" y="292"/>
      <point x="22" y="209" type="curve" smooth="yes"/>
      <point x="22" y="72"/>
      <point x="99" y="-15"/>
      <point x="220" y="-15" type="curve" smooth="yes"/>
    </contour>
    <contour>
      <point x="415" y="50" type="move" name="ogonek"/>
    </contour>
    <contour>
      <point x="229" y="-80" type="move" name="bottom"/>
    </contour>
    <contour>
      <point x="241" y="574" type="move" name="top"/>
    </contour>
  </outline>
</glyph>
<glyph name="f" format="1">
  <advance width="310"/>
  <unicode hex="0066"/>
  <outline>
    <contour>
      <point x="292" y="0" type="line"/>
      <point x="292" y="29" type="line"/>
      <point x="215" y="32" type="line"/>
      <point x="217" y="411" type="line"/>
      <point x="304" y="408" type="line"/>
      <point x="304" y="450" type="line"/>
      <point x="216" y="450" type="line"/>
      <point x="193" y="486"/>
      <point x="150" y="606"/>
      <point x="150" y="669" type="curve"/>
      <point x="116" y="664" type="line"/>
      <point x="159" y="645"/>
      <point x="240" y="579"/>
      <point x="279" y="534" type="curve"/>
      <point x="362" y="653" type="line"/>
      <point x="317" y="682"/>
      <point x="254" y="702"/>
      <point x="194" y="702" type="curve" smooth="yes"/>
      <point x="143" y="702"/>
      <point x="67" y="662"/>
      <point x="49" y="608" type="curve"/>
      <point x="48" y="599"/>
      <point x="48" y="590"/>
      <point x="48" y="580" type="curve" smooth="yes"/>
      <point x="48" y="544"/>
      <point x="58" y="485"/>
      <point x="69" y="450" type="curve"/>
      <point x="16" y="450" type="line"/>
      <point x="16" y="413" type="line"/>
      <point x="72" y="413" type="line"/>
      <point x="74" y="32" type="line"/>
      <point x="37" y="29" type="line"/>
      <point x="37" y="0" type="line"/>
    </contour>
  </outline>
</glyph>
<glyph name="g" format="1">
  <advance width="475"/>
  <unicode hex="0067"/>
  <outline>
    <contour>
      <point x="334" y="-255"/>
      <point x="443" y="-125"/>
      <point x="479" y="-17" type="curve"/>
      <point x="451" y="22"/>
      <point x="399" y="51"/>
      <point x="322" y="56" type="curve" smooth="yes"/>
      <point x="189" y="65" type="line" smooth="yes"/>
      <point x="149" y="67"/>
      <point x="123" y="78"/>
      <point x="115" y="89" type="curve"/>
      <point x="150" y="131" type="line"/>
      <point x="130" y="151" type="line"/>
      <point x="10" y="16" type="line"/>
      <point x="39" y="-38"/>
      <point x="76" y="-58"/>
      <point x="151" y="-62" type="curve" smooth="yes"/>
      <point x="262" y="-68" type="line" smooth="yes"/>
      <point x="342" y="-72"/>
      <point x="374" y="-99"/>
      <point x="380" y="-112" type="curve"/>
      <point x="373" y="-125"/>
      <point x="312" y="-150"/>
      <point x="248" y="-150" type="curve" smooth="yes"/>
      <point x="164" y="-150"/>
      <point x="112" y="-108"/>
      <point x="105" y="-56" type="curve"/>
      <point x="127" y="1" type="line"/>
      <point x="100" y="11" type="line"/>
      <point x="71" y="-27"/>
      <point x="49" y="-98"/>
      <point x="49" y="-140" type="curve" smooth="yes"/>
      <point x="49" y="-205"/>
      <point x="105" y="-255"/>
      <point x="193" y="-255" type="curve" smooth="yes"/>
    </contour>
    <contour>
      <point x="281" y="103"/>
      <point x="343" y="125"/>
      <point x="375" y="154" type="curve"/>
      <point x="402" y="188"/>
      <point x="435" y="244"/>
      <point x="435" y="301" type="curve" smooth="yes"/>
      <point x="435" y="399"/>
      <point x="356" y="465"/>
      <point x="247" y="465" type="curve" smooth="yes"/>
      <point x="181" y="465"/>
      <point x="121" y="440"/>
      <point x="90" y="414" type="curve"/>
      <point x="57" y="379"/>
      <point x="30" y="322"/>
      <point x="30" y="265" type="curve" smooth="yes"/>
      <point x="30" y="168"/>
      <point x="110" y="103"/>
      <point x="219" y="103" type="curve" smooth="yes"/>
    </contour>
    <contour>
      <point x="328" y="161" type="line"/>
      <point x="225" y="161"/>
      <point x="162" y="206"/>
      <point x="162" y="302" type="curve" smooth="yes"/>
      <point x="162" y="345"/>
      <point x="174" y="389"/>
      <point x="186" y="419" type="curve"/>
      <point x="140" y="407" type="line"/>
      <point x="240" y="407"/>
      <point x="303" y="362"/>
      <point x="303" y="264" type="curve" smooth="yes"/>
      <point x="303" y="228"/>
      <point x="295" y="183"/>
      <point x="279" y="149" type="curve"/>
    </contour>
    <contour>
      <point x="353" y="467" type="line"/>
      <point x="361" y="468"/>
      <point x="369" y="469"/>
      <point x="379" y="469" type="curve" smooth="yes"/>
      <point x="399" y="469"/>
      <point x="420" y="465"/>
      <point x="442" y="456" type="curve"/>
      <point x="512" y="586" type="line"/>
      <point x="487" y="597"/>
      <point x="459" y="603"/>
      <point x="431" y="603" type="curve" smooth="yes"/>
      <point x="419" y="603"/>
      <point x="404" y="602"/>
      <point x="389" y="599" type="curve"/>
      <point x="290" y="430" type="line"/>
      <point x="319" y="420" type="line"/>
    </contour>
    <contour>
      <point x="240" y="574" type="move" name="top"/>
    </contour>
    <contour>
      <point x="228" y="-320" type="move" name="bottom"/>
    </contour>
  </outline>
</glyph>
<glyph name="h" format="1">
  <advance width="512"/>
  <unicode hex="0068"/>
  <outline>
    <component base="_part.shoulder" xOffset="-59"/>
    <component base="_part.tallstem" xOffset="-24"/>
    <contour>
      <point x="292" y="770" type="move" name="top"/>
    </contour>
    <contour>
      <point x="262" y="-80" type="move" name="bottom"/>
    </contour>
    <contour>
      <point x="128" y="536" type="move" name="center"/>
    </contour>
  </outline>
</glyph>
<glyph name="i" format="1">
  <advance width="271"/>
  <unicode hex="0069"/>
  <outline>
    <contour>
      <point x="206" y="576" type="line"/>
      <point x="206" y="690" type="line"/>
      <point x="78" y="661" type="line"/>
      <point x="78" y="557" type="line"/>
    </contour>
    <component base="_part.tallstem" xOffset="-4"/>
    <contour>
      <point x="142" y="574" type="move" name="top"/>
    </contour>
    <contour>
      <point x="139" y="0" type="move" name="bottom"/>
    </contour>
  </outline>
</glyph>
<glyph name="j" format="1">
  <advance width="234"/>
  <unicode hex="006A"/>
  <outline>
    <contour>
      <point x="88" y="-237"/>
      <point x="156" y="-194"/>
      <point x="174" y="-157" type="curve" smooth="yes"/>
      <point x="192" y="-120"/>
      <point x="201" y="8"/>
      <point x="204" y="388" type="curve" smooth="yes"/>
      <point x="204" y="441" type="line"/>
      <point x="190" y="465" type="line"/>
      <point x="5" y="409" type="line"/>
      <point x="15" y="380" type="line"/>
      <point x="53" y="388" type="line"/>
      <point x="56" y="135"/>
      <point x="55" y="-93"/>
      <point x="50" y="-221" type="curve"/>
      <point x="88" y="-220" type="line"/>
      <point x="34" y="-180"/>
      <point x="-17" y="-137"/>
      <point x="-60" y="-92" type="curve"/>
      <point x="-132" y="-206" type="line"/>
      <point x="-83" y="-236"/>
      <point x="-27" y="-250"/>
      <point x="26" y="-250" type="curve"/>
    </contour>
    <contour>
      <point x="191" y="556" type="line"/>
      <point x="191" y="670" type="line"/>
      <point x="63" y="641" type="line"/>
      <point x="63" y="537" type="line"/>
    </contour>
  </outline>
</glyph>
<glyph name="k" format="1">
  <advance width="518"/>
  <unicode hex="006B"/>
  <outline>
    <contour>
      <point x="472" y="265" type="line"/>
      <point x="472" y="375"/>
      <point x="429" y="441"/>
      <point x="335" y="468" type="curve"/>
      <point x="178" y="281" type="line"/>
      <point x="191" y="253" type="line"/>
      <point x="280" y="330" type="line"/>
      <point x="313" y="321"/>
      <point x="336" y="277"/>
      <point x="336" y="250" type="curve"/>
      <point x="179" y="175" type="line"/>
      <point x="180" y="140" type="line"/>
    </contour>
    <contour>
      <point x="520" y="70" type="line"/>
      <point x="509" y="100" type="line"/>
      <point x="482" y="85" type="line"/>
      <point x="449" y="110"/>
      <point x="409" y="163"/>
      <point x="387" y="214" type="curve" smooth="yes"/>
      <point x="367" y="258" type="line"/>
      <point x="256" y="202" type="line"/>
      <point x="277" y="146" type="line" smooth="yes"/>
      <point x="313" y="50"/>
      <point x="353" y="10"/>
      <point x="380" y="-12" type="curve"/>
    </contour>
    <component base="_part.tallstem" xOffset="-24"/>
    <contour>
      <point x="258" y="770" type="move" name="top"/>
    </contour>
    <contour>
      <point x="258" y="-80" type="move" name="bottom"/>
    </contour>
  </outline>
</glyph>
<glyph name="l" format="1">
  <advance width="247"/>
  <unicode hex="006C"/>
  <outline>
    <component base="_part.tallstem" xOffset="-24"/>
    <contour>
      <point x="127" y="-80" type="move" name="bottom"/>
    </contour>
    <contour>
      <point x="122" y="770" type="move" name="top"/>
    </contour>
    <contour>
      <point x="237" y="450" type="move" name="topright"/>
    </contour>
    <contour>
      <point x="129" y="365" type="move" name="center"/>
    </contour>
  </outline>
</glyph>
<glyph name="n" format="1">
  <advance width="521"/>
  <unicode hex="006E"/>
  <outline>
    <component base="_part.shortstem" xOffset="-32"/>
    <component base="_part.shoulder" xOffset="-50"/>
    <contour>
      <point x="270" y="574" type="move" name="top"/>
    </contour>
    <contour>
      <point x="272" y="-80" type="move" name="bottom"/>
    </contour>
  </outline>
</glyph>
<glyph name="o" format="1">
  <advance width="485"/>
  <unicode hex="006F"/>
  <outline>
    <contour>
      <point x="310" y="-15"/>
      <point x="368" y="15"/>
      <point x="408" y="53" type="curve"/>
      <point x="453" y="106"/>
      <point x="473" y="180"/>
      <point x="473" y="238" type="curve" smooth="yes"/>
      <point x="473" y="387"/>
      <point x="380" y="465"/>
      <point x="251" y="465" type="curve" smooth="yes"/>
      <point x="186" y="465"/>
      <point x="128" y="434"/>
      <point x="88" y="396" type="curve"/>
      <point x="44" y="343"/>
      <point x="22" y="270"/>
      <point x="22" y="212" type="curve" smooth="yes"/>
      <point x="22" y="63"/>
      <point x="115" y="-15"/>
      <point x="244" y="-15" type="curve" smooth="yes"/>
    </contour>
    <contour>
      <point x="355" y="60" type="line"/>
      <point x="238" y="60"/>
      <point x="166" y="111"/>
      <point x="166" y="260" type="curve" smooth="yes"/>
      <point x="166" y="293"/>
      <point x="174" y="367"/>
      <point x="188" y="410" type="curve"/>
      <point x="144" y="390" type="line"/>
      <point x="258" y="390"/>
      <point x="329" y="339"/>
      <point x="329" y="190" type="curve" smooth="yes"/>
      <point x="329" y="157"/>
      <point x="322" y="83"/>
      <point x="308" y="40" type="curve"/>
    </contour>
    <contour>
      <point x="247" y="574" type="move" name="top"/>
    </contour>
  </outline>
</glyph>
<glyph name="p" format="1">
  <advance width="511"/>
  <unicode hex="0070"/>
  <outline>
    <contour>
      <point x="335" y="-15"/>
      <point x="417" y="28"/>
      <point x="442" y="63" type="curve"/>
      <point x="474" y="105"/>
      <point x="499" y="192"/>
      <point x="499" y="260" type="curve" smooth="yes"/>
      <point x="499" y="378"/>
      <point x="420" y="465"/>
      <point x="303" y="465" type="curve"/>
      <point x="181" y="322" type="line"/>
      <point x="195" y="296" type="line"/>
      <point x="249" y="350" type="line"/>
      <point x="304" y="350"/>
      <point x="356" y="296"/>
      <point x="356" y="200" type="curve" smooth="yes"/>
      <point x="356" y="145"/>
      <point x="346" y="85"/>
      <point x="322" y="44" type="curve"/>
      <point x="348" y="58" type="line"/>
      <point x="289" y="65"/>
      <point x="200" y="100"/>
      <point x="150" y="136" type="curve"/>
      <point x="69" y="37" type="line"/>
      <point x="115" y="12"/>
      <point x="231" y="-15"/>
      <point x="289" y="-15" type="curve" smooth="yes"/>
    </contour>
    <contour>
      <point x="287" y="-250" type="line"/>
      <point x="287" y="-221" type="line"/>
      <point x="210" y="-218" type="line"/>
      <point x="205" y="342" type="line"/>
      <point x="171" y="462" type="line"/>
      <point x="16" y="413" type="line"/>
      <point x="26" y="383" type="line"/>
      <point x="64" y="392" type="line"/>
      <point x="59" y="-218" type="line"/>
      <point x="22" y="-221" type="line"/>
      <point x="22" y="-250" type="line"/>
    </contour>
  </outline>
</glyph>
<glyph name="q" format="1">
  <advance width="507"/>
  <unicode hex="0071"/>
  <outline>
    <contour>
      <point x="341" y="128" type="line"/>
      <point x="327" y="154" type="line"/>
      <point x="273" y="100" type="line"/>
      <point x="218" y="100"/>
      <point x="166" y="154"/>
      <point x="166" y="250" type="curve" smooth="yes"/>
      <point x="166" y="305"/>
      <point x="176" y="365"/>
      <point x="200" y="406" type="curve"/>
      <point x="174" y="392" type="line"/>
      <point x="233" y="385"/>
      <point x="322" y="350"/>
      <point x="372" y="314" type="curve"/>
      <point x="457" y="413" type="line"/>
      <point x="410" y="438"/>
      <point x="292" y="465"/>
      <point x="233" y="465" type="curve" smooth="yes"/>
      <point x="187" y="465"/>
      <point x="105" y="422"/>
      <point x="80" y="387" type="curve"/>
      <point x="48" y="345"/>
      <point x="22" y="258"/>
      <point x="22" y="190" type="curve" smooth="yes"/>
      <point x="22" y="72"/>
      <point x="102" y="-15"/>
      <point x="219" y="-15" type="curve"/>
    </contour>
    <contour>
      <point x="499" y="-250" type="line"/>
      <point x="499" y="-221" type="line"/>
      <point x="462" y="-218" type="line"/>
      <point x="457" y="413" type="line"/>
      <point x="316" y="391" type="line"/>
      <point x="311" y="-218" type="line"/>
      <point x="234" y="-221" type="line"/>
      <point x="234" y="-250" type="line"/>
    </contour>
  </outline>
</glyph>
<glyph name="r" format="1">
  <advance width="392"/>
  <unicode hex="0072"/>
  <outline>
    <contour>
      <point x="232" y="338" type="line"/>
      <point x="269" y="336"/>
      <point x="340" y="328"/>
      <point x="380" y="320" type="curve"/>
      <point x="412" y="450" type="line"/>
      <point x="390" y="459"/>
      <point x="361" y="465"/>
      <point x="333" y="465" type="curve" smooth="yes"/>
      <point x="316" y="465"/>
      <point x="294" y="462"/>
      <point x="280" y="457" type="curve"/>
      <point x="249" y="427"/>
      <point x="217" y="377"/>
      <point x="197" y="329" type="curve"/>
      <point x="205" y="305" type="line"/>
    </contour>
    <component base="_part.shortstem" xOffset="-32"/>
    <contour>
      <point x="231" y="574" type="move" name="top"/>
    </contour>
    <contour>
      <point x="139" y="-80" type="move" name="bottom"/>
    </contour>
  </outline>
</glyph>
<glyph name="s" format="1">
  <advance width="385"/>
  <unicode hex="0073"/>
  <outline>
    <contour>
      <point x="295" y="-15"/>
      <point x="367" y="55"/>
      <point x="367" y="133" type="curve" smooth="yes"/>
      <point x="367" y="255"/>
      <point x="170" y="286"/>
      <point x="170" y="375" type="curve" smooth="yes"/>
      <point x="170" y="421"/>
      <point x="193" y="445"/>
      <point x="215" y="453" type="curve"/>
      <point x="168" y="448" type="line"/>
      <point x="218" y="407"/>
      <point x="254" y="372"/>
      <point x="293" y="323" type="curve"/>
      <point x="371" y="400" type="line"/>
      <point x="341" y="436"/>
      <point x="287" y="465"/>
      <point x="227" y="465" type="curve" smooth="yes"/>
      <point x="110" y="465"/>
      <point x="34" y="390"/>
      <point x="34" y="318" type="curve" smooth="yes"/>
      <point x="34" y="197"/>
      <point x="224" y="175"/>
      <point x="224" y="85" type="curve" smooth="yes"/>
      <point x="224" y="45"/>
      <point x="171" y="0"/>
      <point x="137" y="0" type="curve"/>
      <point x="201" y="1" type="line"/>
      <point x="160" y="44"/>
      <point x="128" y="95"/>
      <point x="102" y="143" type="curve"/>
      <point x="16" y="74" type="line"/>
      <point x="45" y="23"/>
      <point x="112" y="-15"/>
      <point x="183" y="-15" type="curve" smooth="yes"/>
    </contour>
    <contour>
      <point x="208" y="574" type="move" name="top"/>
    </contour>
    <contour>
      <point x="183" y="-80" type="move" name="bottom"/>
    </contour>
  </outline>
</glyph>
<glyph name="t" format="1">
  <advance width="338"/>
  <unicode hex="0074"/>
  <outline>
    <contour>
      <point x="338" y="79" type="line"/>
      <point x="321" y="109" type="line"/>
      <point x="284" y="88" type="line"/>
      <point x="245" y="88"/>
      <point x="216" y="113"/>
      <point x="216" y="180" type="curve" smooth="yes"/>
      <point x="216" y="418" type="line"/>
      <point x="218" y="437" type="line"/>
      <point x="223" y="588" type="line"/>
      <point x="190" y="598" type="line"/>
      <point x="137" y="537"/>
      <point x="65" y="474"/>
      <point x="8" y="443" type="curve"/>
      <point x="8" y="411" type="line"/>
      <point x="75" y="411" type="line"/>
      <point x="75" y="145" type="line" smooth="yes"/>
      <point x="75" y="37"/>
      <point x="117" y="-9"/>
      <point x="216" y="-9" type="curve"/>
    </contour>
    <contour>
      <point x="335" y="450" type="line"/>
      <point x="171" y="450" type="line"/>
      <point x="171" y="411" type="line"/>
      <point x="335" y="408" type="line"/>
    </contour>
    <contour>
      <point x="163" y="-80" type="move" name="bottom"/>
    </contour>
    <contour>
      <point x="169" y="450" type="move" name="top"/>
    </contour>
    <contour>
      <point x="318" y="450" type="move" name="topright"/>
    </contour>
    <contour>
      <point x="169" y="225" type="move" name="center"/>
    </contour>
  </outline>
</glyph>
<glyph name="u" format="1">
  <advance width="522"/>
  <unicode hex="0075"/>
  <outline>
    <contour>
      <point x="362" y="161" type="line"/>
      <point x="350" y="178" type="line"/>
      <point x="284" y="116" type="line"/>
      <point x="233" y="117"/>
      <point x="198" y="150"/>
      <point x="198" y="211" type="curve" smooth="yes"/>
      <point x="198" y="450" type="line"/>
      <point x="20" y="450" type="line"/>
      <point x="20" y="421" type="line"/>
      <point x="57" y="418" type="line"/>
      <point x="57" y="171" type="line" smooth="yes"/>
      <point x="57" y="44"/>
      <point x="115" y="-15"/>
      <point x="241" y="-15" type="curve"/>
    </contour>
    <contour>
      <point x="528" y="67" type="line"/>
      <point x="517" y="97" type="line"/>
      <point x="487" y="82" type="line"/>
      <point x="474" y="98"/>
      <point x="468" y="117"/>
      <point x="468" y="168" type="curve" smooth="yes"/>
      <point x="468" y="450" type="line"/>
      <point x="291" y="450" type="line"/>
      <point x="291" y="421" type="line"/>
      <point x="327" y="418" type="line"/>
      <point x="327" y="112" type="line" smooth="yes"/>
      <point x="327" y="50"/>
      <point x="346" y="11"/>
      <point x="389" y="-12" type="curve"/>
    </contour>
    <contour>
      <point x="479" y="10" type="move" name="ogonek"/>
    </contour>
    <contour>
      <point x="263" y="574" type="move" name="top"/>
    </contour>
    <contour>
      <point x="513" y="450" type="move" name="topright"/>
    </contour>
    <contour>
      <point x="266" y="0" type="move" name="bottom"/>
    </contour>
  </outline>
</glyph>
<glyph name="v" format="1">
  <advance width="474"/>
  <unicode hex="0076"/>
  <outline>
    <contour>
      <point x="278" y="6" type="line"/>
      <point x="455" y="417" type="line"/>
      <point x="484" y="418" type="line"/>
      <point x="484" y="450" type="line"/>
      <point x="312" y="450" type="line"/>
      <point x="312" y="418" type="line"/>
      <point x="354" y="417" type="line"/>
      <point x="257" y="52" type="line"/>
      <point x="284" y="68" type="line"/>
      <point x="185" y="417" type="line"/>
      <point x="227" y="418" type="line"/>
      <point x="227" y="450" type="line"/>
      <point x="-10" y="450" type="line"/>
      <point x="-10" y="418" type="line"/>
      <point x="19" y="417" type="line"/>
      <point x="177" y="0" type="line"/>
    </contour>
  </outline>
</glyph>
<glyph name="w" format="1">
  <advance width="741"/>
  <unicode hex="0077"/>
  <outline>
    <contour>
      <point x="277" y="6" type="line"/>
      <point x="421" y="417" type="line"/>
      <point x="330" y="391" type="line"/>
      <point x="470" y="0" type="line"/>
      <point x="569" y="6" type="line"/>
      <point x="722" y="417" type="line"/>
      <point x="751" y="418" type="line"/>
      <point x="751" y="450" type="line"/>
      <point x="582" y="450" type="line"/>
      <point x="582" y="418" type="line"/>
      <point x="621" y="417" type="line"/>
      <point x="551" y="52" type="line"/>
      <point x="580" y="68" type="line"/>
      <point x="486" y="417" type="line"/>
      <point x="520" y="418" type="line"/>
      <point x="520" y="450" type="line"/>
      <point x="291" y="450" type="line"/>
      <point x="291" y="418" type="line"/>
      <point x="325" y="417" type="line"/>
      <point x="259" y="52" type="line"/>
      <point x="286" y="68" type="line"/>
      <point x="190" y="417" type="line"/>
      <point x="229" y="418" type="line"/>
      <point x="229" y="450" type="line"/>
      <point x="-10" y="450" type="line"/>
      <point x="-10" y="418" type="line"/>
      <point x="19" y="417" type="line"/>
      <point x="176" y="0" type="line"/>
    </contour>
    <contour>
      <point x="407" y="574" type="move" name="top"/>
    </contour>
    <contour>
      <point x="377" y="0" type="move" name="bottom"/>
    </contour>
  </outline>
</glyph>
<glyph name="x" format="1">
  <advance width="464"/>
  <unicode hex="0078"/>
  <outline>
    <contour>
      <point x="486" y="0" type="line"/>
      <point x="486" y="32" type="line"/>
      <point x="447" y="33" type="line"/>
      <point x="204" y="417" type="line"/>
      <point x="243" y="418" type="line"/>
      <point x="243" y="450" type="line"/>
      <point x="0" y="450" type="line"/>
      <point x="0" y="418" type="line"/>
      <point x="39" y="417" type="line"/>
      <point x="281" y="33" type="line"/>
      <point x="242" y="32" type="line"/>
      <point x="242" y="0" type="line"/>
    </contour>
    <contour>
      <point x="185" y="0" type="line"/>
      <point x="185" y="32" type="line"/>
      <point x="146" y="33" type="line"/>
      <point x="218" y="228" type="line"/>
      <point x="220" y="254" type="line"/>
      <point x="45" y="33" type="line"/>
      <point x="7" y="32" type="line"/>
      <point x="7" y="0" type="line"/>
    </contour>
    <contour>
      <point x="424" y="417" type="line"/>
      <point x="462" y="418" type="line"/>
      <point x="462" y="450" type="line"/>
      <point x="287" y="450" type="line"/>
      <point x="287" y="418" type="line"/>
      <point x="326" y="417" type="line"/>
      <point x="256" y="242" type="line"/>
      <point x="254" y="216" type="line"/>
    </contour>
  </outline>
</glyph>
<glyph name="y" format="1">
  <advance width="475"/>
  <unicode hex="0079"/>
  <outline>
    <contour>
      <point x="185" y="-187"/>
      <point x="263" y="-45"/>
      <point x="334" y="122" type="curve" smooth="yes"/>
      <point x="461" y="417" type="line"/>
      <point x="490" y="418" type="line"/>
      <point x="490" y="450" type="line"/>
      <point x="318" y="450" type="line"/>
      <point x="318" y="418" type="line"/>
      <point x="360" y="417" type="line"/>
      <point x="265" y="62" type="line"/>
      <point x="285" y="88" type="line"/>
      <point x="187" y="417" type="line"/>
      <point x="229" y="418" type="line"/>
      <point x="229" y="450" type="line"/>
      <point x="-8" y="450" type="line"/>
      <point x="-8" y="418" type="line"/>
      <point x="21" y="417" type="line"/>
      <point x="175" y="0" type="line"/>
      <point x="266" y="5" type="line"/>
      <point x="266" y="35" type="line"/>
      <point x="187" y="-38"/>
      <point x="105" y="-98"/>
      <point x="8" y="-153" type="curve"/>
      <point x="126" y="-265" type="line"/>
    </contour>
    <contour>
      <point x="271" y="574" type="move" name="top"/>
    </contour>
    <contour>
      <point x="238" y="0" type="move" name="bottom"/>
    </contour>
  </outline>
</glyph>
<glyph name="z" format="1">
  <advance width="403"/>
  <unicode hex="007A"/>
  <outline>
    <contour>
      <point x="383" y="0" type="line"/>
      <point x="383" y="183" type="line"/>
      <point x="354" y="183" type="line"/>
      <point x="351" y="155" type="line"/>
      <point x="105" y="116" type="line"/>
      <point x="374" y="328" type="line"/>
      <point x="374" y="450" type="line"/>
      <point x="36" y="450" type="line"/>
      <point x="36" y="267" type="line"/>
      <point x="65" y="267" type="line"/>
      <point x="69" y="302" type="line"/>
      <point x="293" y="329" type="line"/>
      <point x="34" y="104" type="line"/>
      <point x="34" y="-1" type="line"/>
    </contour>
    <contour>
      <point x="213" y="574" type="move" name="top"/>
    </contour>
    <contour>
      <point x="209" y="-80" type="move" name="bottom"/>
    </contour>
  </outline>
</glyph>
<glyph name="bar" format="1">
  <advance width="115"/>
  <unicode hex="007C"/>
  <outline>
    <contour>
      <point x="80" y="-124" type="line"/>
      <point x="80" y="740" type="line"/>
      <point x="39" y="740" type="line"/>
      <point x="35" y="-120" type="line"/>
    </contour>
  </outline>
</glyph>
<glyph name="braceright" format="1">
  <advance width="289"/>
  <unicode hex="007D"/>
  <outline>
    <contour>
      <point x="188" y="-124"/>
      <point x="262" y="-58"/>
      <point x="262" y="29" type="curve" smooth="yes"/>
      <point x="262" y="101"/>
      <point x="214" y="151"/>
      <point x="214" y="213" type="curve" smooth="yes"/>
      <point x="214" y="257"/>
      <point x="232" y="291"/>
      <point x="256" y="301" type="curve"/>
      <point x="256" y="319" type="line"/>
      <point x="232" y="329"/>
      <point x="214" y="365"/>
      <point x="214" y="408" type="curve" smooth="yes"/>
      <point x="214" y="470"/>
      <point x="262" y="520"/>
      <point x="262" y="592" type="curve" smooth="yes"/>
      <point x="262" y="679"/>
      <point x="188" y="745"/>
      <point x="122" y="746" type="curve" smooth="yes"/>
      <point x="82" y="747"/>
      <point x="47" y="737"/>
      <point x="16" y="711" type="curve"/>
      <point x="51" y="646" type="line"/>
      <point x="92" y="685"/>
      <point x="133" y="705"/>
      <point x="173" y="714" type="curve"/>
      <point x="139" y="724" type="line"/>
      <point x="143" y="708"/>
      <point x="145" y="696"/>
      <point x="145" y="681" type="curve" smooth="yes"/>
      <point x="145" y="573"/>
      <point x="97" y="519"/>
      <point x="97" y="448" type="curve" smooth="yes"/>
      <point x="97" y="391"/>
      <point x="149" y="331"/>
      <point x="210" y="310" type="curve"/>
      <point x="149" y="289"/>
      <point x="97" y="230"/>
      <point x="97" y="173" type="curve" smooth="yes"/>
      <point x="97" y="102"/>
      <point x="145" y="48"/>
      <point x="145" y="-60" type="curve" smooth="yes"/>
      <point x="145" y="-75"/>
      <point x="143" y="-87"/>
      <point x="139" y="-103" type="curve"/>
      <point x="173" y="-93" type="line"/>
      <point x="133" y="-84"/>
      <point x="92" y="-65"/>
      <point x="51" y="-26" type="curve"/>
      <point x="16" y="-91" type="line"/>
      <point x="47" y="-117"/>
      <point x="82" y="-126"/>
      <point x="122" y="-125" type="curve" smooth="yes"/>
    </contour>
  </outline>
</glyph>
<glyph name="asciitilde" format="1">
  <advance width="480"/>
  <unicode hex="007E"/>
  <outline>
    <contour>
      <point x="388" y="254"/>
      <point x="425" y="298"/>
      <point x="446" y="365" type="curve"/>
      <point x="414" y="376" type="line"/>
      <point x="395" y="321"/>
      <point x="376" y="301"/>
      <point x="344" y="301" type="curve" smooth="yes"/>
      <point x="261" y="301"/>
      <point x="218" y="400"/>
      <point x="142" y="400" type="curve" smooth="yes"/>
      <point x="84" y="400"/>
      <point x="46" y="356"/>
      <point x="25" y="289" type="curve"/>
      <point x="58" y="277" type="line"/>
      <point x="76" y="332"/>
      <point x="95" y="352"/>
      <point x="127" y="352" type="curve" smooth="yes"/>
      <point x="210" y="352"/>
      <point x="253" y="254"/>
      <point x="329" y="254" type="curve" smooth="yes"/>
    </contour>
  </outline>
</glyph>
<glyph name="cent" format="1">
  <advance width="434"/>
  <unicode hex="00A2"/>
  <outline>
    <contour>
      <point x="254" y="452" type="line"/>
      <point x="254" y="592" type="line"/>
      <point x="212" y="592" type="line"/>
      <point x="212" y="452" type="line"/>
    </contour>
    <contour>
      <point x="253" y="-132" type="line"/>
      <point x="253" y="8" type="line"/>
      <point x="211" y="8" type="line"/>
      <point x="211" y="-132" type="line"/>
    </contour>
    <component base="c"/>
  </outline>
</glyph>
<glyph name="sterling" format="1">
  <advance width="518"/>
  <unicode hex="00A3"/>
  <outline>
    <contour>
      <point x="502" y="0" type="line"/>
      <point x="502" y="179" type="line"/>
      <point x="463" y="178" type="line"/>
      <point x="461" y="128" type="line"/>
      <point x="342" y="84"/>
      <point x="229" y="49"/>
      <point x="113" y="22" type="curve"/>
      <point x="160" y="21" type="line"/>
      <point x="241" y="65"/>
      <point x="282" y="122"/>
      <point x="282" y="225" type="curve" smooth="yes"/>
      <point x="282" y="342"/>
      <point x="230" y="420"/>
      <point x="230" y="505" type="curve" smooth="yes"/>
      <point x="230" y="526"/>
      <point x="233" y="551"/>
      <point x="240" y="570" type="curve"/>
      <point x="218" y="561" type="line"/>
      <point x="295" y="501"/>
      <point x="335" y="460"/>
      <point x="381" y="395" type="curve"/>
      <point x="481" y="493" type="line"/>
      <point x="427" y="553"/>
      <point x="352" y="591"/>
      <point x="265" y="591" type="curve" smooth="yes"/>
      <point x="221" y="591"/>
      <point x="170" y="581"/>
      <point x="131" y="565" type="curve"/>
      <point x="94" y="536"/>
      <point x="74" y="492"/>
      <point x="72" y="433" type="curve" smooth="yes"/>
      <point x="69" y="340"/>
      <point x="113" y="306"/>
      <point x="113" y="201" type="curve" smooth="yes"/>
      <point x="113" y="123"/>
      <point x="89" y="70"/>
      <point x="54" y="36" type="curve"/>
      <point x="5" y="35" type="line"/>
      <point x="5" y="0" type="line"/>
    </contour>
    <contour>
      <point x="442" y="305" type="line"/>
      <point x="18" y="305" type="line"/>
      <point x="18" y="269" type="line"/>
      <point x="442" y="263" type="line"/>
    </contour>
  </outline>
</glyph>
<glyph name="currency" format="1">
  <advance width="469"/>
  <unicode hex="00A4"/>
  <outline>
    <contour>
      <point x="330" y="85"/>
      <point x="425" y="182"/>
      <point x="425" y="307" type="curve" smooth="yes"/>
      <point x="425" y="418"/>
      <point x="349" y="480"/>
      <point x="256" y="480" type="curve" smooth="yes"/>
      <point x="141" y="480"/>
      <point x="46" y="383"/>
      <point x="46" y="258" type="curve" smooth="yes"/>
      <point x="46" y="147"/>
      <point x="122" y="85"/>
      <point x="215" y="85" type="curve" smooth="yes"/>
    </contour>
    <contour>
      <point x="243" y="403"/>
      <point x="318" y="347"/>
      <point x="318" y="216" type="curve" smooth="yes"/>
      <point x="318" y="182"/>
      <point x="312" y="153"/>
      <point x="301" y="119" type="curve"/>
      <point x="369" y="172" type="line"/>
      <point x="228" y="162"/>
      <point x="153" y="218"/>
      <point x="153" y="349" type="curve" smooth="yes"/>
      <point x="153" y="383"/>
      <point x="159" y="412"/>
      <point x="170" y="446" type="curve"/>
      <point x="102" y="393" type="line"/>
    </contour>
    <contour>
      <point x="411" y="47" type="line"/>
      <point x="448" y="73" type="line"/>
      <point x="358" y="191" type="line"/>
      <point x="321" y="169" type="line"/>
    </contour>
    <contour>
      <point x="111" y="191" type="line"/>
      <point x="21" y="73" type="line"/>
      <point x="58" y="47" type="line"/>
      <point x="148" y="169" type="line"/>
    </contour>
    <contour>
      <point x="358" y="377" type="line"/>
      <point x="448" y="495" type="line"/>
      <point x="411" y="521" type="line"/>
      <point x="321" y="399" type="line"/>
    </contour>
    <contour>
      <point x="58" y="521" type="line"/>
      <point x="21" y="495" type="line"/>
      <point x="111" y="377" type="line"/>
      <point x="148" y="399" type="line"/>
    </contour>
  </outline>
</glyph>
<glyph name="yen" format="1">
  <advance width="620"/>
  <unicode hex="00A5"/>
  <outline>
    <contour>
      <point x="375" y="228" type="line"/>
      <point x="564" y="544" type="line"/>
      <point x="613" y="545" type="line"/>
      <point x="613" y="580" type="line"/>
      <point x="389" y="580" type="line"/>
      <point x="389" y="545" type="line"/>
      <point x="440" y="544" type="line"/>
      <point x="363" y="272" type="line"/>
      <point x="377" y="276" type="line"/>
      <point x="257" y="544" type="line"/>
      <point x="306" y="545" type="line"/>
      <point x="306" y="580" type="line"/>
      <point x="7" y="580" type="line"/>
      <point x="7" y="545" type="line"/>
      <point x="56" y="544" type="line"/>
      <point x="251" y="211" type="line"/>
    </contour>
    <contour>
      <point x="445" y="0" type="line"/>
      <point x="445" y="35" type="line"/>
      <point x="396" y="36" type="line"/>
      <point x="396" y="254" type="line"/>
      <point x="230" y="274" type="line"/>
      <point x="230" y="36" type="line"/>
      <point x="181" y="35" type="line"/>
      <point x="181" y="0" type="line"/>
    </contour>
    <contour>
      <point x="543" y="169" type="line"/>
      <point x="79" y="169" type="line"/>
      <point x="79" y="133" type="line"/>
      <point x="543" y="127" type="line"/>
    </contour>
    <contour>
      <point x="543" y="269" type="line"/>
      <point x="79" y="269" type="line"/>
      <point x="79" y="233" type="line"/>
      <point x="543" y="227" type="line"/>
    </contour>
  </outline>
</glyph>
<glyph name="brokenbar" format="1">
  <advance width="115"/>
  <unicode hex="00A6"/>
  <outline>
    <contour>
      <point x="80" y="-120" type="line"/>
      <point x="80" y="214" type="line"/>
      <point x="38" y="214" type="line"/>
      <point x="34" y="-120" type="line"/>
    </contour>
    <contour>
      <point x="80" y="397" type="line"/>
      <point x="78" y="740" type="line"/>
      <point x="35" y="740" type="line"/>
      <point x="34" y="397" type="line"/>
    </contour>
  </outline>
</glyph>
<glyph name="section" format="1">
  <advance width="460"/>
  <unicode hex="00A7"/>
  <outline>
    <contour>
      <point x="353" y="105"/>
      <point x="435" y="207"/>
      <point x="435" y="291" type="curve" smooth="yes"/>
      <point x="435" y="450"/>
      <point x="175" y="459"/>
      <point x="175" y="573" type="curve" smooth="yes"/>
      <point x="175" y="624"/>
      <point x="200" y="655"/>
      <point x="242" y="655" type="curve"/>
      <point x="268" y="614"/>
      <point x="296" y="571"/>
      <point x="323" y="526" type="curve"/>
      <point x="414" y="604" type="line"/>
      <point x="380" y="649"/>
      <point x="316" y="685"/>
      <point x="243" y="685" type="curve" smooth="yes"/>
      <point x="133" y="685"/>
      <point x="50" y="618"/>
      <point x="50" y="531" type="curve" smooth="yes"/>
      <point x="50" y="381"/>
      <point x="305" y="394"/>
      <point x="305" y="257" type="curve" smooth="yes"/>
      <point x="305" y="191"/>
      <point x="249" y="135"/>
      <point x="196" y="135" type="curve"/>
      <point x="214" y="105" type="line"/>
    </contour>
    <contour>
      <point x="112" y="451"/>
      <point x="30" y="339"/>
      <point x="30" y="265" type="curve" smooth="yes"/>
      <point x="30" y="106"/>
      <point x="286" y="97"/>
      <point x="286" y="-17" type="curve" smooth="yes"/>
      <point x="286" y="-68"/>
      <point x="259" y="-99"/>
      <point x="213" y="-99" type="curve"/>
      <point x="176" y="-59"/>
      <point x="148" y="-16"/>
      <point x="122" y="30" type="curve"/>
      <point x="31" y="-48" type="line"/>
      <point x="65" y="-93"/>
      <point x="135" y="-129"/>
      <point x="212" y="-129" type="curve" smooth="yes"/>
      <point x="331" y="-129"/>
      <point x="411" y="-62"/>
      <point x="411" y="25" type="curve" smooth="yes"/>
      <point x="411" y="175"/>
      <point x="160" y="162"/>
      <point x="160" y="299" type="curve" smooth="yes"/>
      <point x="160" y="365"/>
      <point x="216" y="421"/>
      <point x="269" y="421" type="curve"/>
      <point x="251" y="451" type="line"/>
    </contour>
  </outline>
</glyph>
<glyph name="dieresis" format="1">
  <advance width="282"/>
  <unicode hex="00A8"/>
  <outline>
    <component base="dieresiscomb" xOffset="-137"/>
    <contour>
      <point x="143" y="569" type="move" name="bottom"/>
    </contour>
  </outline>
</glyph>
<glyph name="copyright" format="1">
  <advance width="664"/>
  <unicode hex="00A9"/>
  <outline>
    <contour>
      <point x="394" y="261"/>
      <point x="460" y="299"/>
      <point x="507" y="363" type="curve"/>
      <point x="488" y="378" type="line"/>
      <point x="460" y="351"/>
      <point x="423" y="335"/>
      <point x="384" y="335" type="curve" smooth="yes"/>
      <point x="316" y="335"/>
      <point x="273" y="388"/>
      <point x="273" y="472" type="curve" smooth="yes"/>
      <point x="273" y="545"/>
      <point x="301" y="606"/>
      <point x="341" y="628" type="curve"/>
      <point x="330" y="636" type="line"/>
      <point x="417" y="500" type="line"/>
      <point x="495" y="566" type="line"/>
      <point x="464" y="614"/>
      <point x="408" y="644"/>
      <point x="345" y="644" type="curve" smooth="yes"/>
      <point x="303" y="644"/>
      <point x="261" y="628"/>
      <point x="218" y="600" type="curve"/>
      <point x="175" y="560"/>
      <point x="148" y="506"/>
      <point x="148" y="443" type="curve" smooth="yes"/>
      <point x="148" y="342"/>
      <point x="219" y="261"/>
      <point x="324" y="261" type="curve" smooth="yes"/>
    </contour>
    <contour>
      <point x="522" y="137"/>
      <point x="652" y="267"/>
      <point x="652" y="454" type="curve" smooth="yes"/>
      <point x="652" y="641"/>
      <point x="524" y="771"/>
      <point x="336" y="771" type="curve" smooth="yes"/>
      <point x="148" y="771"/>
      <point x="18" y="641"/>
      <point x="18" y="454" type="curve" smooth="yes"/>
      <point x="18" y="267"/>
      <point x="146" y="137"/>
      <point x="334" y="137" type="curve" smooth="yes"/>
    </contour>
    <contour>
      <point x="169" y="173"/>
      <point x="56" y="290"/>
      <point x="56" y="454" type="curve" smooth="yes"/>
      <point x="56" y="618"/>
      <point x="171" y="735"/>
      <point x="336" y="735" type="curve" smooth="yes"/>
      <point x="501" y="735"/>
      <point x="614" y="618"/>
      <point x="614" y="454" type="curve" smooth="yes"/>
      <point x="614" y="290"/>
      <point x="499" y="173"/>
      <point x="334" y="173" type="curve" smooth="yes"/>
    </contour>
  </outline>
</glyph>
<glyph name="ordfeminine" format="1">
  <advance width="275"/>
  <unicode hex="00AA"/>
  <outline>
    <contour>
      <point x="260" y="476" type="line"/>
      <point x="254" y="496" type="line"/>
      <point x="239" y="491" type="line"/>
      <point x="233" y="501"/>
      <point x="232" y="505"/>
      <point x="234" y="531" type="curve" smooth="yes"/>
      <point x="240" y="602" type="line" smooth="yes"/>
      <point x="244" y="667"/>
      <point x="198" y="694"/>
      <point x="141" y="694" type="curve" smooth="yes"/>
      <point x="114" y="694"/>
      <point x="82" y="688"/>
      <point x="56" y="677" type="curve"/>
      <point x="33" y="588" type="line"/>
      <point x="52" y="582" type="line"/>
      <point x="61" y="603" type="line"/>
      <point x="72" y="608"/>
      <point x="90" y="612"/>
      <point x="105" y="612" type="curve" smooth="yes"/>
      <point x="143" y="612"/>
      <point x="153" y="596"/>
      <point x="152" y="572" type="curve" smooth="yes"/>
      <point x="148" y="509" type="line" smooth="yes"/>
      <point x="146" y="477"/>
      <point x="154" y="455"/>
      <point x="170" y="441" type="curve"/>
    </contour>
    <contour>
      <point x="101" y="442"/>
      <point x="138" y="459"/>
      <point x="166" y="480" type="curve"/>
      <point x="161" y="500" type="line"/>
      <point x="149" y="489"/>
      <point x="136" y="483"/>
      <point x="126" y="483" type="curve" smooth="yes"/>
      <point x="118" y="483"/>
      <point x="110" y="489"/>
      <point x="110" y="506" type="curve" smooth="yes"/>
      <point x="110" y="515"/>
      <point x="112" y="524"/>
      <point x="114" y="529" type="curve"/>
      <point x="163" y="542" type="line"/>
      <point x="166" y="562" type="line"/>
      <point x="29" y="542" type="line"/>
      <point x="24" y="533"/>
      <point x="19" y="512"/>
      <point x="19" y="498" type="curve" smooth="yes"/>
      <point x="19" y="465"/>
      <point x="46" y="442"/>
      <point x="77" y="442" type="curve" smooth="yes"/>
    </contour>
  </outline>
</glyph>
<glyph name="logicalnot" format="1">
  <advance width="410"/>
  <unicode hex="00AC"/>
  <outline>
    <contour>
      <point x="23" y="349" type="line"/>
      <point x="18" y="311" type="line"/>
      <point x="356" y="311" type="line"/>
      <point x="348" y="179" type="line"/>
      <point x="388" y="179" type="line"/>
      <point x="396" y="357" type="line"/>
    </contour>
  </outline>
</glyph>
<glyph name="registered" format="1">
  <advance width="664"/>
  <unicode hex="00AE"/>
  <outline>
    <contour>
      <point x="321" y="293" type="line"/>
      <point x="321" y="318" type="line"/>
      <point x="295" y="319" type="line"/>
      <point x="295" y="590" type="line"/>
      <point x="336" y="590"/>
      <point x="365" y="557"/>
      <point x="365" y="510" type="curve" smooth="yes"/>
      <point x="365" y="468"/>
      <point x="336" y="448"/>
      <point x="278" y="448" type="curve"/>
      <point x="278" y="421" type="line"/>
      <point x="418" y="421"/>
      <point x="490" y="461"/>
      <point x="490" y="525" type="curve" smooth="yes"/>
      <point x="490" y="582"/>
      <point x="434" y="614"/>
      <point x="361" y="614" type="curve"/>
      <point x="279" y="608" type="line"/>
      <point x="159" y="609" type="line"/>
      <point x="159" y="582" type="line"/>
      <point x="185" y="582" type="line"/>
      <point x="185" y="319" type="line"/>
      <point x="159" y="318" type="line"/>
      <point x="159" y="293" type="line"/>
    </contour>
    <contour>
      <point x="534" y="293" type="line"/>
      <point x="534" y="318" type="line"/>
      <point x="508" y="319" type="line"/>
      <point x="410" y="461" type="line"/>
      <point x="323" y="431" type="line"/>
      <point x="373" y="319" type="line"/>
      <point x="349" y="318" type="line"/>
      <point x="349" y="293" type="line"/>
    </contour>
    <contour>
      <point x="522" y="137"/>
      <point x="652" y="267"/>
      <point x="652" y="454" type="curve" smooth="yes"/>
      <point x="652" y="641"/>
      <point x="524" y="771"/>
      <point x="336" y="771" type="curve" smooth="yes"/>
      <point x="148" y="771"/>
      <point x="18" y="641"/>
      <point x="18" y="454" type="curve" smooth="yes"/>
      <point x="18" y="267"/>
      <point x="146" y="137"/>
      <point x="334" y="137" type="curve" smooth="yes"/>
    </contour>
    <contour>
      <point x="169" y="173"/>
      <point x="56" y="290"/>
      <point x="56" y="454" type="curve" smooth="yes"/>
      <point x="56" y="618"/>
      <point x="171" y="735"/>
      <point x="336" y="735" type="curve" smooth="yes"/>
      <point x="501" y="735"/>
      <point x="614" y="618"/>
      <point x="614" y="454" type="curve" smooth="yes"/>
      <point x="614" y="290"/>
      <point x="499" y="173"/>
      <point x="334" y="173" type="curve" smooth="yes"/>
    </contour>
  </outline>
</glyph>
<glyph name="degree" format="1">
  <advance width="259"/>
  <unicode hex="00B0"/>
  <outline>
    <contour>
      <point x="203" y="530"/>
      <point x="247" y="584"/>
      <point x="247" y="650" type="curve" smooth="yes"/>
      <point x="247" y="716"/>
      <point x="203" y="769"/>
      <point x="128" y="769" type="curve" smooth="yes"/>
      <point x="52" y="769"/>
      <point x="8" y="716"/>
      <point x="8" y="650" type="curve" smooth="yes"/>
      <point x="8" y="584"/>
      <point x="52" y="530"/>
      <point x="128" y="530" type="curve" smooth="yes"/>
    </contour>
    <contour>
      <point x="81" y="568"/>
      <point x="48" y="600"/>
      <point x="48" y="650" type="curve" smooth="yes"/>
      <point x="48" y="699"/>
      <point x="81" y="731"/>
      <point x="128" y="731" type="curve" smooth="yes"/>
      <point x="176" y="731"/>
      <point x="209" y="699"/>
      <point x="209" y="650" type="curve" smooth="yes"/>
      <point x="209" y="600"/>
      <point x="176" y="568"/>
      <point x="128" y="568" type="curve" smooth="yes"/>
    </contour>
  </outline>
</glyph>
<glyph name="twosuperior" format="1">
  <advance width="268"/>
  <unicode hex="00B2"/>
  <outline>
    <contour>
      <point x="239" y="499" type="line"/>
      <point x="215" y="499" type="line"/>
      <point x="213" y="476" type="line"/>
      <point x="32" y="450" type="line"/>
      <point x="32" y="449" type="line"/>
      <point x="131" y="452"/>
      <point x="251" y="531"/>
      <point x="251" y="608" type="curve" smooth="yes"/>
      <point x="251" y="658"/>
      <point x="208" y="685"/>
      <point x="148" y="685" type="curve" smooth="yes"/>
      <point x="103" y="685"/>
      <point x="42" y="670"/>
      <point x="15" y="654" type="curve"/>
      <point x="27" y="542" type="line"/>
      <point x="50" y="544" type="line"/>
      <point x="50" y="567" type="line"/>
      <point x="71" y="579"/>
      <point x="103" y="586"/>
      <point x="130" y="586" type="curve" smooth="yes"/>
      <point x="157" y="586"/>
      <point x="176" y="575"/>
      <point x="176" y="555" type="curve" smooth="yes"/>
      <point x="176" y="526"/>
      <point x="114" y="483"/>
      <point x="20" y="464" type="curve"/>
      <point x="16" y="381" type="line"/>
      <point x="239" y="381" type="line"/>
    </contour>
  </outline>
</glyph>
<glyph name="threesuperior" format="1">
  <advance width="272"/>
  <unicode hex="00B3"/>
  <outline>
    <contour>
      <point x="232" y="678" type="line"/>
      <point x="25" y="678" type="line"/>
      <point x="25" y="567" type="line"/>
      <point x="49" y="567" type="line"/>
      <point x="50" y="590" type="line"/>
      <point x="224" y="618" type="line"/>
      <point x="167" y="622" type="line"/>
      <point x="47" y="518" type="line"/>
      <point x="47" y="500" type="line"/>
      <point x="128" y="503"/>
      <point x="160" y="478"/>
      <point x="160" y="433" type="curve" smooth="yes"/>
      <point x="160" y="415"/>
      <point x="155" y="402"/>
      <point x="149" y="393" type="curve"/>
      <point x="167" y="402" type="line"/>
      <point x="123" y="411"/>
      <point x="84" y="428"/>
      <point x="42" y="455" type="curve"/>
      <point x="17" y="395" type="line"/>
      <point x="43" y="381"/>
      <point x="76" y="373"/>
      <point x="110" y="373" type="curve" smooth="yes"/>
      <point x="198" y="373"/>
      <point x="253" y="425"/>
      <point x="253" y="478" type="curve" smooth="yes"/>
      <point x="253" y="522"/>
      <point x="214" y="554"/>
      <point x="159" y="554" type="curve" smooth="yes"/>
      <point x="133" y="554"/>
      <point x="107" y="547"/>
      <point x="82" y="536" type="curve"/>
      <point x="104" y="536" type="line"/>
      <point x="232" y="622" type="line"/>
    </contour>
  </outline>
</glyph>
<glyph name="acute" format="1">
  <advance width="227"/>
  <unicode hex="00B4"/>
  <outline>
    <component base="acutecomb" xOffset="-140"/>
    <contour>
      <point x="114" y="574" type="move" name="bottom"/>
    </contour>
  </outline>
</glyph>
<glyph name="paragraph" format="1">
  <advance width="550"/>
  <unicode hex="00B6"/>
  <outline>
    <contour>
      <point x="335" y="-64" type="line"/>
      <point x="335" y="629" type="line"/>
      <point x="420" y="630" type="line"/>
      <point x="420" y="-64" type="line"/>
      <point x="465" y="-64" type="line"/>
      <point x="465" y="630" type="line"/>
      <point x="539" y="630" type="line"/>
      <point x="539" y="670" type="line"/>
      <point x="336" y="670" type="line"/>
      <point x="190" y="680" type="line"/>
      <point x="98" y="680"/>
      <point x="22" y="609"/>
      <point x="22" y="503" type="curve" smooth="yes"/>
      <point x="22" y="375"/>
      <point x="120" y="302"/>
      <point x="290" y="296" type="curve"/>
      <point x="290" y="-64" type="line"/>
    </contour>
  </outline>
</glyph>
<glyph name="cedilla" format="1">
  <advance width="219"/>
  <unicode hex="00B8"/>
  <outline>
    <component base="cedillacomb" xOffset="-143"/>
    <contour>
      <point x="92" y="-83" type="move" name="top"/>
    </contour>
  </outline>
</glyph>
<glyph name="onesuperior" format="1">
  <advance width="227"/>
  <unicode hex="00B9"/>
  <outline>
    <contour>
      <point x="218" y="380" type="line"/>
      <point x="218" y="405" type="line"/>
      <point x="171" y="407" type="line"/>
      <point x="176" y="646" type="line"/>
      <point x="162" y="670" type="line"/>
      <point x="11" y="609" type="line"/>
      <point x="19" y="585" type="line"/>
      <point x="67" y="598" type="line"/>
      <point x="74" y="407" type="line"/>
      <point x="27" y="405" type="line"/>
      <point x="27" y="380" type="line"/>
    </contour>
  </outline>
</glyph>
<glyph name="ordmasculine" format="1">
  <advance width="285"/>
  <unicode hex="00BA"/>
  <outline>
    <contour>
      <point x="178" y="442"/>
      <point x="214" y="458"/>
      <point x="235" y="478" type="curve"/>
      <point x="259" y="506"/>
      <point x="269" y="544"/>
      <point x="269" y="575" type="curve" smooth="yes"/>
      <point x="269" y="653"/>
      <point x="216" y="694"/>
      <point x="143" y="694" type="curve" smooth="yes"/>
      <point x="105" y="694"/>
      <point x="69" y="677"/>
      <point x="48" y="657" type="curve"/>
      <point x="25" y="630"/>
      <point x="14" y="591"/>
      <point x="14" y="561" type="curve" smooth="yes"/>
      <point x="14" y="483"/>
      <point x="66" y="442"/>
      <point x="140" y="442" type="curve" smooth="yes"/>
    </contour>
    <contour>
      <point x="200" y="478" type="line"/>
      <point x="141" y="478"/>
      <point x="104" y="506"/>
      <point x="104" y="586" type="curve" smooth="yes"/>
      <point x="104" y="604"/>
      <point x="108" y="642"/>
      <point x="116" y="665" type="curve"/>
      <point x="85" y="657" type="line"/>
      <point x="143" y="657"/>
      <point x="179" y="630"/>
      <point x="179" y="550" type="curve" smooth="yes"/>
      <point x="179" y="532"/>
      <point x="175" y="493"/>
      <point x="168" y="471" type="curve"/>
    </contour>
  </outline>
</glyph>
<glyph name="onehalf" format="1">
  <advance width="613"/>
  <unicode hex="00BD"/>
  <outline>
    <contour>
      <point x="583" y="698" type="line"/>
      <point x="550" y="712" type="line"/>
      <point x="56" y="-12" type="line"/>
      <point x="89" y="-28" type="line"/>
    </contour>
    <component base="onesuperior"/>
    <component base="twosuperior" xOffset="356" yOffset="-380"/>
  </outline>
</glyph>
<glyph name="threequarters" format="1">
  <advance width="704"/>
  <unicode hex="00BE"/>
  <outline>
    <contour>
      <point x="684" y="71" type="line"/>
      <point x="684" y="104" type="line"/>
      <point x="414" y="104" type="line"/>
      <point x="434" y="83" type="line"/>
      <point x="653" y="299" type="line"/>
      <point x="542" y="299" type="line"/>
      <point x="398" y="87" type="line"/>
      <point x="398" y="71" type="line"/>
    </contour>
    <contour>
      <point x="673" y="0" type="line"/>
      <point x="673" y="25" type="line"/>
      <point x="644" y="26" type="line"/>
      <point x="647" y="190" type="line"/>
      <point x="641" y="198" type="line"/>
      <point x="537" y="165" type="line"/>
      <point x="539" y="26" type="line"/>
      <point x="510" y="25" type="line"/>
      <point x="510" y="0" type="line"/>
    </contour>
    <component base="threesuperior" xOffset="5"/>
    <component base="fraction" xOffset="67"/>
  </outline>
</glyph>
<glyph name="Aring" format="1">
  <advance width="682"/>
  <unicode hex="00C5"/>
  <outline>
    <contour>
      <point x="398" y="639"/>
      <point x="435" y="682"/>
      <point x="435" y="736" type="curve" smooth="yes"/>
      <point x="435" y="791"/>
      <point x="398" y="836"/>
      <point x="335" y="836" type="curve" smooth="yes"/>
      <point x="271" y="836"/>
      <point x="234" y="791"/>
      <point x="234" y="736" type="curve" smooth="yes"/>
      <point x="234" y="682"/>
      <point x="271" y="639"/>
      <point x="335" y="639" type="curve" smooth="yes"/>
    </contour>
    <contour>
      <point x="298" y="672"/>
      <point x="272" y="697"/>
      <point x="272" y="736" type="curve" smooth="yes"/>
      <point x="272" y="774"/>
      <point x="298" y="799"/>
      <point x="335" y="799" type="curve" smooth="yes"/>
      <point x="372" y="799"/>
      <point x="398" y="774"/>
      <point x="398" y="736" type="curve" smooth="yes"/>
      <point x="398" y="697"/>
      <point x="372" y="672"/>
      <point x="335" y="672" type="curve" smooth="yes"/>
    </contour>
    <component base="A"/>
  </outline>
</glyph>
<glyph name="AE" format="1">
  <advance width="873"/>
  <unicode hex="00C6"/>
  <outline>
    <contour>
      <point x="228" y="0" type="line"/>
      <point x="228" y="35" type="line"/>
      <point x="177" y="36" type="line"/>
      <point x="392" y="631" type="line"/>
      <point x="405" y="631" type="line"/>
      <point x="405" y="36" type="line"/>
      <point x="356" y="35" type="line"/>
      <point x="356" y="0" type="line"/>
      <point x="848" y="0" type="line"/>
      <point x="848" y="179" type="line"/>
      <point x="809" y="178" type="line"/>
      <point x="807" y="128" type="line"/>
      <point x="719" y="85"/>
      <point x="642" y="49"/>
      <point x="559" y="22" type="curve"/>
      <point x="575" y="12" type="line"/>
      <point x="571" y="648" type="line"/>
      <point x="559" y="638" type="line"/>
      <point x="635" y="613"/>
      <point x="706" y="581"/>
      <point x="787" y="542" type="curve"/>
      <point x="789" y="492" type="line"/>
      <point x="828" y="491" type="line"/>
      <point x="828" y="673" type="line"/>
      <point x="357" y="670" type="line"/>
      <point x="31" y="36" type="line"/>
      <point x="-8" y="35" type="line"/>
      <point x="-8" y="0" type="line"/>
    </contour>
    <contour>
      <point x="745" y="308" type="line"/>
      <point x="745" y="345" type="line"/>
      <point x="228" y="345" type="line"/>
      <point x="204" y="308" type="line"/>
    </contour>
    <contour>
      <point x="589" y="770" type="move" name="top"/>
    </contour>
    <contour>
      <point x="513" y="0" type="move" name="bottom"/>
    </contour>
  </outline>
</glyph>
<glyph name="Eth" format="1">
  <advance width="707"/>
  <unicode hex="00D0"/>
  <outline>
    <contour>
      <point x="353" y="315" type="line"/>
      <point x="363" y="361" type="line"/>
      <point x="0" y="353" type="line"/>
      <point x="-5" y="315" type="line"/>
    </contour>
    <component base="D"/>
  </outline>
</glyph>
<glyph name="multiply" format="1">
  <advance width="328"/>
  <unicode hex="00D7"/>
  <outline>
    <contour>
      <point x="304" y="436" type="line"/>
      <point x="286" y="467" type="line"/>
      <point x="24" y="217" type="line"/>
      <point x="48" y="177" type="line"/>
    </contour>
    <contour>
      <point x="306" y="215" type="line"/>
      <point x="49" y="466" type="line"/>
      <point x="28" y="440" type="line"/>
      <point x="279" y="178" type="line"/>
    </contour>
  </outline>
</glyph>
<glyph name="Oslash" format="1">
  <advance width="709"/>
  <unicode hex="00D8"/>
  <outline>
    <contour>
      <point x="520" y="618" type="line"/>
      <point x="487" y="632" type="line"/>
      <point x="191" y="43" type="line"/>
      <point x="224" y="27" type="line"/>
    </contour>
    <component base="O"/>
  </outline>
</glyph>
<glyph name="Thorn" format="1">
  <advance width="611"/>
  <unicode hex="00DE"/>
  <outline>
    <contour>
      <point x="320" y="0" type="line"/>
      <point x="320" y="35" type="line"/>
      <point x="251" y="36" type="line"/>
      <point x="251" y="634" type="line"/>
      <point x="320" y="635" type="line"/>
      <point x="320" y="670" type="line"/>
      <point x="36" y="670" type="line"/>
      <point x="36" y="635" type="line"/>
      <point x="85" y="634" type="line"/>
      <point x="85" y="36" type="line"/>
      <point x="36" y="35" type="line"/>
      <point x="36" y="0" type="line"/>
    </contour>
    <contour>
      <point x="478" y="136"/>
      <point x="605" y="219"/>
      <point x="605" y="383" type="curve" smooth="yes"/>
      <point x="605" y="471"/>
      <point x="527" y="570"/>
      <point x="377" y="570" type="curve"/>
      <point x="228" y="558" type="line"/>
      <point x="229" y="526" type="line"/>
      <point x="250" y="525" type="line"/>
      <point x="353" y="525"/>
      <point x="427" y="445"/>
      <point x="427" y="342" type="curve" smooth="yes"/>
      <point x="427" y="228"/>
      <point x="363" y="174"/>
      <point x="227" y="174" type="curve"/>
      <point x="227" y="136" type="line"/>
    </contour>
  </outline>
</glyph>
<glyph name="germandbls" format="1">
  <advance width="545"/>
  <unicode hex="00DF"/>
  <outline>
    <contour>
      <point x="431" y="-14"/>
      <point x="529" y="99"/>
      <point x="529" y="186" type="curve" smooth="yes"/>
      <point x="529" y="294"/>
      <point x="383" y="296"/>
      <point x="383" y="371" type="curve" smooth="yes"/>
      <point x="383" y="383"/>
      <point x="390" y="396"/>
      <point x="418" y="427" type="curve" smooth="yes"/>
      <point x="482" y="500" type="line"/>
      <point x="482" y="605"/>
      <point x="426" y="706"/>
      <point x="287" y="706" type="curve" smooth="yes"/>
      <point x="221" y="706"/>
      <point x="150" y="668"/>
      <point x="120" y="627" type="curve"/>
      <point x="55" y="481" type="line"/>
      <point x="55" y="36" type="line"/>
      <point x="6" y="35" type="line"/>
      <point x="6" y="0" type="line"/>
      <point x="195" y="0" type="line"/>
      <point x="195" y="582" type="line"/>
      <point x="133" y="537" type="line"/>
      <point x="152" y="548"/>
      <point x="210" y="562"/>
      <point x="250" y="562" type="curve" smooth="yes"/>
      <point x="313" y="562"/>
      <point x="367" y="515"/>
      <point x="367" y="440" type="curve" smooth="yes"/>
      <point x="367" y="428"/>
      <point x="366" y="415"/>
      <point x="363" y="402" type="curve"/>
      <point x="397" y="466" type="line"/>
      <point x="329" y="380" type="line" smooth="yes"/>
      <point x="292" y="333"/>
      <point x="275" y="302"/>
      <point x="275" y="280" type="curve" smooth="yes"/>
      <point x="275" y="178"/>
      <point x="431" y="181"/>
      <point x="431" y="82" type="curve" smooth="yes"/>
      <point x="431" y="66"/>
      <point x="427" y="51"/>
      <point x="422" y="40" type="curve"/>
      <point x="455" y="58" type="line"/>
      <point x="447" y="55"/>
      <point x="441" y="54"/>
      <point x="432" y="54" type="curve" smooth="yes"/>
      <point x="392" y="55"/>
      <point x="344" y="71"/>
      <point x="290" y="105" type="curve"/>
      <point x="223" y="19" type="line"/>
      <point x="250" y="-1"/>
      <point x="286" y="-14"/>
      <point x="337" y="-14" type="curve" smooth="yes"/>
    </contour>
  </outline>
</glyph>
<glyph name="ae" format="1">
  <advance width="655"/>
  <unicode hex="00E6"/>
  <outline>
    <contour>
      <point x="518" y="-15"/>
      <point x="596" y="36"/>
      <point x="643" y="117" type="curve"/>
      <point x="625" y="133" type="line"/>
      <point x="594" y="114"/>
      <point x="558" y="103"/>
      <point x="521" y="103" type="curve" smooth="yes"/>
      <point x="423" y="103"/>
      <point x="371" y="151"/>
      <point x="371" y="255" type="curve" smooth="yes"/>
      <point x="371" y="325"/>
      <point x="400" y="395"/>
      <point x="436" y="428" type="curve"/>
      <point x="416" y="425" type="line"/>
      <point x="456" y="424"/>
      <point x="486" y="355"/>
      <point x="488" y="263" type="curve"/>
      <point x="369" y="253" type="line"/>
      <point x="369" y="220" type="line"/>
      <point x="645" y="230" type="line"/>
      <point x="646" y="374"/>
      <point x="576" y="465"/>
      <point x="465" y="465" type="curve" smooth="yes"/>
      <point x="316" y="465"/>
      <point x="241" y="372"/>
      <point x="241" y="186" type="curve" smooth="yes"/>
      <point x="241" y="56"/>
      <point x="308" y="-15"/>
      <point x="435" y="-15" type="curve" smooth="yes"/>
    </contour>
    <contour>
      <point x="161" y="-15"/>
      <point x="244" y="16"/>
      <point x="297" y="59" type="curve"/>
      <point x="283" y="90" type="line"/>
      <point x="257" y="68"/>
      <point x="228" y="57"/>
      <point x="201" y="57" type="curve" smooth="yes"/>
      <point x="175" y="57"/>
      <point x="161" y="79"/>
      <point x="161" y="116" type="curve" smooth="yes"/>
      <point x="161" y="126"/>
      <point x="162" y="141"/>
      <point x="165" y="151" type="curve"/>
      <point x="270" y="176" type="line"/>
      <point x="274" y="208" type="line"/>
      <point x="32" y="169" type="line"/>
      <point x="23" y="150"/>
      <point x="16" y="114"/>
      <point x="16" y="88" type="curve" smooth="yes"/>
      <point x="16" y="28"/>
      <point x="55" y="-15"/>
      <point x="109" y="-15" type="curve" smooth="yes"/>
    </contour>
    <contour>
      <point x="333" y="264" type="line"/>
      <point x="348" y="410" type="line"/>
      <point x="320" y="449"/>
      <point x="273" y="465"/>
      <point x="222" y="465" type="curve" smooth="yes"/>
      <point x="177" y="465"/>
      <point x="128" y="453"/>
      <point x="79" y="432" type="curve"/>
      <point x="33" y="288" type="line"/>
      <point x="60" y="278" type="line"/>
      <point x="76" y="312" type="line"/>
      <point x="98" y="322"/>
      <point x="130" y="328"/>
      <point x="156" y="328" type="curve" smooth="yes"/>
      <point x="221" y="328"/>
      <point x="242" y="290"/>
      <point x="241" y="209" type="curve"/>
    </contour>
  </outline>
</glyph>
<glyph name="eth" format="1">
  <advance width="501"/>
  <unicode hex="00F0"/>
  <outline>
    <contour>
      <point x="317" y="-15"/>
      <point x="378" y="16"/>
      <point x="418" y="54" type="curve"/>
      <point x="467" y="107"/>
      <point x="489" y="180"/>
      <point x="489" y="268" type="curve" smooth="yes"/>
      <point x="489" y="459"/>
      <point x="322" y="671"/>
      <point x="102" y="705" type="curve"/>
      <point x="94" y="670" type="line"/>
      <point x="235" y="592"/>
      <point x="339" y="415"/>
      <point x="339" y="222" type="curve" smooth="yes"/>
      <point x="339" y="140"/>
      <point x="332" y="86"/>
      <point x="322" y="47" type="curve"/>
      <point x="365" y="67" type="line"/>
      <point x="242" y="67"/>
      <point x="166" y="111"/>
      <point x="166" y="255" type="curve" smooth="yes"/>
      <point x="166" y="283"/>
      <point x="174" y="340"/>
      <point x="188" y="383" type="curve"/>
      <point x="144" y="363" type="line"/>
      <point x="201" y="368"/>
      <point x="297" y="363"/>
      <point x="359" y="355" type="curve"/>
      <point x="305" y="446" type="line"/>
      <point x="218" y="446"/>
      <point x="140" y="414"/>
      <point x="88" y="376" type="curve"/>
      <point x="44" y="323"/>
      <point x="22" y="260"/>
      <point x="22" y="207" type="curve" smooth="yes"/>
      <point x="22" y="58"/>
      <point x="117" y="-15"/>
      <point x="249" y="-15" type="curve" smooth="yes"/>
    </contour>
    <contour>
      <point x="380" y="658" type="line"/>
      <point x="361" y="702" type="line"/>
      <point x="127" y="527" type="line"/>
      <point x="145" y="493" type="line"/>
    </contour>
  </outline>
</glyph>
<glyph name="oslash" format="1">
  <advance width="485"/>
  <unicode hex="00F8"/>
  <outline>
    <contour>
      <point x="344" y="368" type="line"/>
      <point x="314" y="388" type="line"/>
      <point x="158" y="77" type="line"/>
      <point x="186" y="52" type="line"/>
    </contour>
    <component base="o"/>
  </outline>
</glyph>
<glyph name="thorn" format="1">
  <advance width="513"/>
  <unicode hex="00FE"/>
  <outline>
    <contour>
      <point x="247" y="-250" type="line"/>
      <point x="247" y="-221" type="line"/>
      <point x="210" y="-218" type="line"/>
      <point x="211" y="684" type="line"/>
      <point x="197" y="708" type="line"/>
      <point x="16" y="652" type="line"/>
      <point x="26" y="623" type="line"/>
      <point x="64" y="631" type="line"/>
      <point x="65" y="-218" type="line"/>
      <point x="28" y="-221" type="line"/>
      <point x="28" y="-250" type="line"/>
    </contour>
    <contour>
      <point x="337" y="-15"/>
      <point x="419" y="28"/>
      <point x="444" y="63" type="curve"/>
      <point x="476" y="105"/>
      <point x="501" y="192"/>
      <point x="501" y="260" type="curve" smooth="yes"/>
      <point x="501" y="378"/>
      <point x="422" y="465"/>
      <point x="305" y="465" type="curve"/>
      <point x="183" y="322" type="line"/>
      <point x="197" y="296" type="line"/>
      <point x="251" y="350" type="line"/>
      <point x="306" y="350"/>
      <point x="358" y="296"/>
      <point x="358" y="200" type="curve" smooth="yes"/>
      <point x="358" y="145"/>
      <point x="348" y="85"/>
      <point x="324" y="44" type="curve"/>
      <point x="350" y="58" type="line"/>
      <point x="291" y="65"/>
      <point x="202" y="100"/>
      <point x="152" y="136" type="curve"/>
      <point x="71" y="37" type="line"/>
      <point x="117" y="12"/>
      <point x="233" y="-15"/>
      <point x="291" y="-15" type="curve" smooth="yes"/>
    </contour>
  </outline>
</glyph>
<glyph name="eogonek" format="1">
  <advance width="451"/>
  <unicode hex="0119"/>
  <outline>
    <contour>
      <point x="308" y="-15"/>
      <point x="364" y="27"/>
      <point x="437" y="100" type="curve"/>
      <point x="427" y="120" type="line"/>
      <point x="387" y="106"/>
      <point x="348" y="100"/>
      <point x="305" y="100" type="curve" smooth="yes"/>
      <point x="212" y="100"/>
      <point x="163" y="154"/>
      <point x="163" y="255" type="curve" smooth="yes"/>
      <point x="163" y="324"/>
      <point x="188" y="394"/>
      <point x="224" y="428" type="curve"/>
      <point x="204" y="425" type="line"/>
      <point x="259" y="424"/>
      <point x="291" y="366"/>
      <point x="293" y="263" type="curve"/>
      <point x="122" y="249" type="line"/>
      <point x="122" y="220" type="line"/>
      <point x="441" y="230" type="line"/>
      <point x="442" y="374"/>
      <point x="370" y="465"/>
      <point x="253" y="465" type="curve" smooth="yes"/>
      <point x="205" y="465"/>
      <point x="144" y="450"/>
      <point x="109" y="430" type="curve"/>
      <point x="59" y="378"/>
      <point x="22" y="292"/>
      <point x="22" y="209" type="curve" smooth="yes"/>
      <point x="22" y="72"/>
      <point x="99" y="-15"/>
      <point x="220" y="-15" type="curve" smooth="yes"/>
    </contour>
    <component base="ogonekcomb" xOffset="-64" yOffset="30"/>
    <contour>
      <point x="241" y="574" type="move" name="top"/>
    </contour>
  </outline>
</glyph>
<glyph name="dotlessi" format="1">
  <advance width="271"/>
  <unicode hex="0131"/>
  <outline>
    <contour>
      <point x="253" y="0" type="line"/>
      <point x="253" y="29" type="line"/>
      <point x="216" y="32" type="line"/>
      <point x="219" y="441" type="line"/>
      <point x="205" y="465" type="line"/>
      <point x="24" y="409" type="line"/>
      <point x="34" y="380" type="line"/>
      <point x="72" y="388" type="line"/>
      <point x="75" y="32" type="line"/>
      <point x="38" y="29" type="line"/>
      <point x="38" y="0" type="line"/>
    </contour>
    <contour>
      <point x="260" y="10" type="move" name="ogonek"/>
    </contour>
    <contour>
      <point x="148" y="-80" type="move" name="bottom"/>
    </contour>
    <contour>
      <point x="144" y="574" type="move" name="top"/>
    </contour>
  </outline>
</glyph>
<glyph name="OE" format="1">
  <advance width="965"/>
  <unicode hex="0152"/>
  <outline>
    <contour>
      <point x="393" y="-15"/>
      <point x="449" y="-7"/>
      <point x="495" y="0" type="curve"/>
      <point x="940" y="0" type="line"/>
      <point x="940" y="199" type="line"/>
      <point x="901" y="198" type="line"/>
      <point x="900" y="148" type="line"/>
      <point x="805" y="95"/>
      <point x="732" y="54"/>
      <point x="636" y="22" type="curve"/>
      <point x="652" y="12" type="line"/>
      <point x="648" y="658" type="line"/>
      <point x="636" y="648" type="line"/>
      <point x="717" y="617"/>
      <point x="798" y="577"/>
      <point x="879" y="527" type="curve"/>
      <point x="881" y="477" type="line"/>
      <point x="920" y="476" type="line"/>
      <point x="920" y="670" type="line"/>
      <point x="528" y="667" type="line"/>
      <point x="472" y="679"/>
      <point x="412" y="685"/>
      <point x="347" y="685" type="curve" smooth="yes"/>
      <point x="258" y="685"/>
      <point x="181" y="640"/>
      <point x="123" y="585" type="curve"/>
      <point x="59" y="507"/>
      <point x="24" y="401"/>
      <point x="24" y="316" type="curve" smooth="yes"/>
      <point x="24" y="88"/>
      <point x="165" y="-15"/>
      <point x="337" y="-15" type="curve" smooth="yes"/>
    </contour>
    <contour>
      <point x="507" y="55" type="line"/>
      <point x="313" y="58"/>
      <point x="202" y="142"/>
      <point x="202" y="386" type="curve" smooth="yes"/>
      <point x="202" y="444"/>
      <point x="216" y="553"/>
      <point x="236" y="625" type="curve"/>
      <point x="204" y="616" type="line"/>
      <point x="406" y="616"/>
      <point x="501" y="521"/>
      <point x="501" y="294" type="curve" smooth="yes"/>
      <point x="501" y="180"/>
      <point x="490" y="96"/>
      <point x="467" y="35" type="curve"/>
    </contour>
    <contour>
      <point x="837" y="328" type="line"/>
      <point x="837" y="365" type="line"/>
      <point x="605" y="365" type="line"/>
      <point x="581" y="328" type="line"/>
    </contour>
    <contour>
      <point x="530" y="-80" type="move" name="bottom"/>
    </contour>
    <contour>
      <point x="647" y="10" type="move" name="ogonek"/>
    </contour>
    <contour>
      <point x="533" y="770" type="move" name="top"/>
    </contour>
    <contour>
      <point x="343" y="335" type="move" name="center"/>
    </contour>
  </outline>
</glyph>
<glyph name="oe" format="1">
  <advance width="752"/>
  <unicode hex="0153"/>
  <outline>
    <contour>
      <point x="307" y="-15"/>
      <point x="368" y="16"/>
      <point x="408" y="54" type="curve"/>
      <point x="387" y="65" type="line"/>
      <point x="250" y="65"/>
      <point x="166" y="114"/>
      <point x="166" y="260" type="curve" smooth="yes"/>
      <point x="166" y="291"/>
      <point x="174" y="360"/>
      <point x="188" y="403" type="curve"/>
      <point x="144" y="383" type="line"/>
      <point x="258" y="383"/>
      <point x="329" y="334"/>
      <point x="328" y="212" type="curve"/>
      <point x="469" y="238" type="line"/>
      <point x="469" y="387"/>
      <point x="376" y="465"/>
      <point x="246" y="465" type="curve" smooth="yes"/>
      <point x="183" y="465"/>
      <point x="128" y="434"/>
      <point x="88" y="396" type="curve"/>
      <point x="44" y="343"/>
      <point x="22" y="270"/>
      <point x="22" y="212" type="curve" smooth="yes"/>
      <point x="22" y="63"/>
      <point x="113" y="-15"/>
      <point x="239" y="-15" type="curve" smooth="yes"/>
    </contour>
    <contour>
      <point x="618" y="-15"/>
      <point x="695" y="35"/>
      <point x="742" y="127" type="curve"/>
      <point x="724" y="143" type="line"/>
      <point x="693" y="114"/>
      <point x="652" y="103"/>
      <point x="612" y="103" type="curve" smooth="yes"/>
      <point x="521" y="103"/>
      <point x="473" y="156"/>
      <point x="473" y="255" type="curve" smooth="yes"/>
      <point x="473" y="325"/>
      <point x="494" y="395"/>
      <point x="525" y="428" type="curve"/>
      <point x="505" y="425" type="line"/>
      <point x="552" y="424"/>
      <point x="589" y="355"/>
      <point x="591" y="263" type="curve"/>
      <point x="458" y="252" type="line"/>
      <point x="458" y="220" type="line"/>
      <point x="742" y="230" type="line"/>
      <point x="743" y="374"/>
      <point x="670" y="465"/>
      <point x="554" y="465" type="curve" smooth="yes"/>
      <point x="414" y="465"/>
      <point x="328" y="367"/>
      <point x="328" y="205" type="curve" smooth="yes"/>
      <point x="328" y="76"/>
      <point x="408" y="-15"/>
      <point x="526" y="-15" type="curve" smooth="yes"/>
    </contour>
  </outline>
</glyph>
<glyph name="Uogonek" format="1">
  <advance width="726"/>
  <unicode hex="0172"/>
  <outline>
    <contour>
      <point x="384" y="-15"/>
      <point x="468" y="41"/>
      <point x="514" y="117" type="curve"/>
      <point x="507" y="135" type="line"/>
      <point x="472" y="110"/>
      <point x="438" y="98"/>
      <point x="386" y="98" type="curve" smooth="yes"/>
      <point x="302" y="98"/>
      <point x="244" y="153"/>
      <point x="244" y="281" type="curve" smooth="yes"/>
      <point x="244" y="634" type="line"/>
      <point x="293" y="635" type="line"/>
      <point x="293" y="670" type="line"/>
      <point x="26" y="670" type="line"/>
      <point x="26" y="635" type="line"/>
      <point x="75" y="634" type="line"/>
      <point x="75" y="256" type="line" smooth="yes"/>
      <point x="75" y="65"/>
      <point x="160" y="-15"/>
      <point x="293" y="-15" type="curve" smooth="yes"/>
    </contour>
    <contour>
      <point x="651" y="0" type="line"/>
      <point x="651" y="634" type="line"/>
      <point x="700" y="635" type="line"/>
      <point x="700" y="670" type="line"/>
      <point x="436" y="670" type="line"/>
      <point x="436" y="635" type="line"/>
      <point x="485" y="634" type="line"/>
      <point x="485" y="88" type="line"/>
      <point x="607" y="0" type="line"/>
    </contour>
    <component base="ogonekcomb.case" xOffset="230"/>
    <contour>
      <point x="651" y="10" type="move" name="ogonek"/>
    </contour>
    <contour>
      <point x="368" y="770" type="move" name="top"/>
    </contour>
  </outline>
</glyph>
<glyph name="florin" format="1">
  <advance width="345"/>
  <unicode hex="0192"/>
  <outline>
    <contour>
      <point x="130" y="-121"/>
      <point x="190" y="-31"/>
      <point x="214" y="134" type="curve" smooth="yes"/>
      <point x="251" y="415" type="line"/>
      <point x="218" y="462"/>
      <point x="181" y="586"/>
      <point x="195" y="666" type="curve"/>
      <point x="166" y="664" type="line"/>
      <point x="209" y="645"/>
      <point x="290" y="579"/>
      <point x="329" y="534" type="curve"/>
      <point x="412" y="653" type="line"/>
      <point x="367" y="682"/>
      <point x="304" y="702"/>
      <point x="244" y="702" type="curve" smooth="yes"/>
      <point x="191" y="702"/>
      <point x="111" y="662"/>
      <point x="91" y="608" type="curve"/>
      <point x="76" y="550"/>
      <point x="75" y="492"/>
      <point x="91" y="414" type="curve"/>
      <point x="67" y="209" type="line" smooth="yes"/>
      <point x="49" y="58"/>
      <point x="37" y="-16"/>
      <point x="21" y="-99" type="curve"/>
      <point x="49" y="-97" type="line"/>
      <point x="12" y="-80"/>
      <point x="-25" y="-53"/>
      <point x="-58" y="-7" type="curve"/>
      <point x="-104" y="-64" type="line"/>
      <point x="-75" y="-100"/>
      <point x="-28" y="-121"/>
      <point x="19" y="-121" type="curve" smooth="yes"/>
    </contour>
    <contour>
      <point x="329" y="398" type="line"/>
      <point x="329" y="440" type="line"/>
      <point x="11" y="440" type="line"/>
      <point x="11" y="401" type="line"/>
    </contour>
  </outline>
</glyph>
<glyph name="caron" format="1">
  <advance width="288"/>
  <unicode hex="02C7"/>
  <outline>
    <component base="caroncomb" xOffset="-134"/>
    <contour>
      <point x="144" y="561" type="move" name="_top"/>
    </contour>
  </outline>
</glyph>
<glyph name="dotaccent" format="1">
  <advance width="126"/>
  <unicode hex="02D9"/>
  <outline>
    <component base="dotaccentcomb" xOffset="-65"/>
    <contour>
      <point x="68" y="554" type="move" name="bottom"/>
    </contour>
  </outline>
</glyph>
<glyph name="ring" format="1">
  <advance width="221"/>
  <unicode hex="02DA"/>
  <outline>
    <contour>
      <point x="174" y="568"/>
      <point x="211" y="613"/>
      <point x="211" y="669" type="curve" smooth="yes"/>
      <point x="211" y="724"/>
      <point x="174" y="769"/>
      <point x="111" y="769" type="curve" smooth="yes"/>
      <point x="47" y="769"/>
      <point x="10" y="724"/>
      <point x="10" y="669" type="curve" smooth="yes"/>
      <point x="10" y="613"/>
      <point x="47" y="568"/>
      <point x="111" y="568" type="curve" smooth="yes"/>
    </contour>
    <contour>
      <point x="74" y="605"/>
      <point x="48" y="630"/>
      <point x="48" y="669" type="curve" smooth="yes"/>
      <point x="48" y="707"/>
      <point x="74" y="732"/>
      <point x="111" y="732" type="curve" smooth="yes"/>
      <point x="148" y="732"/>
      <point x="174" y="707"/>
      <point x="174" y="669" type="curve" smooth="yes"/>
      <point x="174" y="630"/>
      <point x="148" y="605"/>
      <point x="111" y="605" type="curve" smooth="yes"/>
    </contour>
  </outline>
</glyph>
<glyph name="tilde" format="1">
  <advance width="316"/>
  <unicode hex="02DC"/>
  <outline>
    <contour>
      <point x="246" y="572"/>
      <point x="283" y="608"/>
      <point x="306" y="653" type="curve"/>
      <point x="281" y="676" type="line"/>
      <point x="265" y="649"/>
      <point x="242" y="632"/>
      <point x="217" y="632" type="curve" smooth="yes"/>
      <point x="179" y="632"/>
      <point x="165" y="685"/>
      <point x="116" y="685" type="curve" smooth="yes"/>
      <point x="70" y="685"/>
      <point x="33" y="649"/>
      <point x="10" y="604" type="curve"/>
      <point x="35" y="581" type="line"/>
      <point x="51" y="608"/>
      <point x="74" y="625"/>
      <point x="99" y="625" type="curve" smooth="yes"/>
      <point x="137" y="625"/>
      <point x="151" y="572"/>
      <point x="200" y="572" type="curve" smooth="yes"/>
    </contour>
  </outline>
</glyph>
<glyph name="hungarumlaut" format="1">
  <advance width="281"/>
  <unicode hex="02DD"/>
  <outline>
    <component base="hungarumlautcomb" xOffset="-10"/>
    <contour>
      <point x="88" y="561" type="move" name="_top"/>
    </contour>
  </outline>
</glyph>
<glyph name="gravecomb" format="1">
  <advance width="600"/>
  <unicode hex="0300"/>
  <outline>
    <contour>
      <point x="358" y="566" type="line"/>
      <point x="190" y="700" type="line"/>
      <point x="151" y="630" type="line"/>
      <point x="340" y="527" type="line"/>
    </contour>
    <contour>
      <point x="254" y="700" type="move" name="top"/>
    </contour>
    <contour>
      <point x="254" y="574" type="move" name="_top"/>
    </contour>
  </outline>
</glyph>
<glyph name="acutecomb" format="1">
  <advance width="600"/>
  <unicode hex="0301"/>
  <outline>
    <contour>
      <point x="357" y="630" type="line"/>
      <point x="318" y="700" type="line"/>
      <point x="150" y="566" type="line"/>
      <point x="168" y="527" type="line"/>
    </contour>
    <contour>
      <point x="254" y="700" type="move" name="top"/>
    </contour>
    <contour>
      <point x="254" y="574" type="move" name="_top"/>
    </contour>
  </outline>
</glyph>
<glyph name="circumflexcomb" format="1">
  <advance width="600"/>
  <unicode hex="0302"/>
  <outline>
    <contour>
      <point x="278" y="604" type="line"/>
      <point x="391" y="551" type="line"/>
      <point x="412" y="582" type="line"/>
      <point x="278" y="689" type="line"/>
      <point x="144" y="582" type="line"/>
      <point x="165" y="551" type="line"/>
    </contour>
    <contour>
      <point x="278" y="571" type="move" name="_top"/>
    </contour>
  </outline>
</glyph>
<glyph name="tildecomb" format="1">
  <advance width="600"/>
  <unicode hex="0303"/>
  <outline>
    <contour>
      <point x="354" y="571"/>
      <point x="388" y="607"/>
      <point x="409" y="653" type="curve"/>
      <point x="387" y="676" type="line"/>
      <point x="371" y="652"/>
      <point x="350" y="637"/>
      <point x="329" y="637" type="curve" smooth="yes"/>
      <point x="295" y="637"/>
      <point x="278" y="686"/>
      <point x="236" y="686" type="curve" smooth="yes"/>
      <point x="194" y="686"/>
      <point x="160" y="650"/>
      <point x="139" y="604" type="curve"/>
      <point x="161" y="581" type="line"/>
      <point x="177" y="605"/>
      <point x="198" y="620"/>
      <point x="219" y="620" type="curve" smooth="yes"/>
      <point x="253" y="620"/>
      <point x="270" y="571"/>
      <point x="312" y="571" type="curve" smooth="yes"/>
    </contour>
    <contour>
      <point x="274" y="585" type="move" name="_top"/>
    </contour>
  </outline>
</glyph>
<glyph name="macroncomb" format="1">
  <advance width="600"/>
  <unicode hex="0304"/>
  <outline>
    <contour>
      <point x="376" y="575" type="line"/>
      <point x="386" y="632" type="line"/>
      <point x="123" y="624" type="line"/>
      <point x="118" y="575" type="line"/>
    </contour>
    <contour>
      <point x="252" y="575" type="move" name="_top"/>
    </contour>
  </outline>
</glyph>
<glyph name="brevecomb" format="1">
  <advance width="600"/>
  <unicode hex="0306"/>
  <outline>
    <contour>
      <point x="335" y="558"/>
      <point x="388" y="597"/>
      <point x="423" y="655" type="curve"/>
      <point x="398" y="683" type="line"/>
      <point x="367" y="654"/>
      <point x="325" y="635"/>
      <point x="278" y="635" type="curve" smooth="yes"/>
      <point x="231" y="635"/>
      <point x="189" y="654"/>
      <point x="158" y="683" type="curve"/>
      <point x="133" y="655" type="line"/>
      <point x="168" y="597"/>
      <point x="221" y="558"/>
      <point x="278" y="558" type="curve" smooth="yes"/>
    </contour>
    <contour>
      <point x="278" y="686" type="move" name="top"/>
    </contour>
    <contour>
      <point x="278" y="571" type="move" name="_top"/>
    </contour>
  </outline>
</glyph>
<glyph name="dotaccentcomb" format="1">
  <advance width="253"/>
  <unicode hex="0307"/>
  <outline>
    <contour>
      <point x="181" y="553" type="line"/>
      <point x="181" y="647" type="line"/>
      <point x="75" y="623" type="line"/>
      <point x="75" y="538" type="line"/>
    </contour>
    <contour>
      <point x="128" y="561" type="move" name="_top"/>
    </contour>
  </outline>
</glyph>
<glyph name="dieresiscomb" format="1">
  <advance width="600"/>
  <unicode hex="0308"/>
  <outline>
    <contour>
      <point x="409" y="588" type="line"/>
      <point x="409" y="680" type="line"/>
      <point x="309" y="659" type="line"/>
      <point x="309" y="574" type="line"/>
    </contour>
    <contour>
      <point x="247" y="588" type="line"/>
      <point x="247" y="680" type="line"/>
      <point x="147" y="659" type="line"/>
      <point x="147" y="574" type="line"/>
    </contour>
    <contour>
      <point x="278" y="586" type="move" name="_top"/>
    </contour>
  </outline>
</glyph>
<glyph name="ringcomb" format="1">
  <advance width="600"/>
  <unicode hex="030A"/>
  <outline>
    <contour>
      <point x="343" y="568"/>
      <point x="380" y="613"/>
      <point x="380" y="669" type="curve" smooth="yes"/>
      <point x="380" y="724"/>
      <point x="343" y="769"/>
      <point x="280" y="769" type="curve" smooth="yes"/>
      <point x="216" y="769"/>
      <point x="179" y="724"/>
      <point x="179" y="669" type="curve" smooth="yes"/>
      <point x="179" y="613"/>
      <point x="216" y="568"/>
      <point x="280" y="568" type="curve" smooth="yes"/>
    </contour>
    <contour>
      <point x="243" y="605"/>
      <point x="217" y="630"/>
      <point x="217" y="669" type="curve" smooth="yes"/>
      <point x="217" y="707"/>
      <point x="243" y="732"/>
      <point x="280" y="732" type="curve" smooth="yes"/>
      <point x="317" y="732"/>
      <point x="343" y="707"/>
      <point x="343" y="669" type="curve" smooth="yes"/>
      <point x="343" y="630"/>
      <point x="317" y="605"/>
      <point x="280" y="605" type="curve" smooth="yes"/>
    </contour>
    <contour>
      <point x="279" y="601" type="move" name="_top"/>
    </contour>
  </outline>
</glyph>
<glyph name="hungarumlautcomb" format="1">
  <advance width="291"/>
  <unicode hex="030B"/>
  <outline>
    <contour>
      <point x="281" y="718" type="line"/>
      <point x="205" y="712" type="line"/>
      <point x="125" y="571" type="line"/>
      <point x="173" y="564" type="line"/>
    </contour>
    <contour>
      <point x="176" y="718" type="line"/>
      <point x="100" y="712" type="line"/>
      <point x="20" y="571" type="line"/>
      <point x="68" y="564" type="line"/>
    </contour>
    <contour>
      <point x="106" y="598" type="move" name="_top"/>
    </contour>
  </outline>
</glyph>
<glyph name="caroncomb" format="1">
  <advance width="600"/>
  <unicode hex="030C"/>
  <outline>
    <contour>
      <point x="412" y="664" type="line"/>
      <point x="391" y="695" type="line"/>
      <point x="278" y="642" type="line"/>
      <point x="165" y="695" type="line"/>
      <point x="144" y="664" type="line"/>
      <point x="278" y="557" type="line"/>
    </contour>
    <contour>
      <point x="278" y="695" type="move" name="top"/>
    </contour>
    <contour>
      <point x="278" y="584" type="move" name="_top"/>
    </contour>
  </outline>
</glyph>
<glyph name="commaturnedabovecomb" format="1">
  <advance width="216"/>
  <unicode hex="0312"/>
  <outline>
    <component base="commaaccentcomb" xOffset="214" yOffset="494" xScale="-1" yScale="-1"/>
    <contour>
      <point x="117" y="725" type="move" name="top"/>
    </contour>
    <contour>
      <point x="112" y="560" type="move" name="_top"/>
    </contour>
  </outline>
</glyph>
<glyph name="commaaccentcomb" format="1">
  <advance width="216"/>
  <unicode hex="0326"/>
  <outline>
    <component base="comma" xOffset="30" yOffset="-153" xScale="0.806" yScale="0.653"/>
    <contour>
      <point x="120" y="-83" type="move" name="_bottom"/>
    </contour>
  </outline>
</glyph>
<glyph name="cedillacomb" format="1">
  <advance width="600"/>
  <unicode hex="0327"/>
  <outline>
    <contour>
      <point x="282" y="-253"/>
      <point x="307" y="-241"/>
      <point x="325" y="-225" type="curve"/>
      <point x="343" y="-203"/>
      <point x="352" y="-176"/>
      <point x="352" y="-155" type="curve" smooth="yes"/>
      <point x="352" y="-86"/>
      <point x="292" y="-55"/>
      <point x="227" y="-55" type="curve"/>
      <point x="228" y="-75" type="line"/>
      <point x="282" y="7" type="line"/>
      <point x="248" y="5" type="line"/>
      <point x="178" y="-88" type="line"/>
      <point x="178" y="-115" type="line"/>
      <point x="240" y="-122"/>
      <point x="270" y="-160"/>
      <point x="270" y="-213" type="curve" smooth="yes"/>
      <point x="270" y="-222"/>
      <point x="269" y="-233"/>
      <point x="267" y="-238" type="curve"/>
      <point x="277" y="-233" type="line"/>
      <point x="188" y="-173" type="line"/>
      <point x="153" y="-222" type="line"/>
      <point x="181" y="-239"/>
      <point x="227" y="-254"/>
      <point x="261" y="-254" type="curve" smooth="yes"/>
    </contour>
    <contour>
      <point x="235" y="-83" type="move" name="_bottom"/>
    </contour>
    <contour>
      <point x="253" y="-254" type="move" name="bottom"/>
    </contour>
  </outline>
</glyph>
<glyph name="ogonekcomb" format="1">
  <advance width="600"/>
  <unicode hex="0328"/>
  <outline>
    <contour>
      <point x="383" y="-231"/>
      <point x="411" y="-220"/>
      <point x="437" y="-198" type="curve"/>
      <point x="429" y="-172" type="line"/>
      <point x="425" y="-173"/>
      <point x="414" y="-174"/>
      <point x="408" y="-174" type="curve" smooth="yes"/>
      <point x="376" y="-174"/>
      <point x="354" y="-149"/>
      <point x="354" y="-112" type="curve" smooth="yes"/>
      <point x="354" y="-69"/>
      <point x="380" y="-28"/>
      <point x="421" y="0" type="curve"/>
      <point x="376" y="0" type="line"/>
      <point x="317" y="-19"/>
      <point x="247" y="-87"/>
      <point x="247" y="-140" type="curve" smooth="yes"/>
      <point x="247" y="-202"/>
      <point x="292" y="-231"/>
      <point x="347" y="-231" type="curve" smooth="yes"/>
    </contour>
    <contour>
      <point x="381" y="0" type="move" name="_ogonek"/>
    </contour>
  </outline>
</glyph>
<glyph name="strokeshortcomb" format="1">
  <advance width="411"/>
  <unicode hex="0335"/>
  <outline>
    <contour>
      <point x="391" y="256" type="line"/>
      <point x="401" y="302" type="line"/>
      <point x="15" y="294" type="line"/>
      <point x="10" y="256" type="line"/>
    </contour>
    <contour>
      <point x="202" y="279" type="move" name="_center"/>
    </contour>
  </outline>
</glyph>
<glyph name="strokelongcomb" format="1">
  <advance width="738"/>
  <unicode hex="0336"/>
  <outline>
    <contour>
      <point x="718" y="256" type="line"/>
      <point x="728" y="302" type="line"/>
      <point x="15" y="294" type="line"/>
      <point x="10" y="256" type="line"/>
    </contour>
    <contour>
      <point x="374" y="279" type="move" name="_center"/>
    </contour>
  </outline>
</glyph>
<glyph name="slashshortcomb" format="1">
  <advance width="345"/>
  <unicode hex="0337"/>
  <outline>
    <component base="slashlongcomb"/>
    <contour>
      <point x="172" y="316" type="move" name="_center"/>
    </contour>
  </outline>
</glyph>
<glyph name="slashlongcomb" format="1">
  <advance width="345"/>
  <unicode hex="0338"/>
  <outline>
    <contour>
      <point x="345" y="447" type="line"/>
      <point x="323" y="471" type="line"/>
      <point x="0" y="181" type="line"/>
      <point x="22" y="155" type="line"/>
    </contour>
    <contour>
      <point x="177" y="316" type="move" name="_center"/>
    </contour>
  </outline>
</glyph>
<glyph name="Delta" format="1">
  <advance width="670"/>
  <unicode hex="0394"/>
  <outline>
    <contour>
      <point x="269" y="594" type="line"/>
      <point x="291" y="598" type="line"/>
      <point x="157" y="81" type="line"/>
      <point x="446" y="81" type="line"/>
    </contour>
    <contour>
      <point x="275" y="662" type="line"/>
      <point x="399" y="679" type="line"/>
      <point x="649" y="76" type="line"/>
      <point x="611" y="0" type="line"/>
      <point x="1" y="0" type="line"/>
    </contour>
  </outline>
</glyph>
<glyph name="Omega" format="1">
  <advance width="688"/>
  <unicode hex="03A9"/>
  <outline>
    <contour>
      <point x="379" y="-1" type="line"/>
      <point x="641" y="0" type="line"/>
      <point x="641" y="183" type="line"/>
      <point x="612" y="183" type="line"/>
      <point x="609" y="155" type="line"/>
      <point x="396" y="101" type="line"/>
      <point x="396" y="95" type="line"/>
      <point x="505" y="115"/>
      <point x="663" y="252"/>
      <point x="663" y="420" type="curve" smooth="yes"/>
      <point x="663" y="583"/>
      <point x="534" y="685"/>
      <point x="355" y="685" type="curve" smooth="yes"/>
      <point x="251" y="685"/>
      <point x="174" y="646"/>
      <point x="112" y="601" type="curve"/>
      <point x="55" y="540"/>
      <point x="25" y="463"/>
      <point x="25" y="390" type="curve" smooth="yes"/>
      <point x="25" y="244"/>
      <point x="183" y="110"/>
      <point x="292" y="95" type="curve"/>
      <point x="292" y="101" type="line"/>
      <point x="79" y="155" type="line"/>
      <point x="76" y="183" type="line"/>
      <point x="47" y="183" type="line"/>
      <point x="47" y="0" type="line"/>
      <point x="309" y="-1" type="line"/>
      <point x="309" y="104" type="line"/>
      <point x="247" y="157"/>
      <point x="198" y="272"/>
      <point x="198" y="413" type="curve" smooth="yes"/>
      <point x="198" y="483"/>
      <point x="219" y="571"/>
      <point x="246" y="637" type="curve"/>
      <point x="211" y="630" type="line"/>
      <point x="377" y="630"/>
      <point x="487" y="559"/>
      <point x="487" y="379" type="curve" smooth="yes"/>
      <point x="487" y="281"/>
      <point x="449" y="169"/>
      <point x="379" y="104" type="curve"/>
    </contour>
  </outline>
</glyph>
<glyph name="mu" format="1">
  <advance width="517"/>
  <unicode hex="03BC"/>
  <outline>
    <contour>
      <point x="523" y="67" type="line"/>
      <point x="512" y="97" type="line"/>
      <point x="482" y="82" type="line"/>
      <point x="469" y="98"/>
      <point x="463" y="117"/>
      <point x="463" y="168" type="curve" smooth="yes"/>
      <point x="463" y="450" type="line"/>
      <point x="286" y="450" type="line"/>
      <point x="286" y="421" type="line"/>
      <point x="322" y="418" type="line"/>
      <point x="322" y="112" type="line" smooth="yes"/>
      <point x="322" y="50"/>
      <point x="341" y="11"/>
      <point x="384" y="-12" type="curve"/>
    </contour>
    <contour>
      <point x="57" y="418" type="line"/>
      <point x="57" y="-250" type="line"/>
      <point x="186" y="-250" type="line"/>
      <point x="152" y="77" type="line"/>
      <point x="144" y="75" type="line"/>
      <point x="151" y="16"/>
      <point x="185" y="-15"/>
      <point x="253" y="-15" type="curve"/>
      <point x="347" y="105" type="line"/>
      <point x="333" y="133" type="line"/>
      <point x="289" y="92" type="line"/>
      <point x="231" y="92"/>
      <point x="193" y="125"/>
      <point x="193" y="210" type="curve" smooth="yes"/>
      <point x="193" y="450" type="line"/>
      <point x="20" y="450" type="line"/>
      <point x="20" y="421" type="line"/>
    </contour>
  </outline>
</glyph>
<glyph name="pi" format="1">
  <advance width="614"/>
  <unicode hex="03C0"/>
  <outline>
    <contour>
      <point x="99" y="237" type="line"/>
      <point x="118" y="292"/>
      <point x="145" y="321"/>
      <point x="192" y="321" type="curve" smooth="yes"/>
      <point x="317" y="321"/>
      <point x="443" y="306"/>
      <point x="568" y="298" type="curve"/>
      <point x="597" y="455" type="line"/>
      <point x="191" y="460" type="line" smooth="yes"/>
      <point x="83" y="461"/>
      <point x="27" y="400"/>
      <point x="-9" y="293" type="curve"/>
    </contour>
    <contour>
      <point x="241" y="0" type="line"/>
      <point x="243" y="346" type="line"/>
      <point x="192" y="348" type="line"/>
      <point x="131" y="0" type="line"/>
    </contour>
    <contour>
      <point x="374" y="145" type="line" smooth="yes"/>
      <point x="380" y="37"/>
      <point x="404" y="-9"/>
      <point x="475" y="-9" type="curve"/>
      <point x="577" y="69" type="line"/>
      <point x="560" y="99" type="line"/>
      <point x="523" y="78" type="line"/>
      <point x="484" y="78"/>
      <point x="461" y="113"/>
      <point x="455" y="200" type="curve" smooth="yes"/>
      <point x="441" y="408" type="line"/>
      <point x="360" y="411" type="line"/>
    </contour>
  </outline>
</glyph>
<glyph name="tahabove-ar" format="1">
  <advance width="237"/>
  <unicode hex="0615"/>
  <outline>
    <contour>
      <point x="136" y="402"/>
      <point x="180" y="412"/>
      <point x="202" y="441" type="curve" smooth="yes"/>
      <point x="216" y="460"/>
      <point x="227" y="496"/>
      <point x="227" y="521" type="curve" smooth="yes"/>
      <point x="227" y="553"/>
      <point x="219" y="572"/>
      <point x="191" y="571" type="curve" smooth="yes"/>
      <point x="167" y="571"/>
      <point x="143" y="558"/>
      <point x="130" y="536" type="curve" smooth="yes"/>
      <point x="119" y="518"/>
      <point x="106" y="477"/>
      <point x="91" y="425" type="curve"/>
      <point x="104" y="422" type="line"/>
      <point x="127" y="485" type="line"/>
      <point x="142" y="498"/>
      <point x="165" y="506"/>
      <point x="183" y="506" type="curve" smooth="yes"/>
      <point x="196" y="506"/>
      <point x="203" y="502"/>
      <point x="203" y="496" type="curve" smooth="yes"/>
      <point x="204" y="488"/>
      <point x="174" y="473"/>
      <point x="122" y="467" type="curve" smooth="yes"/>
      <point x="105" y="466"/>
      <point x="61" y="465"/>
      <point x="10" y="473" type="curve"/>
      <point x="11" y="470"/>
      <point x="13" y="468"/>
      <point x="14" y="466" type="curve" smooth="yes"/>
      <point x="33" y="438"/>
      <point x="57" y="417"/>
      <point x="88" y="403" type="curve"/>
      <point x="91" y="402"/>
      <point x="95" y="402"/>
      <point x="99" y="402" type="curve" smooth="yes"/>
    </contour>
    <contour>
      <point x="128" y="578" type="line"/>
      <point x="132" y="590"/>
      <point x="140" y="633"/>
      <point x="140" y="658" type="curve" smooth="yes"/>
      <point x="140" y="668"/>
      <point x="139" y="673"/>
      <point x="138" y="677" type="curve"/>
      <point x="120" y="666"/>
      <point x="96" y="642"/>
      <point x="81" y="624" type="curve"/>
      <point x="86" y="589"/>
      <point x="91" y="565"/>
      <point x="91" y="519" type="curve"/>
      <point x="101" y="516" type="line"/>
    </contour>
    <contour>
      <point x="150" y="685" type="move" name="top"/>
    </contour>
    <contour>
      <point x="133" y="352" type="move" name="_top"/>
    </contour>
  </outline>
</glyph>
<glyph name="hamza-ar" format="1">
  <advance width="322"/>
  <unicode hex="0621"/>
  <outline>
    <contour>
      <point x="235" y="37" type="line"/>
      <point x="318" y="129" type="line"/>
      <point x="300" y="150" type="line"/>
      <point x="267" y="134"/>
      <point x="232" y="124"/>
      <point x="190" y="124" type="curve" smooth="yes"/>
      <point x="137" y="124"/>
      <point x="86" y="145"/>
      <point x="86" y="164" type="curve" smooth="yes"/>
      <point x="86" y="180"/>
      <point x="107" y="189"/>
      <point x="134" y="189" type="curve" smooth="yes"/>
      <point x="169" y="189"/>
      <point x="213" y="177"/>
      <point x="235" y="164" type="curve"/>
      <point x="294" y="283" type="line"/>
      <point x="270" y="296"/>
      <point x="226" y="305"/>
      <point x="192" y="305" type="curve" smooth="yes"/>
      <point x="100" y="305"/>
      <point x="40" y="235"/>
      <point x="40" y="160" type="curve" smooth="yes"/>
      <point x="40" y="106"/>
      <point x="84" y="66"/>
      <point x="134" y="47" type="curve"/>
      <point x="116" y="93" type="line"/>
      <point x="3" y="1" type="line"/>
      <point x="21" y="-20" type="line"/>
    </contour>
    <contour>
      <point x="163" y="332" type="move" name="top"/>
    </contour>
    <contour>
      <point x="148" y="-18" type="move" name="bottom"/>
    </contour>
  </outline>
</glyph>
<glyph name="alefMadda-ar" format="1">
  <advance width="212"/>
  <unicode hex="0622"/>
  <outline>
    <component base="alef-ar"/>
    <component base="madda-ar" xOffset="-20" yOffset="44"/>
    <contour>
      <point x="103" y="702" type="move" name="top"/>
    </contour>
  </outline>
</glyph>
<glyph name="wawHamzaabove-ar" format="1">
  <advance width="422"/>
  <unicode hex="0624"/>
  <outline>
    <component base="waw-ar"/>
    <component base="hamzaabove-ar" xOffset="172" yOffset="3"/>
    <contour>
      <point x="207" y="-50" type="move" name="bottom"/>
    </contour>
  </outline>
</glyph>
<glyph name="alefHamzabelow-ar" format="1">
  <advance width="212"/>
  <unicode hex="0625"/>
  <outline>
    <component base="alef-ar"/>
    <component base="hamzabelow-ar" xOffset="-4" yOffset="-169"/>
    <contour>
      <point x="103" y="612" type="move" name="top"/>
    </contour>
  </outline>
</glyph>
<glyph name="yehHamzaabove-ar" format="1">
  <advance width="674"/>
  <unicode hex="0626"/>
  <outline>
    <component base="dotlessyeh-ar"/>
    <component base="hamzaabove-ar" xOffset="78" yOffset="40"/>
    <contour>
      <point x="241" y="-45" type="move" name="bottom"/>
    </contour>
  </outline>
</glyph>
<glyph name="alef-ar" format="1">
  <advance width="212"/>
  <unicode hex="0627"/>
  <outline>
    <contour>
      <point x="148" y="151" type="line"/>
      <point x="155" y="177"/>
      <point x="172" y="378"/>
      <point x="172" y="507" type="curve" smooth="yes"/>
      <point x="172" y="547"/>
      <point x="170" y="579"/>
      <point x="166" y="594" type="curve"/>
      <point x="127" y="574"/>
      <point x="76" y="527"/>
      <point x="40" y="483" type="curve"/>
      <point x="53" y="341"/>
      <point x="62" y="135"/>
      <point x="61" y="8" type="curve"/>
      <point x="83" y="0" type="line"/>
    </contour>
    <contour>
      <point x="104" y="594" type="move" name="top"/>
    </contour>
    <contour>
      <point x="99" y="46" type="move" name="bottom"/>
    </contour>
  </outline>
</glyph>
<glyph name="beh-ar" format="1">
  <advance width="743"/>
  <unicode hex="0628"/>
  <outline>
    <component base="dotlessbeh-ar"/>
    <component base="dotbelow-ar" xOffset="289" yOffset="-27"/>
    <contour>
      <point x="406" y="375" type="move" name="top"/>
    </contour>
  </outline>
</glyph>
<glyph name="tehMarbuta-ar" format="1">
  <advance width="429"/>
  <unicode hex="0629"/>
  <outline>
    <component base="heh-ar"/>
    <component base="twodotshorizontalabove-ar" xOffset="126" yOffset="-13"/>
    <contour>
      <point x="226" y="-35" type="move" name="bottom"/>
    </contour>
  </outline>
</glyph>
<glyph name="jeem-ar" format="1">
  <advance width="452"/>
  <unicode hex="062C"/>
  <outline>
    <component base="hah-ar"/>
    <component base="dotcenter-ar" xOffset="161" yOffset="-481"/>
    <contour>
      <point x="280" y="403" type="move" name="top"/>
    </contour>
    <contour>
      <point x="200" y="-420" type="move" name="bottom"/>
    </contour>
  </outline>
</glyph>
<glyph name="hah-ar" format="1">
  <advance width="452"/>
  <unicode hex="062D"/>
  <outline>
    <contour>
      <point x="277" y="-375"/>
      <point x="384" y="-308"/>
      <point x="419" y="-244" type="curve"/>
      <point x="404" y="-245"/>
      <point x="387" y="-245"/>
      <point x="371" y="-245" type="curve" smooth="yes"/>
      <point x="198" y="-245"/>
      <point x="30" y="-188"/>
      <point x="30" y="-120" type="curve" smooth="yes"/>
      <point x="30" y="-41"/>
      <point x="262" y="112"/>
      <point x="352" y="147" type="curve"/>
      <point x="432" y="299" type="line"/>
      <point x="390" y="331"/>
      <point x="329" y="350"/>
      <point x="267" y="350" type="curve" smooth="yes"/>
      <point x="218" y="350"/>
      <point x="165" y="338"/>
      <point x="137" y="316" type="curve" smooth="yes"/>
      <point x="102" y="289"/>
      <point x="29" y="178"/>
      <point x="29" y="117" type="curve" smooth="yes"/>
      <point x="29" y="75"/>
      <point x="64" y="21"/>
      <point x="105" y="10" type="curve"/>
      <point x="230" y="131" type="line"/>
      <point x="163" y="140"/>
      <point x="101" y="200"/>
      <point x="101" y="244" type="curve"/>
      <point x="79" y="188" type="line"/>
      <point x="114" y="207"/>
      <point x="150" y="216"/>
      <point x="193" y="216" type="curve" smooth="yes"/>
      <point x="242" y="216"/>
      <point x="287" y="204"/>
      <point x="326" y="175" type="curve"/>
      <point x="370" y="244" type="line"/>
      <point x="160" y="148"/>
      <point x="-55" y="-76"/>
      <point x="-55" y="-229" type="curve" smooth="yes"/>
      <point x="-55" y="-326"/>
      <point x="31" y="-375"/>
      <point x="144" y="-375" type="curve" smooth="yes"/>
    </contour>
    <contour>
      <point x="232" y="-85" type="move" name="center"/>
    </contour>
    <contour>
      <point x="150" y="-420" type="move" name="bottom"/>
    </contour>
    <contour>
      <point x="280" y="403" type="move" name="top"/>
    </contour>
  </outline>
</glyph>
<glyph name="khah-ar" format="1">
  <advance width="452"/>
  <unicode hex="062E"/>
  <outline>
    <component base="hah-ar"/>
    <component base="dotabove-ar" xOffset="203" yOffset="83"/>
    <contour>
      <point x="200" y="-420" type="move" name="bottom"/>
    </contour>
  </outline>
</glyph>
<glyph name="dal-ar" format="1">
  <advance width="373"/>
  <unicode hex="062F"/>
  <outline>
    <contour>
      <point x="81" y="-13"/>
      <point x="181" y="0"/>
      <point x="265" y="22" type="curve"/>
      <point x="311" y="73"/>
      <point x="342" y="150"/>
      <point x="342" y="175" type="curve" smooth="yes"/>
      <point x="349" y="257"/>
      <point x="325" y="336"/>
      <point x="284" y="418" type="curve"/>
      <point x="143" y="321" type="line"/>
      <point x="197" y="251"/>
      <point x="236" y="181"/>
      <point x="257" y="111" type="curve"/>
      <point x="285" y="147" type="line"/>
      <point x="205" y="141"/>
      <point x="124" y="138"/>
      <point x="44" y="138" type="curve"/>
      <point x="-11" y="-15" type="line"/>
    </contour>
    <contour>
      <point x="194" y="419" type="move" name="top"/>
    </contour>
    <contour>
      <point x="160" y="-49" type="move" name="bottom"/>
    </contour>
  </outline>
</glyph>
<glyph name="thal-ar" format="1">
  <advance width="373"/>
  <unicode hex="0630"/>
  <outline>
    <component base="dal-ar"/>
    <component base="dotabove-ar" xOffset="117" yOffset="99"/>
    <contour>
      <point x="166" y="-50" type="move" name="bottom"/>
    </contour>
  </outline>
</glyph>
<glyph name="reh-ar" format="1">
  <advance width="408"/>
  <unicode hex="0631"/>
  <outline>
    <contour>
      <point x="303" y="-15"/>
      <point x="378" y="134"/>
      <point x="396" y="257" type="curve"/>
      <point x="366" y="261" type="line"/>
      <point x="344" y="203" type="line"/>
      <point x="264" y="157"/>
      <point x="95" y="92"/>
      <point x="-25" y="57" type="curve"/>
      <point x="7" y="25"/>
      <point x="105" y="-15"/>
      <point x="166" y="-15" type="curve" smooth="yes"/>
    </contour>
    <contour>
      <point x="374" y="312" type="move" name="top"/>
    </contour>
    <contour>
      <point x="205" y="-50" type="move" name="bottom"/>
    </contour>
  </outline>
</glyph>
<glyph name="zain-ar" format="1">
  <advance width="408"/>
  <unicode hex="0632"/>
  <outline>
    <component base="reh-ar"/>
    <component base="dotabove-ar" xOffset="297" yOffset="-8"/>
    <contour>
      <point x="205" y="-50" type="move" name="bottom"/>
    </contour>
  </outline>
</glyph>
<glyph name="seen-ar" format="1">
  <advance width="833"/>
  <unicode hex="0633"/>
  <outline>
    <contour>
      <point x="287" y="-15"/>
      <point x="375" y="69"/>
      <point x="404" y="130" type="curve" smooth="yes"/>
      <point x="436" y="195"/>
      <point x="458" y="269"/>
      <point x="458" y="303" type="curve"/>
      <point x="298" y="258" type="line"/>
      <point x="387" y="212" type="line"/>
      <point x="351" y="166"/>
      <point x="294" y="143"/>
      <point x="236" y="143" type="curve" smooth="yes"/>
      <point x="158" y="143"/>
      <point x="116" y="172"/>
      <point x="77" y="224" type="curve"/>
      <point x="70" y="193" type="line"/>
      <point x="106" y="249"/>
      <point x="140" y="289"/>
      <point x="177" y="323" type="curve"/>
      <point x="145" y="400" type="line"/>
      <point x="78" y="308"/>
      <point x="34" y="224"/>
      <point x="10" y="130" type="curve"/>
      <point x="16" y="42"/>
      <point x="88" y="-15"/>
      <point x="183" y="-15" type="curve" smooth="yes"/>
    </contour>
    <contour>
      <point x="818" y="419" type="line"/>
      <point x="804" y="439" type="line"/>
      <point x="646" y="419"/>
      <point x="496" y="408"/>
      <point x="356" y="402" type="curve"/>
      <point x="298" y="258" type="line"/>
      <point x="458" y="265"/>
      <point x="621" y="283"/>
      <point x="743" y="309" type="curve"/>
      <point x="733" y="259" type="line"/>
      <point x="762" y="255" type="line"/>
    </contour>
    <contour>
      <point x="578" y="520" type="move" name="top"/>
    </contour>
    <contour>
      <point x="452" y="4" type="move" name="bottom"/>
    </contour>
  </outline>
</glyph>
<glyph name="sheen-ar" format="1">
  <advance width="833"/>
  <unicode hex="0634"/>
  <outline>
    <component base="seen-ar"/>
    <component base="threedotsupabove-ar" xOffset="458" yOffset="73"/>
    <contour>
      <point x="452" y="4" type="move" name="bottom"/>
    </contour>
  </outline>
</glyph>
<glyph name="sad-ar" format="1">
  <advance width="841"/>
  <unicode hex="0635"/>
  <outline>
    <contour>
      <point x="481" y="124" type="line"/>
      <point x="508" y="220"/>
      <point x="533" y="299"/>
      <point x="558" y="369" type="curve"/>
      <point x="585" y="392"/>
      <point x="646" y="410"/>
      <point x="698" y="410" type="curve" smooth="yes"/>
      <point x="731" y="410"/>
      <point x="753" y="403"/>
      <point x="753" y="393" type="curve" smooth="yes"/>
      <point x="753" y="370"/>
      <point x="658" y="343"/>
      <point x="576" y="343" type="curve" smooth="yes"/>
      <point x="488" y="343"/>
      <point x="427" y="370"/>
      <point x="384" y="428" type="curve"/>
      <point x="328" y="282" type="line"/>
      <point x="379" y="230"/>
      <point x="462" y="198"/>
      <point x="545" y="198" type="curve" smooth="yes"/>
      <point x="618" y="198"/>
      <point x="698" y="223"/>
      <point x="732" y="256" type="curve" smooth="yes"/>
      <point x="768" y="290"/>
      <point x="800" y="386"/>
      <point x="800" y="453" type="curve" smooth="yes"/>
      <point x="800" y="528"/>
      <point x="772" y="561"/>
      <point x="717" y="561" type="curve" smooth="yes"/>
      <point x="667" y="561"/>
      <point x="616" y="539"/>
      <point x="587" y="506" type="curve" smooth="yes"/>
      <point x="550" y="464"/>
      <point x="528" y="405"/>
      <point x="449" y="129" type="curve"/>
    </contour>
    <contour>
      <point x="268" y="-15"/>
      <point x="356" y="42"/>
      <point x="404" y="130" type="curve" smooth="yes"/>
      <point x="430" y="178"/>
      <point x="458" y="268"/>
      <point x="458" y="303" type="curve"/>
      <point x="328" y="282" type="line"/>
      <point x="387" y="212" type="line"/>
      <point x="351" y="167"/>
      <point x="298" y="143"/>
      <point x="233" y="143" type="curve" smooth="yes"/>
      <point x="166" y="143"/>
      <point x="119" y="167"/>
      <point x="77" y="224" type="curve"/>
      <point x="70" y="193" type="line"/>
      <point x="104" y="245"/>
      <point x="137" y="287"/>
      <point x="177" y="323" type="curve"/>
      <point x="145" y="400" type="line"/>
      <point x="75" y="304"/>
      <point x="33" y="220"/>
      <point x="10" y="130" type="curve"/>
      <point x="16" y="45"/>
      <point x="86" y="-15"/>
      <point x="181" y="-15" type="curve" smooth="yes"/>
    </contour>
    <contour>
      <point x="719" y="605" type="move" name="top"/>
    </contour>
    <contour>
      <point x="601" y="158" type="move" name="bottom"/>
    </contour>
  </outline>
</glyph>
<glyph name="dad-ar" format="1">
  <advance width="841"/>
  <unicode hex="0636"/>
  <outline>
    <component base="sad-ar"/>
    <component base="dotabove-ar" xOffset="642" yOffset="285"/>
    <contour>
      <point x="601" y="158" type="move" name="bottom"/>
    </contour>
  </outline>
</glyph>
<glyph name="tah-ar" format="1">
  <advance width="544"/>
  <unicode hex="0637"/>
  <outline>
    <contour>
      <point x="298" y="-16"/>
      <point x="402" y="4"/>
      <point x="454" y="69" type="curve" smooth="yes"/>
      <point x="492" y="117"/>
      <point x="514" y="201"/>
      <point x="514" y="268" type="curve" smooth="yes"/>
      <point x="514" y="342"/>
      <point x="487" y="372"/>
      <point x="430" y="372" type="curve" smooth="yes"/>
      <point x="373" y="372"/>
      <point x="314" y="343"/>
      <point x="284" y="296" type="curve" smooth="yes"/>
      <point x="258" y="255"/>
      <point x="229" y="162"/>
      <point x="190" y="31" type="curve"/>
      <point x="219" y="22" type="line"/>
      <point x="271" y="173" type="line"/>
      <point x="305" y="200"/>
      <point x="364" y="218"/>
      <point x="412" y="218" type="curve" smooth="yes"/>
      <point x="447" y="218"/>
      <point x="465" y="209"/>
      <point x="465" y="201" type="curve" smooth="yes"/>
      <point x="465" y="182"/>
      <point x="375" y="148"/>
      <point x="248" y="138" type="curve" smooth="yes"/>
      <point x="210" y="135"/>
      <point x="111" y="130"/>
      <point x="0" y="126" type="curve"/>
      <point x="1" y="122"/>
      <point x="5" y="116"/>
      <point x="10" y="110" type="curve" smooth="yes"/>
      <point x="51" y="59"/>
      <point x="95" y="17"/>
      <point x="175" y="-14" type="curve"/>
      <point x="182" y="-15"/>
      <point x="193" y="-16"/>
      <point x="203" y="-16" type="curve" smooth="yes"/>
    </contour>
    <contour>
      <point x="276" y="361" type="line"/>
      <point x="283" y="376"/>
      <point x="303" y="527"/>
      <point x="303" y="596" type="curve" smooth="yes"/>
      <point x="303" y="619"/>
      <point x="301" y="632"/>
      <point x="299" y="640" type="curve"/>
      <point x="259" y="618"/>
      <point x="208" y="567"/>
      <point x="172" y="523" type="curve"/>
      <point x="185" y="432"/>
      <point x="190" y="356"/>
      <point x="189" y="221" type="curve"/>
      <point x="211" y="214" type="line"/>
    </contour>
    <contour>
      <point x="442" y="421" type="move" name="top"/>
    </contour>
    <contour>
      <point x="315" y="-45" type="move" name="bottom"/>
    </contour>
  </outline>
</glyph>
<glyph name="zah-ar" format="1">
  <advance width="544"/>
  <unicode hex="0638"/>
  <outline>
    <component base="tah-ar"/>
    <component base="dotabove-ar" xOffset="365" yOffset="101"/>
    <contour>
      <point x="315" y="-35" type="move" name="bottom"/>
    </contour>
  </outline>
</glyph>
<glyph name="ain-ar" format="1">
  <advance width="384"/>
  <unicode hex="0639"/>
  <outline>
    <contour>
      <point x="277" y="-375"/>
      <point x="384" y="-308"/>
      <point x="419" y="-244" type="curve"/>
      <point x="404" y="-245"/>
      <point x="387" y="-245"/>
      <point x="371" y="-245" type="curve" smooth="yes"/>
      <point x="206" y="-245"/>
      <point x="30" y="-196"/>
      <point x="30" y="-111" type="curve" smooth="yes"/>
      <point x="30" y="-60"/>
      <point x="234" y="79"/>
      <point x="318" y="118" type="curve"/>
      <point x="355" y="216" type="line"/>
      <point x="145" y="136"/>
      <point x="-55" y="-88"/>
      <point x="-55" y="-228" type="curve" smooth="yes"/>
      <point x="-55" y="-327"/>
      <point x="32" y="-375"/>
      <point x="144" y="-375" type="curve" smooth="yes"/>
    </contour>
    <contour>
      <point x="230" y="125" type="line"/>
      <point x="163" y="134"/>
      <point x="101" y="198"/>
      <point x="101" y="244" type="curve"/>
      <point x="79" y="185" type="line"/>
      <point x="133" y="209"/>
      <point x="215" y="224"/>
      <point x="274" y="229" type="curve"/>
      <point x="317" y="371" type="line"/>
      <point x="268" y="367"/>
      <point x="171" y="341"/>
      <point x="137" y="316" type="curve" smooth="yes"/>
      <point x="98" y="283"/>
      <point x="29" y="171"/>
      <point x="29" y="110" type="curve" smooth="yes"/>
      <point x="29" y="69"/>
      <point x="64" y="15"/>
      <point x="105" y="4" type="curve"/>
    </contour>
    <contour>
      <point x="221" y="400" type="move" name="top"/>
    </contour>
    <contour>
      <point x="145" y="-425" type="move" name="bottom"/>
    </contour>
  </outline>
</glyph>
<glyph name="ghain-ar" format="1">
  <advance width="384"/>
  <unicode hex="063A"/>
  <outline>
    <component base="ain-ar"/>
    <component base="dotabove-ar" xOffset="144" yOffset="80"/>
    <contour>
      <point x="200" y="-425" type="move" name="bottom"/>
    </contour>
  </outline>
</glyph>
<glyph name="kashida-ar" format="1">
  <advance width="337"/>
  <unicode hex="0640"/>
  <outline>
    <contour>
      <point x="273" y="42" type="line"/>
      <point x="294" y="60" type="line"/>
      <point x="337" y="177" type="line"/>
      <point x="331" y="194" type="line"/>
      <point x="58" y="165" type="line"/>
      <point x="0" y="13" type="line"/>
    </contour>
    <contour>
      <point x="302" y="119" type="move" name="entry"/>
    </contour>
    <contour>
      <point x="207" y="250" type="move" name="top"/>
    </contour>
    <contour>
      <point x="29" y="90" type="move" name="exit"/>
    </contour>
    <contour>
      <point x="146" y="-20" type="move" name="bottom"/>
    </contour>
  </outline>
</glyph>
<glyph name="feh-ar" format="1">
  <advance width="740"/>
  <unicode hex="0641"/>
  <outline>
    <component base="dotlessfeh-ar"/>
    <component base="dotabove-ar" xOffset="556" yOffset="168"/>
    <contour>
      <point x="354" y="-55" type="move" name="bottom"/>
    </contour>
  </outline>
</glyph>
<glyph name="qaf-ar" format="1">
  <advance width="611"/>
  <unicode hex="0642"/>
  <outline>
    <contour>
      <point x="383" y="-15"/>
      <point x="494" y="44"/>
      <point x="541" y="124" type="curve"/>
      <point x="568" y="175"/>
      <point x="587" y="252"/>
      <point x="587" y="317" type="curve" smooth="yes"/>
      <point x="587" y="396"/>
      <point x="559" y="456"/>
      <point x="523" y="456" type="curve" smooth="yes"/>
      <point x="473" y="456"/>
      <point x="370" y="339"/>
      <point x="370" y="282" type="curve" smooth="yes"/>
      <point x="370" y="254"/>
      <point x="402" y="238"/>
      <point x="454" y="238" type="curve" smooth="yes"/>
      <point x="501" y="238" type="line"/>
      <point x="509" y="177" type="line"/>
      <point x="520" y="198" type="line"/>
      <point x="475" y="161"/>
      <point x="402" y="137"/>
      <point x="332" y="137" type="curve" smooth="yes"/>
      <point x="254" y="137"/>
      <point x="195" y="165"/>
      <point x="159" y="218" type="curve"/>
      <point x="152" y="193" type="line"/>
      <point x="160" y="210"/>
      <point x="198" y="244"/>
      <point x="229" y="263" type="curve"/>
      <point x="275" y="391" type="line"/>
      <point x="247" y="405"/>
      <point x="204" y="415"/>
      <point x="177" y="415" type="curve" smooth="yes"/>
      <point x="98" y="415"/>
      <point x="42" y="353"/>
      <point x="6" y="245" type="curve"/>
      <point x="27" y="237" type="line"/>
      <point x="47" y="268"/>
      <point x="76" y="282"/>
      <point x="124" y="282" type="curve" smooth="yes"/>
      <point x="149" y="282"/>
      <point x="210" y="270"/>
      <point x="229" y="263" type="curve"/>
      <point x="186" y="315" type="line"/>
      <point x="143" y="258"/>
      <point x="110" y="194"/>
      <point x="92" y="130" type="curve"/>
      <point x="98" y="45"/>
      <point x="175" y="-15"/>
      <point x="280" y="-15" type="curve" smooth="yes"/>
    </contour>
    <contour>
      <point x="356" y="464" type="move" name="top"/>
    </contour>
    <contour>
      <point x="321" y="-45" type="move" name="bottom"/>
    </contour>
  </outline>
</glyph>
<glyph name="kaf-ar" format="1">
  <advance width="608"/>
  <unicode hex="0643"/>
  <outline>
    <contour>
      <point x="352" y="-15"/>
      <point x="466" y="31"/>
      <point x="520" y="80" type="curve"/>
      <point x="558" y="127"/>
      <point x="578" y="247"/>
      <point x="578" y="282" type="curve" smooth="yes"/>
      <point x="578" y="412"/>
      <point x="563" y="579"/>
      <point x="549" y="619" type="curve"/>
      <point x="512" y="590"/>
      <point x="465" y="533"/>
      <point x="433" y="477" type="curve"/>
      <point x="459" y="399"/>
      <point x="497" y="251"/>
      <point x="502" y="167" type="curve"/>
      <point x="517" y="191" type="line"/>
      <point x="475" y="162"/>
      <point x="391" y="137"/>
      <point x="290" y="137" type="curve" smooth="yes"/>
      <point x="183" y="137"/>
      <point x="108" y="165"/>
      <point x="102" y="204" type="curve"/>
      <point x="93" y="175" type="line"/>
      <point x="130" y="230"/>
      <point x="203" y="311"/>
      <point x="265" y="355" type="curve"/>
      <point x="316" y="260" type="line"/>
      <point x="342" y="283" type="line"/>
      <point x="308" y="287"/>
      <point x="276" y="293"/>
      <point x="249" y="298" type="curve"/>
      <point x="187" y="233" type="line"/>
      <point x="227" y="222"/>
      <point x="267" y="217"/>
      <point x="307" y="220" type="curve"/>
      <point x="338" y="250"/>
      <point x="363" y="283"/>
      <point x="382" y="319" type="curve"/>
      <point x="306" y="480" type="line"/>
      <point x="151" y="397"/>
      <point x="15" y="167"/>
      <point x="15" y="80" type="curve"/>
      <point x="34" y="29"/>
      <point x="139" y="-15"/>
      <point x="244" y="-15" type="curve" smooth="yes"/>
    </contour>
    <contour>
      <point x="353" y="593" type="move" name="top"/>
    </contour>
    <contour>
      <point x="277" y="-45" type="move" name="bottom"/>
    </contour>
  </outline>
</glyph>
<glyph name="lam-ar" format="1">
  <advance width="518"/>
  <unicode hex="0644"/>
  <outline>
    <contour>
      <point x="292" y="-15"/>
      <point x="384" y="33"/>
      <point x="430" y="82" type="curve"/>
      <point x="468" y="129"/>
      <point x="488" y="249"/>
      <point x="488" y="284" type="curve" smooth="yes"/>
      <point x="488" y="414"/>
      <point x="473" y="581"/>
      <point x="459" y="621" type="curve"/>
      <point x="422" y="592"/>
      <point x="375" y="535"/>
      <point x="343" y="479" type="curve"/>
      <point x="369" y="401"/>
      <point x="407" y="253"/>
      <point x="412" y="169" type="curve"/>
      <point x="427" y="193" type="line"/>
      <point x="390" y="164"/>
      <point x="325" y="137"/>
      <point x="237" y="137" type="curve" smooth="yes"/>
      <point x="148" y="137"/>
      <point x="91" y="167"/>
      <point x="85" y="206" type="curve"/>
      <point x="86" y="171" type="line"/>
      <point x="104" y="198"/>
      <point x="153" y="247"/>
      <point x="194" y="278" type="curve"/>
      <point x="179" y="364" type="line"/>
      <point x="102" y="296"/>
      <point x="28" y="164"/>
      <point x="16" y="96" type="curve"/>
      <point x="31" y="34"/>
      <point x="112" y="-15"/>
      <point x="201" y="-15" type="curve" smooth="yes"/>
    </contour>
    <contour>
      <point x="233" y="533" type="move" name="top"/>
    </contour>
    <contour>
      <point x="246" y="-50" type="move" name="bottom"/>
    </contour>
  </outline>
</glyph>
<glyph name="meem-ar" format="1">
  <advance width="444"/>
  <unicode hex="0645"/>
  <outline>
    <contour>
      <point x="86" y="-292"/>
      <point x="112" y="-238"/>
      <point x="123" y="-165" type="curve"/>
      <point x="109" y="77" type="line"/>
      <point x="75" y="25" type="line"/>
      <point x="174" y="36"/>
      <point x="253" y="52"/>
      <point x="297" y="65" type="curve"/>
      <point x="350" y="89"/>
      <point x="414" y="193"/>
      <point x="414" y="294" type="curve" smooth="yes"/>
      <point x="414" y="319"/>
      <point x="373" y="340"/>
      <point x="327" y="340" type="curve" smooth="yes"/>
      <point x="294" y="340"/>
      <point x="263" y="330"/>
      <point x="242" y="316" type="curve" smooth="yes"/>
      <point x="219" y="299"/>
      <point x="192" y="224"/>
      <point x="192" y="197" type="curve" smooth="yes"/>
      <point x="192" y="172"/>
      <point x="215" y="134"/>
      <point x="289" y="129" type="curve"/>
      <point x="358" y="180" type="line"/>
      <point x="353" y="223" type="line"/>
      <point x="249" y="187" type="line"/>
      <point x="171" y="178" type="line" smooth="yes"/>
      <point x="111" y="171"/>
      <point x="10" y="78"/>
      <point x="-5" y="19" type="curve"/>
      <point x="40" y="-320" type="line"/>
    </contour>
    <contour>
      <point x="332" y="373" type="move" name="top"/>
    </contour>
    <contour>
      <point x="262" y="-10" type="move" name="bottom"/>
    </contour>
  </outline>
</glyph>
